%TF.GenerationSoftware,KiCad,Pcbnew,(6.0.7)*%
%TF.CreationDate,2022-08-26T02:08:04+02:00*%
%TF.ProjectId,airpcb_smd,61697270-6362-45f7-936d-642e6b696361,rev?*%
%TF.SameCoordinates,Original*%
%TF.FileFunction,Copper,L2,Bot*%
%TF.FilePolarity,Positive*%
%FSLAX46Y46*%
G04 Gerber Fmt 4.6, Leading zero omitted, Abs format (unit mm)*
G04 Created by KiCad (PCBNEW (6.0.7)) date 2022-08-26 02:08:04*
%MOMM*%
%LPD*%
G01*
G04 APERTURE LIST*
%TA.AperFunction,Profile*%
%ADD10C,0.050000*%
%TD*%
%TA.AperFunction,ComponentPad*%
%ADD11R,2.000000X2.000000*%
%TD*%
%TA.AperFunction,ComponentPad*%
%ADD12C,2.000000*%
%TD*%
%TA.AperFunction,ComponentPad*%
%ADD13R,2.200000X2.200000*%
%TD*%
%TA.AperFunction,ComponentPad*%
%ADD14C,2.200000*%
%TD*%
%TA.AperFunction,ComponentPad*%
%ADD15R,1.600000X1.600000*%
%TD*%
%TA.AperFunction,ComponentPad*%
%ADD16O,1.600000X1.600000*%
%TD*%
%TA.AperFunction,ComponentPad*%
%ADD17C,3.800000*%
%TD*%
%TA.AperFunction,ComponentPad*%
%ADD18R,1.700000X1.700000*%
%TD*%
%TA.AperFunction,ComponentPad*%
%ADD19O,1.700000X1.700000*%
%TD*%
%TA.AperFunction,ViaPad*%
%ADD20C,1.200000*%
%TD*%
%TA.AperFunction,ViaPad*%
%ADD21C,2.000000*%
%TD*%
%TA.AperFunction,Conductor*%
%ADD22C,0.508000*%
%TD*%
%TA.AperFunction,Conductor*%
%ADD23C,0.304800*%
%TD*%
G04 APERTURE END LIST*
D10*
X103000000Y-50000000D02*
G75*
G03*
X100000000Y-53000000I0J-3000000D01*
G01*
X103000000Y-50000000D02*
X157000000Y-50000000D01*
X100000000Y-121000000D02*
G75*
G03*
X103000000Y-124000000I3000000J0D01*
G01*
X160000000Y-53000000D02*
G75*
G03*
X157000000Y-50000000I-3000000J0D01*
G01*
X160000000Y-53000000D02*
X160000000Y-121000000D01*
X103000000Y-124000000D02*
X157000000Y-124000000D01*
X100000000Y-53000000D02*
X100000000Y-121000000D01*
X157000000Y-124000000D02*
G75*
G03*
X160000000Y-121000000I0J3000000D01*
G01*
D11*
%TO.P,U3,1,3V3*%
%TO.N,3V3*%
X142865000Y-93930000D03*
D12*
%TO.P,U3,2,GND*%
%TO.N,GND*%
X142865000Y-91390000D03*
%TO.P,U3,3,D15*%
%TO.N,unconnected-(U3-Pad3)*%
X142865000Y-88850000D03*
%TO.P,U3,4,D2*%
%TO.N,D2*%
X142865000Y-86310000D03*
%TO.P,U3,5,D4*%
%TO.N,D4*%
X142865000Y-83770000D03*
%TO.P,U3,6,RX2*%
%TO.N,unconnected-(U3-Pad6)*%
X142865000Y-81230000D03*
%TO.P,U3,7,TX2*%
%TO.N,unconnected-(U3-Pad7)*%
X142865000Y-78690000D03*
%TO.P,U3,8,D5*%
%TO.N,unconnected-(U3-Pad8)*%
X142865000Y-76150000D03*
%TO.P,U3,9,D18*%
%TO.N,unconnected-(U3-Pad9)*%
X142865000Y-73610000D03*
%TO.P,U3,10,D19*%
%TO.N,unconnected-(U3-Pad10)*%
X142865000Y-71070000D03*
%TO.P,U3,11,D21*%
%TO.N,SDA*%
X142865000Y-68530000D03*
%TO.P,U3,12,RX0*%
%TO.N,unconnected-(U3-Pad12)*%
X142865000Y-65990000D03*
%TO.P,U3,13,TX0*%
%TO.N,unconnected-(U3-Pad13)*%
X142865000Y-63450000D03*
%TO.P,U3,14,D22*%
%TO.N,SCL*%
X142865000Y-60910000D03*
%TO.P,U3,15,D23*%
%TO.N,unconnected-(U3-Pad15)*%
X142865000Y-58370000D03*
%TO.P,U3,16,EN*%
%TO.N,unconnected-(U3-Pad16)*%
X117465000Y-58370000D03*
%TO.P,U3,17,VP*%
%TO.N,unconnected-(U3-Pad17)*%
X117465000Y-60910000D03*
%TO.P,U3,18,VN*%
%TO.N,unconnected-(U3-Pad18)*%
X117465000Y-63450000D03*
%TO.P,U3,19,D34*%
%TO.N,unconnected-(U3-Pad19)*%
X117465000Y-65990000D03*
%TO.P,U3,20,D35*%
%TO.N,unconnected-(U3-Pad20)*%
X117465000Y-68530000D03*
%TO.P,U3,21,D32*%
%TO.N,unconnected-(U3-Pad21)*%
X117465000Y-71070000D03*
%TO.P,U3,22,D33*%
%TO.N,unconnected-(U3-Pad22)*%
X117465000Y-73610000D03*
%TO.P,U3,23,D25*%
%TO.N,unconnected-(U3-Pad23)*%
X117465000Y-76150000D03*
%TO.P,U3,24,D26*%
%TO.N,unconnected-(U3-Pad24)*%
X117465000Y-78690000D03*
%TO.P,U3,25,D27*%
%TO.N,unconnected-(U3-Pad25)*%
X117465000Y-81230000D03*
%TO.P,U3,26,D14*%
%TO.N,unconnected-(U3-Pad26)*%
X117465000Y-83770000D03*
%TO.P,U3,27,D12*%
%TO.N,D12*%
X117465000Y-86310000D03*
%TO.P,U3,28,D13*%
%TO.N,D13*%
X117465000Y-88850000D03*
%TO.P,U3,29,GND*%
%TO.N,GND*%
X117465000Y-91390000D03*
%TO.P,U3,30,VIN*%
%TO.N,5V*%
X117465000Y-93930000D03*
%TD*%
D13*
%TO.P,J4,1,Pin_1*%
%TO.N,A*%
X127000000Y-119380000D03*
D14*
%TO.P,J4,2,Pin_2*%
%TO.N,B*%
X129540000Y-119380000D03*
%TD*%
D15*
%TO.P,U2,1*%
%TO.N,Net-(Q1-Pad3)*%
X146040000Y-113035000D03*
D16*
%TO.P,U2,2*%
%TO.N,GND*%
X146040000Y-110495000D03*
%TO.P,U2,3*%
%TO.N,Net-(R6-Pad2)*%
X138420000Y-110495000D03*
%TO.P,U2,4*%
%TO.N,Net-(D3-Pad1)*%
X138420000Y-113035000D03*
%TD*%
D17*
%TO.P,H1,1*%
%TO.N,N/C*%
X105000000Y-54000000D03*
%TD*%
D18*
%TO.P,J2,1,Pin_1*%
%TO.N,GND*%
X152400000Y-88900000D03*
D19*
%TO.P,J2,2,Pin_2*%
%TO.N,D2*%
X152400000Y-91440000D03*
%TO.P,J2,3,Pin_3*%
%TO.N,3V3*%
X152400000Y-93980000D03*
%TO.P,J2,4,Pin_4*%
%TO.N,unconnected-(J2-Pad4)*%
X152400000Y-96520000D03*
%TD*%
D18*
%TO.P,J1,1,Pin_1*%
%TO.N,GND*%
X152400000Y-60960000D03*
D19*
%TO.P,J1,2,Pin_2*%
%TO.N,3V3*%
X152400000Y-63500000D03*
%TO.P,J1,3,Pin_3*%
%TO.N,SCL*%
X152400000Y-66040000D03*
%TO.P,J1,4,Pin_4*%
%TO.N,SDA*%
X152400000Y-68580000D03*
%TD*%
D18*
%TO.P,J7,1,Pin_1*%
%TO.N,GND*%
X108585000Y-76835000D03*
D19*
%TO.P,J7,2,Pin_2*%
%TO.N,3V3*%
X108585000Y-79375000D03*
%TO.P,J7,3,Pin_3*%
%TO.N,5V*%
X108585000Y-81915000D03*
%TD*%
D15*
%TO.P,U1,1*%
%TO.N,Net-(D2-Pad1)*%
X129540000Y-89535000D03*
D16*
%TO.P,U1,2*%
%TO.N,Net-(D1-Pad1)*%
X129540000Y-86995000D03*
%TO.P,U1,3*%
%TO.N,D12*%
X121920000Y-86995000D03*
%TO.P,U1,4*%
%TO.N,3V3*%
X121920000Y-89535000D03*
%TD*%
D18*
%TO.P,J9,1,Pin_1*%
%TO.N,5V*%
X108585000Y-62066000D03*
D19*
%TO.P,J9,2,Pin_2*%
%TO.N,PSU_OUT*%
X108585000Y-64606000D03*
%TO.P,J9,3,Pin_3*%
%TO.N,3V3*%
X108585000Y-67146000D03*
%TD*%
D17*
%TO.P,H2,1*%
%TO.N,N/C*%
X155000000Y-54000000D03*
%TD*%
D18*
%TO.P,J8,1,Pin_1*%
%TO.N,GND*%
X152400000Y-76200000D03*
D19*
%TO.P,J8,2,Pin_2*%
%TO.N,D4*%
X152400000Y-78740000D03*
%TO.P,J8,3,Pin_3*%
%TO.N,5V*%
X152400000Y-81280000D03*
%TD*%
D18*
%TO.P,J3,1,Pin_1*%
%TO.N,Net-(D5-Pad1)*%
X108610000Y-88285000D03*
D19*
%TO.P,J3,2,Pin_2*%
%TO.N,Net-(J11-Pad3)*%
X108610000Y-90825000D03*
%TD*%
D17*
%TO.P,H4,1*%
%TO.N,N/C*%
X105000000Y-119000000D03*
%TD*%
%TO.P,H3,1*%
%TO.N,N/C*%
X155000000Y-119000000D03*
%TD*%
D18*
%TO.P,J11,1,Pin_1*%
%TO.N,GND*%
X108610000Y-97185000D03*
D19*
%TO.P,J11,2,Pin_2*%
%TO.N,PSU_OUT*%
X108610000Y-99725000D03*
%TO.P,J11,3,Pin_3*%
%TO.N,Net-(J11-Pad3)*%
X108610000Y-102265000D03*
%TO.P,J11,4,Pin_4*%
%TO.N,B*%
X108610000Y-104805000D03*
%TO.P,J11,5,Pin_5*%
%TO.N,unconnected-(J11-Pad5)*%
X108610000Y-107345000D03*
%TD*%
D20*
%TO.N,GND*%
X135890000Y-88900000D03*
%TO.N,A*%
X125730000Y-113030000D03*
X114300000Y-103505000D03*
D21*
%TO.N,GND*%
X113030000Y-77470000D03*
X120650000Y-81915000D03*
X129540000Y-82947500D03*
D20*
%TO.N,3V3*%
X135255000Y-84455000D03*
%TD*%
D22*
%TO.N,GND*%
X134620000Y-88900000D02*
X135890000Y-88900000D01*
X133350000Y-90170000D02*
X134620000Y-88900000D01*
X132130000Y-91390000D02*
X133350000Y-90170000D01*
X117465000Y-91390000D02*
X132130000Y-91390000D01*
D23*
%TO.N,3V3*%
X123825000Y-87630000D02*
X121920000Y-89535000D01*
X123825000Y-81915000D02*
X123825000Y-87630000D01*
X121232600Y-79322600D02*
X123825000Y-81915000D01*
X121232600Y-53287600D02*
X121232600Y-79322600D01*
X120650000Y-52705000D02*
X121232600Y-53287600D01*
X116205000Y-52705000D02*
X120650000Y-52705000D01*
X114300000Y-54610000D02*
X116205000Y-52705000D01*
X114300000Y-61431000D02*
X114300000Y-54610000D01*
X108585000Y-67146000D02*
X114300000Y-61431000D01*
%TO.N,A*%
X123825000Y-113030000D02*
X125730000Y-113030000D01*
X114300000Y-103505000D02*
X123825000Y-113030000D01*
D22*
%TO.N,GND*%
X113030000Y-86955000D02*
X113030000Y-77470000D01*
X117465000Y-91390000D02*
X113030000Y-86955000D01*
X114985000Y-91390000D02*
X117465000Y-91390000D01*
X108610000Y-97185000D02*
X109190000Y-97185000D01*
X109190000Y-97185000D02*
X114985000Y-91390000D01*
D23*
%TO.N,3V3*%
X154940000Y-91440000D02*
X152400000Y-93980000D01*
X152400000Y-63500000D02*
X154940000Y-66040000D01*
X154940000Y-66040000D02*
X154940000Y-91440000D01*
D22*
%TO.N,GND*%
X151765000Y-76200000D02*
X152400000Y-76200000D01*
X149225000Y-78740000D02*
X151765000Y-76200000D01*
X149225000Y-85725000D02*
X149225000Y-78740000D01*
X152400000Y-88900000D02*
X149225000Y-85725000D01*
X149225000Y-64135000D02*
X152400000Y-60960000D01*
X149225000Y-73025000D02*
X149225000Y-64135000D01*
X152400000Y-76200000D02*
X149225000Y-73025000D01*
X120015000Y-82550000D02*
X120650000Y-81915000D01*
X120015000Y-85725000D02*
X120015000Y-82550000D01*
X120015000Y-88840000D02*
X120015000Y-85725000D01*
X117465000Y-91390000D02*
X120015000Y-88840000D01*
X135255000Y-81915000D02*
X130572500Y-81915000D01*
X140335000Y-86995000D02*
X135255000Y-81915000D01*
X140335000Y-90805000D02*
X140335000Y-86995000D01*
X130572500Y-81915000D02*
X129540000Y-82947500D01*
X140920000Y-91390000D02*
X140335000Y-90805000D01*
X142865000Y-91390000D02*
X140920000Y-91390000D01*
X148590000Y-88900000D02*
X152400000Y-88900000D01*
X146100000Y-91390000D02*
X148590000Y-88900000D01*
X142865000Y-91390000D02*
X146100000Y-91390000D01*
D23*
%TO.N,PSU_OUT*%
X106045000Y-67146000D02*
X106045000Y-97160000D01*
X106045000Y-97160000D02*
X108610000Y-99725000D01*
X108585000Y-64606000D02*
X106045000Y-67146000D01*
%TO.N,3V3*%
X109855000Y-79375000D02*
X108585000Y-79375000D01*
X111125000Y-78105000D02*
X109855000Y-79375000D01*
X111125000Y-69686000D02*
X111125000Y-78105000D01*
X108585000Y-67146000D02*
X111125000Y-69686000D01*
X123825000Y-89535000D02*
X128905000Y-84455000D01*
X128905000Y-84455000D02*
X135255000Y-84455000D01*
X121920000Y-89535000D02*
X123825000Y-89535000D01*
X139065000Y-88265000D02*
X139065000Y-92710000D01*
X135255000Y-84455000D02*
X139065000Y-88265000D01*
X139065000Y-92710000D02*
X140285000Y-93930000D01*
X140285000Y-93930000D02*
X142865000Y-93930000D01*
%TD*%
%TA.AperFunction,Conductor*%
%TO.N,3V3*%
G36*
X158015931Y-51020002D02*
G01*
X158036905Y-51036905D01*
X158963095Y-51963095D01*
X158997121Y-52025407D01*
X159000000Y-52052190D01*
X159000000Y-121947810D01*
X158979998Y-122015931D01*
X158963095Y-122036905D01*
X158036905Y-122963095D01*
X157974593Y-122997121D01*
X157947810Y-123000000D01*
X130244474Y-123000000D01*
X130176353Y-122979998D01*
X130129860Y-122926342D01*
X130119756Y-122856068D01*
X130149250Y-122791488D01*
X130164839Y-122776357D01*
X130284684Y-122678614D01*
X130284687Y-122678611D01*
X130289464Y-122674715D01*
X130421783Y-122514770D01*
X130425876Y-122507201D01*
X130517584Y-122337590D01*
X130517586Y-122337585D01*
X130520514Y-122332170D01*
X130581898Y-122133871D01*
X130583429Y-122119303D01*
X130602952Y-121933554D01*
X130602952Y-121933552D01*
X130603596Y-121927425D01*
X130584782Y-121720697D01*
X130582298Y-121712255D01*
X130527912Y-121527469D01*
X130526173Y-121521560D01*
X130430001Y-121337600D01*
X130299929Y-121175823D01*
X130295211Y-121171865D01*
X130295209Y-121171862D01*
X130164119Y-121061864D01*
X130124793Y-121002755D01*
X130123667Y-120931767D01*
X130161098Y-120871439D01*
X130196892Y-120848935D01*
X130227919Y-120836083D01*
X130267928Y-120819511D01*
X130267932Y-120819509D01*
X130272502Y-120817616D01*
X130488376Y-120685328D01*
X130680898Y-120520898D01*
X130845328Y-120328376D01*
X130977616Y-120112502D01*
X131074505Y-119878591D01*
X131133609Y-119632403D01*
X131153474Y-119380000D01*
X131133609Y-119127597D01*
X131102976Y-119000000D01*
X152586738Y-119000000D01*
X152605767Y-119302462D01*
X152662555Y-119600154D01*
X152663782Y-119603930D01*
X152751462Y-119873779D01*
X152756206Y-119888381D01*
X152885242Y-120162598D01*
X153047630Y-120418480D01*
X153240808Y-120651992D01*
X153243695Y-120654703D01*
X153450531Y-120848934D01*
X153461729Y-120859450D01*
X153706910Y-121037584D01*
X153710379Y-121039491D01*
X153710382Y-121039493D01*
X153947834Y-121170034D01*
X153972483Y-121183585D01*
X153976152Y-121185038D01*
X153976157Y-121185040D01*
X154250591Y-121293696D01*
X154254261Y-121295149D01*
X154547800Y-121370516D01*
X154848470Y-121408500D01*
X155151530Y-121408500D01*
X155452200Y-121370516D01*
X155745739Y-121295149D01*
X155749409Y-121293696D01*
X156023843Y-121185040D01*
X156023848Y-121185038D01*
X156027517Y-121183585D01*
X156052166Y-121170034D01*
X156289618Y-121039493D01*
X156289621Y-121039491D01*
X156293090Y-121037584D01*
X156538271Y-120859450D01*
X156549470Y-120848934D01*
X156756305Y-120654703D01*
X156759192Y-120651992D01*
X156952370Y-120418480D01*
X157114758Y-120162598D01*
X157243794Y-119888381D01*
X157248539Y-119873779D01*
X157336218Y-119603930D01*
X157337445Y-119600154D01*
X157394233Y-119302462D01*
X157413262Y-119000000D01*
X157394233Y-118697538D01*
X157337445Y-118399846D01*
X157243794Y-118111619D01*
X157208894Y-118037451D01*
X157165375Y-117944970D01*
X157114758Y-117837402D01*
X156952370Y-117581520D01*
X156759192Y-117348008D01*
X156538271Y-117140550D01*
X156293090Y-116962416D01*
X156027517Y-116816415D01*
X156023848Y-116814962D01*
X156023843Y-116814960D01*
X155749409Y-116706304D01*
X155749408Y-116706304D01*
X155745739Y-116704851D01*
X155452200Y-116629484D01*
X155151530Y-116591500D01*
X154848470Y-116591500D01*
X154547800Y-116629484D01*
X154254261Y-116704851D01*
X154250592Y-116706304D01*
X154250591Y-116706304D01*
X153976157Y-116814960D01*
X153976152Y-116814962D01*
X153972483Y-116816415D01*
X153706910Y-116962416D01*
X153461729Y-117140550D01*
X153240808Y-117348008D01*
X153047630Y-117581520D01*
X152885242Y-117837402D01*
X152834625Y-117944970D01*
X152791107Y-118037451D01*
X152756206Y-118111619D01*
X152662555Y-118399846D01*
X152605767Y-118697538D01*
X152586738Y-119000000D01*
X131102976Y-119000000D01*
X131074505Y-118881409D01*
X130999985Y-118701501D01*
X130979511Y-118652072D01*
X130979509Y-118652068D01*
X130977616Y-118647498D01*
X130845328Y-118431624D01*
X130680898Y-118239102D01*
X130488376Y-118074672D01*
X130272502Y-117942384D01*
X130267932Y-117940491D01*
X130267928Y-117940489D01*
X130043164Y-117847389D01*
X130043162Y-117847388D01*
X130038591Y-117845495D01*
X129953968Y-117825179D01*
X129797216Y-117787546D01*
X129797210Y-117787545D01*
X129792403Y-117786391D01*
X129540000Y-117766526D01*
X129287597Y-117786391D01*
X129282790Y-117787545D01*
X129282784Y-117787546D01*
X129126032Y-117825179D01*
X129041409Y-117845495D01*
X129036838Y-117847388D01*
X129036836Y-117847389D01*
X128812072Y-117940489D01*
X128812068Y-117940491D01*
X128807498Y-117942384D01*
X128803278Y-117944970D01*
X128682614Y-118018913D01*
X128614080Y-118037451D01*
X128546404Y-118015995D01*
X128515953Y-117987046D01*
X128463261Y-117916739D01*
X128346705Y-117829385D01*
X128210316Y-117778255D01*
X128148134Y-117771500D01*
X125851866Y-117771500D01*
X125789684Y-117778255D01*
X125653295Y-117829385D01*
X125536739Y-117916739D01*
X125449385Y-118033295D01*
X125398255Y-118169684D01*
X125391500Y-118231866D01*
X125391500Y-120528134D01*
X125398255Y-120590316D01*
X125449385Y-120726705D01*
X125536739Y-120843261D01*
X125653295Y-120930615D01*
X125789684Y-120981745D01*
X125851866Y-120988500D01*
X126129022Y-120988500D01*
X126197143Y-121008502D01*
X126243636Y-121062158D01*
X126253740Y-121132432D01*
X126226106Y-121194815D01*
X126118217Y-121325230D01*
X126115288Y-121330647D01*
X126115286Y-121330650D01*
X126022416Y-121502410D01*
X126022414Y-121502415D01*
X126019486Y-121507830D01*
X125958102Y-121706129D01*
X125957458Y-121712254D01*
X125957458Y-121712255D01*
X125955926Y-121726836D01*
X125936404Y-121912575D01*
X125938313Y-121933554D01*
X125946153Y-122019692D01*
X125955218Y-122119303D01*
X125956956Y-122125209D01*
X125956957Y-122125213D01*
X125966565Y-122157858D01*
X126013827Y-122318440D01*
X126109999Y-122502400D01*
X126240071Y-122664177D01*
X126373762Y-122776357D01*
X126375098Y-122777478D01*
X126414425Y-122836588D01*
X126415551Y-122907576D01*
X126378120Y-122967903D01*
X126314015Y-122998417D01*
X126294107Y-123000000D01*
X102052190Y-123000000D01*
X101984069Y-122979998D01*
X101963095Y-122963095D01*
X101036905Y-122036905D01*
X101002879Y-121974593D01*
X101000000Y-121947810D01*
X101000000Y-119000000D01*
X102586738Y-119000000D01*
X102605767Y-119302462D01*
X102662555Y-119600154D01*
X102663782Y-119603930D01*
X102751462Y-119873779D01*
X102756206Y-119888381D01*
X102885242Y-120162598D01*
X103047630Y-120418480D01*
X103240808Y-120651992D01*
X103243695Y-120654703D01*
X103450531Y-120848934D01*
X103461729Y-120859450D01*
X103706910Y-121037584D01*
X103710379Y-121039491D01*
X103710382Y-121039493D01*
X103947834Y-121170034D01*
X103972483Y-121183585D01*
X103976152Y-121185038D01*
X103976157Y-121185040D01*
X104250591Y-121293696D01*
X104254261Y-121295149D01*
X104547800Y-121370516D01*
X104848470Y-121408500D01*
X105151530Y-121408500D01*
X105452200Y-121370516D01*
X105745739Y-121295149D01*
X105749409Y-121293696D01*
X106023843Y-121185040D01*
X106023848Y-121185038D01*
X106027517Y-121183585D01*
X106052166Y-121170034D01*
X106289618Y-121039493D01*
X106289621Y-121039491D01*
X106293090Y-121037584D01*
X106538271Y-120859450D01*
X106549470Y-120848934D01*
X106756305Y-120654703D01*
X106759192Y-120651992D01*
X106952370Y-120418480D01*
X107114758Y-120162598D01*
X107243794Y-119888381D01*
X107248539Y-119873779D01*
X107336218Y-119603930D01*
X107337445Y-119600154D01*
X107394233Y-119302462D01*
X107413262Y-119000000D01*
X107394233Y-118697538D01*
X107337445Y-118399846D01*
X107243794Y-118111619D01*
X107208894Y-118037451D01*
X107165375Y-117944970D01*
X107114758Y-117837402D01*
X106952370Y-117581520D01*
X106759192Y-117348008D01*
X106538271Y-117140550D01*
X106293090Y-116962416D01*
X106027517Y-116816415D01*
X106023848Y-116814962D01*
X106023843Y-116814960D01*
X105749409Y-116706304D01*
X105749408Y-116706304D01*
X105745739Y-116704851D01*
X105452200Y-116629484D01*
X105151530Y-116591500D01*
X104848470Y-116591500D01*
X104547800Y-116629484D01*
X104254261Y-116704851D01*
X104250592Y-116706304D01*
X104250591Y-116706304D01*
X103976157Y-116814960D01*
X103976152Y-116814962D01*
X103972483Y-116816415D01*
X103706910Y-116962416D01*
X103461729Y-117140550D01*
X103240808Y-117348008D01*
X103047630Y-117581520D01*
X102885242Y-117837402D01*
X102834625Y-117944970D01*
X102791107Y-118037451D01*
X102756206Y-118111619D01*
X102662555Y-118399846D01*
X102605767Y-118697538D01*
X102586738Y-119000000D01*
X101000000Y-119000000D01*
X101000000Y-97194843D01*
X105380158Y-97194843D01*
X105381463Y-97202320D01*
X105381463Y-97202321D01*
X105390368Y-97253343D01*
X105391330Y-97259865D01*
X105398463Y-97318805D01*
X105401149Y-97325913D01*
X105402860Y-97332879D01*
X105404279Y-97338068D01*
X105406356Y-97344947D01*
X105407661Y-97352424D01*
X105431529Y-97406795D01*
X105434012Y-97412881D01*
X105455006Y-97468441D01*
X105459309Y-97474702D01*
X105462615Y-97481026D01*
X105465271Y-97485798D01*
X105468906Y-97491944D01*
X105471958Y-97498896D01*
X105476580Y-97504919D01*
X105508102Y-97546001D01*
X105511973Y-97551328D01*
X105545611Y-97600271D01*
X105551287Y-97605328D01*
X105588819Y-97638768D01*
X105594095Y-97643749D01*
X106439114Y-98488767D01*
X107251365Y-99301018D01*
X107285390Y-99363330D01*
X107283687Y-99423783D01*
X107270989Y-99469570D01*
X107270441Y-99474700D01*
X107270440Y-99474704D01*
X107266933Y-99507522D01*
X107247251Y-99691695D01*
X107247548Y-99696848D01*
X107247548Y-99696851D01*
X107253011Y-99791590D01*
X107260110Y-99914715D01*
X107261247Y-99919761D01*
X107261248Y-99919767D01*
X107278610Y-99996806D01*
X107309222Y-100132639D01*
X107393266Y-100339616D01*
X107509987Y-100530088D01*
X107656250Y-100698938D01*
X107828126Y-100841632D01*
X107893191Y-100879653D01*
X107901445Y-100884476D01*
X107950169Y-100936114D01*
X107963240Y-101005897D01*
X107936509Y-101071669D01*
X107896055Y-101105027D01*
X107883607Y-101111507D01*
X107879474Y-101114610D01*
X107879471Y-101114612D01*
X107855247Y-101132800D01*
X107704965Y-101245635D01*
X107686605Y-101264848D01*
X107554667Y-101402913D01*
X107550629Y-101407138D01*
X107424743Y-101591680D01*
X107330688Y-101794305D01*
X107270989Y-102009570D01*
X107247251Y-102231695D01*
X107247548Y-102236848D01*
X107247548Y-102236851D01*
X107253011Y-102331590D01*
X107260110Y-102454715D01*
X107261247Y-102459761D01*
X107261248Y-102459767D01*
X107281119Y-102547939D01*
X107309222Y-102672639D01*
X107393266Y-102879616D01*
X107402169Y-102894144D01*
X107476770Y-103015882D01*
X107509987Y-103070088D01*
X107656250Y-103238938D01*
X107828126Y-103381632D01*
X107898595Y-103422811D01*
X107901445Y-103424476D01*
X107950169Y-103476114D01*
X107963240Y-103545897D01*
X107936509Y-103611669D01*
X107896055Y-103645027D01*
X107883607Y-103651507D01*
X107879474Y-103654610D01*
X107879471Y-103654612D01*
X107782704Y-103727267D01*
X107704965Y-103785635D01*
X107550629Y-103947138D01*
X107424743Y-104131680D01*
X107330688Y-104334305D01*
X107270989Y-104549570D01*
X107247251Y-104771695D01*
X107247548Y-104776848D01*
X107247548Y-104776851D01*
X107253011Y-104871590D01*
X107260110Y-104994715D01*
X107261247Y-104999761D01*
X107261248Y-104999767D01*
X107281119Y-105087939D01*
X107309222Y-105212639D01*
X107393266Y-105419616D01*
X107509987Y-105610088D01*
X107656250Y-105778938D01*
X107828126Y-105921632D01*
X107898595Y-105962811D01*
X107901445Y-105964476D01*
X107950169Y-106016114D01*
X107963240Y-106085897D01*
X107936509Y-106151669D01*
X107896055Y-106185027D01*
X107883607Y-106191507D01*
X107879474Y-106194610D01*
X107879471Y-106194612D01*
X107855247Y-106212800D01*
X107704965Y-106325635D01*
X107550629Y-106487138D01*
X107424743Y-106671680D01*
X107330688Y-106874305D01*
X107270989Y-107089570D01*
X107247251Y-107311695D01*
X107247548Y-107316848D01*
X107247548Y-107316851D01*
X107253011Y-107411590D01*
X107260110Y-107534715D01*
X107261247Y-107539761D01*
X107261248Y-107539767D01*
X107281119Y-107627939D01*
X107309222Y-107752639D01*
X107393266Y-107959616D01*
X107509987Y-108150088D01*
X107656250Y-108318938D01*
X107828126Y-108461632D01*
X108021000Y-108574338D01*
X108229692Y-108654030D01*
X108234760Y-108655061D01*
X108234763Y-108655062D01*
X108342017Y-108676883D01*
X108448597Y-108698567D01*
X108453772Y-108698757D01*
X108453774Y-108698757D01*
X108666673Y-108706564D01*
X108666677Y-108706564D01*
X108671837Y-108706753D01*
X108676957Y-108706097D01*
X108676959Y-108706097D01*
X108888288Y-108679025D01*
X108888289Y-108679025D01*
X108893416Y-108678368D01*
X108898366Y-108676883D01*
X109102429Y-108615661D01*
X109102434Y-108615659D01*
X109107384Y-108614174D01*
X109307994Y-108515896D01*
X109489860Y-108386173D01*
X109648096Y-108228489D01*
X109707594Y-108145689D01*
X109775435Y-108051277D01*
X109778453Y-108047077D01*
X109877430Y-107846811D01*
X109942370Y-107633069D01*
X109971529Y-107411590D01*
X109973156Y-107345000D01*
X109954852Y-107122361D01*
X109900431Y-106905702D01*
X109811354Y-106700840D01*
X109690014Y-106513277D01*
X109539670Y-106348051D01*
X109535619Y-106344852D01*
X109535615Y-106344848D01*
X109368414Y-106212800D01*
X109368410Y-106212798D01*
X109364359Y-106209598D01*
X109323053Y-106186796D01*
X109273084Y-106136364D01*
X109258312Y-106066921D01*
X109283428Y-106000516D01*
X109310780Y-105973909D01*
X109354603Y-105942650D01*
X109489860Y-105846173D01*
X109648096Y-105688489D01*
X109707594Y-105605689D01*
X109775435Y-105511277D01*
X109778453Y-105507077D01*
X109877430Y-105306811D01*
X109942370Y-105093069D01*
X109971529Y-104871590D01*
X109973156Y-104805000D01*
X109954852Y-104582361D01*
X109900431Y-104365702D01*
X109811354Y-104160840D01*
X109690014Y-103973277D01*
X109539670Y-103808051D01*
X109535619Y-103804852D01*
X109535615Y-103804848D01*
X109368414Y-103672800D01*
X109368410Y-103672798D01*
X109364359Y-103669598D01*
X109323053Y-103646796D01*
X109273084Y-103596364D01*
X109258312Y-103526921D01*
X109277625Y-103475859D01*
X113187132Y-103475859D01*
X113200457Y-103679151D01*
X113250605Y-103876610D01*
X113335898Y-104061624D01*
X113453479Y-104227997D01*
X113599410Y-104370157D01*
X113604206Y-104373362D01*
X113604209Y-104373364D01*
X113742264Y-104465609D01*
X113768803Y-104483342D01*
X113774106Y-104485620D01*
X113774109Y-104485622D01*
X113950680Y-104561483D01*
X113955987Y-104563763D01*
X114015998Y-104577342D01*
X114149055Y-104607450D01*
X114149060Y-104607451D01*
X114154692Y-104608725D01*
X114160463Y-104608952D01*
X114160465Y-104608952D01*
X114228121Y-104611610D01*
X114358263Y-104616723D01*
X114399515Y-104610742D01*
X114469801Y-104620762D01*
X114506689Y-104646343D01*
X123338393Y-113478047D01*
X123344246Y-113484312D01*
X123379524Y-113524752D01*
X123385742Y-113529122D01*
X123428084Y-113558880D01*
X123433380Y-113562813D01*
X123480121Y-113599463D01*
X123487045Y-113602589D01*
X123493176Y-113606302D01*
X123497796Y-113608938D01*
X123504178Y-113612360D01*
X123510397Y-113616731D01*
X123517476Y-113619491D01*
X123565713Y-113638298D01*
X123571792Y-113640854D01*
X123625912Y-113665289D01*
X123633388Y-113666675D01*
X123640266Y-113668830D01*
X123645391Y-113670290D01*
X123652355Y-113672078D01*
X123659434Y-113674838D01*
X123666966Y-113675830D01*
X123666968Y-113675830D01*
X123692196Y-113679151D01*
X123718300Y-113682587D01*
X123724798Y-113683616D01*
X123783197Y-113694440D01*
X123790777Y-113694003D01*
X123790778Y-113694003D01*
X123840967Y-113691109D01*
X123848220Y-113690900D01*
X124774351Y-113690900D01*
X124842472Y-113710902D01*
X124877249Y-113744182D01*
X124883479Y-113752997D01*
X125029410Y-113895157D01*
X125034206Y-113898362D01*
X125034209Y-113898364D01*
X125102149Y-113943760D01*
X125198803Y-114008342D01*
X125204106Y-114010620D01*
X125204109Y-114010622D01*
X125293115Y-114048862D01*
X125385987Y-114088763D01*
X125458817Y-114105243D01*
X125579055Y-114132450D01*
X125579060Y-114132451D01*
X125584692Y-114133725D01*
X125590463Y-114133952D01*
X125590465Y-114133952D01*
X125653470Y-114136427D01*
X125788263Y-114141723D01*
X125989883Y-114112490D01*
X125995347Y-114110635D01*
X125995352Y-114110634D01*
X126177327Y-114048862D01*
X126177332Y-114048860D01*
X126182799Y-114047004D01*
X126193167Y-114041198D01*
X126257567Y-114005132D01*
X126360551Y-113947458D01*
X126517186Y-113817186D01*
X126647458Y-113660551D01*
X126723509Y-113524752D01*
X126744180Y-113487842D01*
X126744181Y-113487840D01*
X126747004Y-113482799D01*
X126748860Y-113477332D01*
X126748862Y-113477327D01*
X126810634Y-113295352D01*
X126810635Y-113295347D01*
X126812490Y-113289883D01*
X126841723Y-113088263D01*
X126843118Y-113035000D01*
X137106502Y-113035000D01*
X137126457Y-113263087D01*
X137185716Y-113484243D01*
X137188039Y-113489224D01*
X137188039Y-113489225D01*
X137280151Y-113686762D01*
X137280154Y-113686767D01*
X137282477Y-113691749D01*
X137413802Y-113879300D01*
X137575700Y-114041198D01*
X137580208Y-114044355D01*
X137580211Y-114044357D01*
X137658389Y-114099098D01*
X137763251Y-114172523D01*
X137768233Y-114174846D01*
X137768238Y-114174849D01*
X137965775Y-114266961D01*
X137970757Y-114269284D01*
X137976065Y-114270706D01*
X137976067Y-114270707D01*
X138186598Y-114327119D01*
X138186600Y-114327119D01*
X138191913Y-114328543D01*
X138420000Y-114348498D01*
X138648087Y-114328543D01*
X138653400Y-114327119D01*
X138653402Y-114327119D01*
X138863933Y-114270707D01*
X138863935Y-114270706D01*
X138869243Y-114269284D01*
X138874225Y-114266961D01*
X139071762Y-114174849D01*
X139071767Y-114174846D01*
X139076749Y-114172523D01*
X139181611Y-114099098D01*
X139259789Y-114044357D01*
X139259792Y-114044355D01*
X139264300Y-114041198D01*
X139426198Y-113879300D01*
X139557523Y-113691749D01*
X139559846Y-113686767D01*
X139559849Y-113686762D01*
X139651961Y-113489225D01*
X139651961Y-113489224D01*
X139654284Y-113484243D01*
X139713543Y-113263087D01*
X139733498Y-113035000D01*
X139713543Y-112806913D01*
X139654284Y-112585757D01*
X139590201Y-112448329D01*
X139559849Y-112383238D01*
X139559846Y-112383233D01*
X139557523Y-112378251D01*
X139426198Y-112190700D01*
X139264300Y-112028802D01*
X139259792Y-112025645D01*
X139259789Y-112025643D01*
X139168137Y-111961468D01*
X139076749Y-111897477D01*
X139071767Y-111895154D01*
X139071762Y-111895151D01*
X139037543Y-111879195D01*
X138984258Y-111832278D01*
X138964797Y-111764001D01*
X138985339Y-111696041D01*
X139037543Y-111650805D01*
X139071762Y-111634849D01*
X139071767Y-111634846D01*
X139076749Y-111632523D01*
X139245289Y-111514510D01*
X139259789Y-111504357D01*
X139259792Y-111504355D01*
X139264300Y-111501198D01*
X139426198Y-111339300D01*
X139557523Y-111151749D01*
X139559846Y-111146767D01*
X139559849Y-111146762D01*
X139651961Y-110949225D01*
X139651961Y-110949224D01*
X139654284Y-110944243D01*
X139713543Y-110723087D01*
X139733498Y-110495000D01*
X144726502Y-110495000D01*
X144746457Y-110723087D01*
X144805716Y-110944243D01*
X144808039Y-110949224D01*
X144808039Y-110949225D01*
X144900151Y-111146762D01*
X144900154Y-111146767D01*
X144902477Y-111151749D01*
X145033802Y-111339300D01*
X145195700Y-111501198D01*
X145200211Y-111504357D01*
X145204424Y-111507892D01*
X145203473Y-111509026D01*
X145243471Y-111559071D01*
X145250776Y-111629690D01*
X145218742Y-111693049D01*
X145157538Y-111729030D01*
X145140483Y-111732082D01*
X145129684Y-111733255D01*
X144993295Y-111784385D01*
X144876739Y-111871739D01*
X144789385Y-111988295D01*
X144738255Y-112124684D01*
X144731500Y-112186866D01*
X144731500Y-113883134D01*
X144738255Y-113945316D01*
X144789385Y-114081705D01*
X144876739Y-114198261D01*
X144993295Y-114285615D01*
X145129684Y-114336745D01*
X145191866Y-114343500D01*
X146888134Y-114343500D01*
X146950316Y-114336745D01*
X147086705Y-114285615D01*
X147203261Y-114198261D01*
X147290615Y-114081705D01*
X147341745Y-113945316D01*
X147348500Y-113883134D01*
X147348500Y-112186866D01*
X147341745Y-112124684D01*
X147290615Y-111988295D01*
X147203261Y-111871739D01*
X147086705Y-111784385D01*
X146950316Y-111733255D01*
X146939526Y-111732083D01*
X146937394Y-111731197D01*
X146934778Y-111730575D01*
X146934879Y-111730152D01*
X146873965Y-111704845D01*
X146833537Y-111646483D01*
X146831078Y-111575529D01*
X146867371Y-111514510D01*
X146876031Y-111507511D01*
X146879793Y-111504354D01*
X146884300Y-111501198D01*
X147046198Y-111339300D01*
X147177523Y-111151749D01*
X147179846Y-111146767D01*
X147179849Y-111146762D01*
X147271961Y-110949225D01*
X147271961Y-110949224D01*
X147274284Y-110944243D01*
X147333543Y-110723087D01*
X147353498Y-110495000D01*
X147333543Y-110266913D01*
X147274284Y-110045757D01*
X147271961Y-110040775D01*
X147179849Y-109843238D01*
X147179846Y-109843233D01*
X147177523Y-109838251D01*
X147046198Y-109650700D01*
X146884300Y-109488802D01*
X146879792Y-109485645D01*
X146879789Y-109485643D01*
X146801611Y-109430902D01*
X146696749Y-109357477D01*
X146691767Y-109355154D01*
X146691762Y-109355151D01*
X146494225Y-109263039D01*
X146494224Y-109263039D01*
X146489243Y-109260716D01*
X146483935Y-109259294D01*
X146483933Y-109259293D01*
X146273402Y-109202881D01*
X146273400Y-109202881D01*
X146268087Y-109201457D01*
X146040000Y-109181502D01*
X145811913Y-109201457D01*
X145806600Y-109202881D01*
X145806598Y-109202881D01*
X145596067Y-109259293D01*
X145596065Y-109259294D01*
X145590757Y-109260716D01*
X145585776Y-109263039D01*
X145585775Y-109263039D01*
X145388238Y-109355151D01*
X145388233Y-109355154D01*
X145383251Y-109357477D01*
X145278389Y-109430902D01*
X145200211Y-109485643D01*
X145200208Y-109485645D01*
X145195700Y-109488802D01*
X145033802Y-109650700D01*
X144902477Y-109838251D01*
X144900154Y-109843233D01*
X144900151Y-109843238D01*
X144808039Y-110040775D01*
X144805716Y-110045757D01*
X144746457Y-110266913D01*
X144726502Y-110495000D01*
X139733498Y-110495000D01*
X139713543Y-110266913D01*
X139654284Y-110045757D01*
X139651961Y-110040775D01*
X139559849Y-109843238D01*
X139559846Y-109843233D01*
X139557523Y-109838251D01*
X139426198Y-109650700D01*
X139264300Y-109488802D01*
X139259792Y-109485645D01*
X139259789Y-109485643D01*
X139181611Y-109430902D01*
X139076749Y-109357477D01*
X139071767Y-109355154D01*
X139071762Y-109355151D01*
X138874225Y-109263039D01*
X138874224Y-109263039D01*
X138869243Y-109260716D01*
X138863935Y-109259294D01*
X138863933Y-109259293D01*
X138653402Y-109202881D01*
X138653400Y-109202881D01*
X138648087Y-109201457D01*
X138420000Y-109181502D01*
X138191913Y-109201457D01*
X138186600Y-109202881D01*
X138186598Y-109202881D01*
X137976067Y-109259293D01*
X137976065Y-109259294D01*
X137970757Y-109260716D01*
X137965776Y-109263039D01*
X137965775Y-109263039D01*
X137768238Y-109355151D01*
X137768233Y-109355154D01*
X137763251Y-109357477D01*
X137658389Y-109430902D01*
X137580211Y-109485643D01*
X137580208Y-109485645D01*
X137575700Y-109488802D01*
X137413802Y-109650700D01*
X137282477Y-109838251D01*
X137280154Y-109843233D01*
X137280151Y-109843238D01*
X137188039Y-110040775D01*
X137185716Y-110045757D01*
X137126457Y-110266913D01*
X137106502Y-110495000D01*
X137126457Y-110723087D01*
X137185716Y-110944243D01*
X137188039Y-110949224D01*
X137188039Y-110949225D01*
X137280151Y-111146762D01*
X137280154Y-111146767D01*
X137282477Y-111151749D01*
X137413802Y-111339300D01*
X137575700Y-111501198D01*
X137580208Y-111504355D01*
X137580211Y-111504357D01*
X137594711Y-111514510D01*
X137763251Y-111632523D01*
X137768233Y-111634846D01*
X137768238Y-111634849D01*
X137802457Y-111650805D01*
X137855742Y-111697722D01*
X137875203Y-111765999D01*
X137854661Y-111833959D01*
X137802457Y-111879195D01*
X137768238Y-111895151D01*
X137768233Y-111895154D01*
X137763251Y-111897477D01*
X137671863Y-111961468D01*
X137580211Y-112025643D01*
X137580208Y-112025645D01*
X137575700Y-112028802D01*
X137413802Y-112190700D01*
X137282477Y-112378251D01*
X137280154Y-112383233D01*
X137280151Y-112383238D01*
X137249799Y-112448329D01*
X137185716Y-112585757D01*
X137126457Y-112806913D01*
X137106502Y-113035000D01*
X126843118Y-113035000D01*
X126843249Y-113030000D01*
X126824608Y-112827126D01*
X126769307Y-112631047D01*
X126749592Y-112591067D01*
X126681756Y-112453510D01*
X126679201Y-112448329D01*
X126614900Y-112362219D01*
X126560758Y-112289715D01*
X126560758Y-112289714D01*
X126557305Y-112285091D01*
X126407703Y-112146800D01*
X126360924Y-112117285D01*
X126240288Y-112041169D01*
X126240283Y-112041167D01*
X126235404Y-112038088D01*
X126046180Y-111962595D01*
X125846366Y-111922849D01*
X125840592Y-111922773D01*
X125840588Y-111922773D01*
X125737452Y-111921424D01*
X125642655Y-111920183D01*
X125636958Y-111921162D01*
X125636957Y-111921162D01*
X125447567Y-111953705D01*
X125441870Y-111954684D01*
X125250734Y-112025198D01*
X125245773Y-112028150D01*
X125245772Y-112028150D01*
X125083514Y-112124684D01*
X125075649Y-112129363D01*
X124922478Y-112263690D01*
X124901962Y-112289715D01*
X124877215Y-112321106D01*
X124819334Y-112362219D01*
X124778265Y-112369100D01*
X124150944Y-112369100D01*
X124082823Y-112349098D01*
X124061849Y-112332195D01*
X115441343Y-103711690D01*
X115407317Y-103649378D01*
X115405742Y-103604516D01*
X115411190Y-103566939D01*
X115411723Y-103563263D01*
X115413249Y-103505000D01*
X115397634Y-103335060D01*
X115395137Y-103307880D01*
X115395136Y-103307877D01*
X115394608Y-103302126D01*
X115376787Y-103238938D01*
X115340875Y-103111606D01*
X115340874Y-103111604D01*
X115339307Y-103106047D01*
X115328680Y-103084496D01*
X115251756Y-102928510D01*
X115249201Y-102923329D01*
X115232040Y-102900347D01*
X115130758Y-102764715D01*
X115130758Y-102764714D01*
X115127305Y-102760091D01*
X115001973Y-102644235D01*
X114981943Y-102625719D01*
X114981940Y-102625717D01*
X114977703Y-102621800D01*
X114876622Y-102558023D01*
X114810288Y-102516169D01*
X114810283Y-102516167D01*
X114805404Y-102513088D01*
X114616180Y-102437595D01*
X114416366Y-102397849D01*
X114410592Y-102397773D01*
X114410588Y-102397773D01*
X114307452Y-102396424D01*
X114212655Y-102395183D01*
X114206958Y-102396162D01*
X114206957Y-102396162D01*
X114017567Y-102428705D01*
X114011870Y-102429684D01*
X113820734Y-102500198D01*
X113645649Y-102604363D01*
X113492478Y-102738690D01*
X113488911Y-102743215D01*
X113488906Y-102743220D01*
X113465730Y-102772619D01*
X113366351Y-102898681D01*
X113271492Y-103078978D01*
X113211078Y-103273543D01*
X113187132Y-103475859D01*
X109277625Y-103475859D01*
X109283428Y-103460516D01*
X109310780Y-103433909D01*
X109354603Y-103402650D01*
X109489860Y-103306173D01*
X109562523Y-103233764D01*
X109644435Y-103152137D01*
X109648096Y-103148489D01*
X109678594Y-103106047D01*
X109775435Y-102971277D01*
X109778453Y-102967077D01*
X109800075Y-102923329D01*
X109875136Y-102771453D01*
X109875137Y-102771451D01*
X109877430Y-102766811D01*
X109942370Y-102553069D01*
X109971529Y-102331590D01*
X109973156Y-102265000D01*
X109954852Y-102042361D01*
X109900431Y-101825702D01*
X109897836Y-101819733D01*
X115922822Y-101819733D01*
X115922975Y-101824121D01*
X115922975Y-101824127D01*
X115929631Y-102014707D01*
X115932625Y-102100458D01*
X115933387Y-102104781D01*
X115933388Y-102104788D01*
X115956675Y-102236851D01*
X115981402Y-102377087D01*
X116068203Y-102644235D01*
X116070131Y-102648188D01*
X116070133Y-102648193D01*
X116084391Y-102677425D01*
X116191340Y-102896702D01*
X116193795Y-102900341D01*
X116193798Y-102900347D01*
X116235679Y-102962438D01*
X116348415Y-103129576D01*
X116536371Y-103338322D01*
X116751550Y-103518879D01*
X116989764Y-103667731D01*
X117246375Y-103781982D01*
X117516390Y-103859407D01*
X117520740Y-103860018D01*
X117520743Y-103860019D01*
X117623690Y-103874487D01*
X117794552Y-103898500D01*
X118005146Y-103898500D01*
X118007332Y-103898347D01*
X118007336Y-103898347D01*
X118210827Y-103884118D01*
X118210832Y-103884117D01*
X118215212Y-103883811D01*
X118489970Y-103825409D01*
X118494099Y-103823906D01*
X118494103Y-103823905D01*
X118749781Y-103730846D01*
X118749785Y-103730844D01*
X118753926Y-103729337D01*
X119001942Y-103597464D01*
X119005503Y-103594877D01*
X119225629Y-103434947D01*
X119225632Y-103434944D01*
X119229192Y-103432358D01*
X119431252Y-103237231D01*
X119604188Y-103015882D01*
X119606384Y-103012078D01*
X119606389Y-103012071D01*
X119742435Y-102776431D01*
X119744636Y-102772619D01*
X119849862Y-102512176D01*
X119850928Y-102507901D01*
X119916753Y-102243893D01*
X119916754Y-102243888D01*
X119917817Y-102239624D01*
X119918651Y-102231695D01*
X119946719Y-101964636D01*
X119946719Y-101964633D01*
X119947178Y-101960267D01*
X119947025Y-101955873D01*
X119942271Y-101819733D01*
X140432822Y-101819733D01*
X140432975Y-101824121D01*
X140432975Y-101824127D01*
X140439631Y-102014707D01*
X140442625Y-102100458D01*
X140443387Y-102104781D01*
X140443388Y-102104788D01*
X140466675Y-102236851D01*
X140491402Y-102377087D01*
X140578203Y-102644235D01*
X140580131Y-102648188D01*
X140580133Y-102648193D01*
X140594391Y-102677425D01*
X140701340Y-102896702D01*
X140703795Y-102900341D01*
X140703798Y-102900347D01*
X140745679Y-102962438D01*
X140858415Y-103129576D01*
X141046371Y-103338322D01*
X141261550Y-103518879D01*
X141499764Y-103667731D01*
X141756375Y-103781982D01*
X142026390Y-103859407D01*
X142030740Y-103860018D01*
X142030743Y-103860019D01*
X142133690Y-103874487D01*
X142304552Y-103898500D01*
X142515146Y-103898500D01*
X142517332Y-103898347D01*
X142517336Y-103898347D01*
X142720827Y-103884118D01*
X142720832Y-103884117D01*
X142725212Y-103883811D01*
X142999970Y-103825409D01*
X143004099Y-103823906D01*
X143004103Y-103823905D01*
X143259781Y-103730846D01*
X143259785Y-103730844D01*
X143263926Y-103729337D01*
X143511942Y-103597464D01*
X143515503Y-103594877D01*
X143735629Y-103434947D01*
X143735632Y-103434944D01*
X143739192Y-103432358D01*
X143941252Y-103237231D01*
X144114188Y-103015882D01*
X144116384Y-103012078D01*
X144116389Y-103012071D01*
X144252435Y-102776431D01*
X144254636Y-102772619D01*
X144359862Y-102512176D01*
X144360928Y-102507901D01*
X144426753Y-102243893D01*
X144426754Y-102243888D01*
X144427817Y-102239624D01*
X144428651Y-102231695D01*
X144456719Y-101964636D01*
X144456719Y-101964633D01*
X144457178Y-101960267D01*
X144457025Y-101955873D01*
X144447529Y-101683939D01*
X144447528Y-101683933D01*
X144447375Y-101679542D01*
X144437025Y-101620840D01*
X144399360Y-101407236D01*
X144398598Y-101402913D01*
X144311797Y-101135765D01*
X144308790Y-101129598D01*
X144242723Y-100994144D01*
X144188660Y-100883298D01*
X144186205Y-100879659D01*
X144186202Y-100879653D01*
X144108272Y-100764118D01*
X144031585Y-100650424D01*
X143843629Y-100441678D01*
X143628450Y-100261121D01*
X143390236Y-100112269D01*
X143133625Y-99998018D01*
X142863610Y-99920593D01*
X142859260Y-99919982D01*
X142859257Y-99919981D01*
X142756310Y-99905513D01*
X142585448Y-99881500D01*
X142374854Y-99881500D01*
X142372668Y-99881653D01*
X142372664Y-99881653D01*
X142169173Y-99895882D01*
X142169168Y-99895883D01*
X142164788Y-99896189D01*
X141890030Y-99954591D01*
X141885901Y-99956094D01*
X141885897Y-99956095D01*
X141630219Y-100049154D01*
X141630215Y-100049156D01*
X141626074Y-100050663D01*
X141378058Y-100182536D01*
X141374499Y-100185122D01*
X141374497Y-100185123D01*
X141161855Y-100339616D01*
X141150808Y-100347642D01*
X140948748Y-100542769D01*
X140775812Y-100764118D01*
X140773616Y-100767922D01*
X140773611Y-100767929D01*
X140676510Y-100936114D01*
X140635364Y-101007381D01*
X140530138Y-101267824D01*
X140529073Y-101272097D01*
X140529072Y-101272099D01*
X140487804Y-101437617D01*
X140462183Y-101540376D01*
X140461724Y-101544744D01*
X140461723Y-101544749D01*
X140434970Y-101799297D01*
X140432822Y-101819733D01*
X119942271Y-101819733D01*
X119937529Y-101683939D01*
X119937528Y-101683933D01*
X119937375Y-101679542D01*
X119927025Y-101620840D01*
X119889360Y-101407236D01*
X119888598Y-101402913D01*
X119801797Y-101135765D01*
X119798790Y-101129598D01*
X119732723Y-100994144D01*
X119678660Y-100883298D01*
X119676205Y-100879659D01*
X119676202Y-100879653D01*
X119598272Y-100764118D01*
X119521585Y-100650424D01*
X119333629Y-100441678D01*
X119118450Y-100261121D01*
X118880236Y-100112269D01*
X118623625Y-99998018D01*
X118353610Y-99920593D01*
X118349260Y-99919982D01*
X118349257Y-99919981D01*
X118246310Y-99905513D01*
X118075448Y-99881500D01*
X117864854Y-99881500D01*
X117862668Y-99881653D01*
X117862664Y-99881653D01*
X117659173Y-99895882D01*
X117659168Y-99895883D01*
X117654788Y-99896189D01*
X117380030Y-99954591D01*
X117375901Y-99956094D01*
X117375897Y-99956095D01*
X117120219Y-100049154D01*
X117120215Y-100049156D01*
X117116074Y-100050663D01*
X116868058Y-100182536D01*
X116864499Y-100185122D01*
X116864497Y-100185123D01*
X116651855Y-100339616D01*
X116640808Y-100347642D01*
X116438748Y-100542769D01*
X116265812Y-100764118D01*
X116263616Y-100767922D01*
X116263611Y-100767929D01*
X116166510Y-100936114D01*
X116125364Y-101007381D01*
X116020138Y-101267824D01*
X116019073Y-101272097D01*
X116019072Y-101272099D01*
X115977804Y-101437617D01*
X115952183Y-101540376D01*
X115951724Y-101544744D01*
X115951723Y-101544749D01*
X115924970Y-101799297D01*
X115922822Y-101819733D01*
X109897836Y-101819733D01*
X109811354Y-101620840D01*
X109762129Y-101544749D01*
X109692822Y-101437617D01*
X109692820Y-101437614D01*
X109690014Y-101433277D01*
X109539670Y-101268051D01*
X109535619Y-101264852D01*
X109535615Y-101264848D01*
X109368414Y-101132800D01*
X109368410Y-101132798D01*
X109364359Y-101129598D01*
X109323053Y-101106796D01*
X109273084Y-101056364D01*
X109258312Y-100986921D01*
X109283428Y-100920516D01*
X109310780Y-100893909D01*
X109354603Y-100862650D01*
X109489860Y-100766173D01*
X109495400Y-100760653D01*
X109644435Y-100612137D01*
X109648096Y-100608489D01*
X109707594Y-100525689D01*
X109775435Y-100431277D01*
X109778453Y-100427077D01*
X109859076Y-100263949D01*
X109875136Y-100231453D01*
X109875137Y-100231451D01*
X109877430Y-100226811D01*
X109942370Y-100013069D01*
X109971529Y-99791590D01*
X109973156Y-99725000D01*
X109954852Y-99502361D01*
X109900431Y-99285702D01*
X109811354Y-99080840D01*
X109690014Y-98893277D01*
X109686532Y-98889450D01*
X109542798Y-98731488D01*
X109511746Y-98667642D01*
X109520141Y-98597143D01*
X109565317Y-98542375D01*
X109591761Y-98528706D01*
X109698297Y-98488767D01*
X109706705Y-98485615D01*
X109823261Y-98398261D01*
X109910615Y-98281705D01*
X109961745Y-98145316D01*
X109968500Y-98083134D01*
X109968500Y-97537028D01*
X109988502Y-97468907D01*
X110005405Y-97447933D01*
X110966643Y-96486695D01*
X151037251Y-96486695D01*
X151037548Y-96491848D01*
X151037548Y-96491851D01*
X151043011Y-96586590D01*
X151050110Y-96709715D01*
X151051247Y-96714761D01*
X151051248Y-96714767D01*
X151071119Y-96802939D01*
X151099222Y-96927639D01*
X151183266Y-97134616D01*
X151220173Y-97194843D01*
X151296137Y-97318805D01*
X151299987Y-97325088D01*
X151446250Y-97493938D01*
X151618126Y-97636632D01*
X151811000Y-97749338D01*
X152019692Y-97829030D01*
X152024760Y-97830061D01*
X152024763Y-97830062D01*
X152132017Y-97851883D01*
X152238597Y-97873567D01*
X152243772Y-97873757D01*
X152243774Y-97873757D01*
X152456673Y-97881564D01*
X152456677Y-97881564D01*
X152461837Y-97881753D01*
X152466957Y-97881097D01*
X152466959Y-97881097D01*
X152678288Y-97854025D01*
X152678289Y-97854025D01*
X152683416Y-97853368D01*
X152688366Y-97851883D01*
X152892429Y-97790661D01*
X152892434Y-97790659D01*
X152897384Y-97789174D01*
X153097994Y-97690896D01*
X153279860Y-97561173D01*
X153289734Y-97551334D01*
X153434435Y-97407137D01*
X153438096Y-97403489D01*
X153485106Y-97338068D01*
X153565435Y-97226277D01*
X153568453Y-97222077D01*
X153608372Y-97141308D01*
X153665136Y-97026453D01*
X153665137Y-97026451D01*
X153667430Y-97021811D01*
X153732370Y-96808069D01*
X153761529Y-96586590D01*
X153763156Y-96520000D01*
X153744852Y-96297361D01*
X153690431Y-96080702D01*
X153601354Y-95875840D01*
X153480014Y-95688277D01*
X153329670Y-95523051D01*
X153325619Y-95519852D01*
X153325615Y-95519848D01*
X153158414Y-95387800D01*
X153158410Y-95387798D01*
X153154359Y-95384598D01*
X153112569Y-95361529D01*
X153062598Y-95311097D01*
X153047826Y-95241654D01*
X153072942Y-95175248D01*
X153100294Y-95148641D01*
X153275328Y-95023792D01*
X153283200Y-95017139D01*
X153434052Y-94866812D01*
X153440730Y-94858965D01*
X153565003Y-94686020D01*
X153570313Y-94677183D01*
X153664670Y-94486267D01*
X153668469Y-94476672D01*
X153730377Y-94272910D01*
X153732555Y-94262837D01*
X153733986Y-94251962D01*
X153731775Y-94237778D01*
X153718617Y-94234000D01*
X151083225Y-94234000D01*
X151069694Y-94237973D01*
X151068257Y-94247966D01*
X151098565Y-94382446D01*
X151101645Y-94392275D01*
X151181770Y-94589603D01*
X151186413Y-94598794D01*
X151297694Y-94780388D01*
X151303777Y-94788699D01*
X151443213Y-94949667D01*
X151450580Y-94956883D01*
X151614434Y-95092916D01*
X151622881Y-95098831D01*
X151691969Y-95139203D01*
X151740693Y-95190842D01*
X151753764Y-95260625D01*
X151727033Y-95326396D01*
X151686584Y-95359752D01*
X151673607Y-95366507D01*
X151669474Y-95369610D01*
X151669471Y-95369612D01*
X151499100Y-95497530D01*
X151494965Y-95500635D01*
X151340629Y-95662138D01*
X151214743Y-95846680D01*
X151199003Y-95880590D01*
X151159191Y-95966358D01*
X151120688Y-96049305D01*
X151060989Y-96264570D01*
X151037251Y-96486695D01*
X110966643Y-96486695D01*
X115263933Y-92189405D01*
X115326245Y-92155379D01*
X115353028Y-92152500D01*
X116092487Y-92152500D01*
X116160608Y-92172502D01*
X116199916Y-92212661D01*
X116240824Y-92279416D01*
X116395031Y-92459969D01*
X116398787Y-92463177D01*
X116398792Y-92463182D01*
X116517056Y-92564189D01*
X116555866Y-92623639D01*
X116556372Y-92694634D01*
X116517056Y-92755811D01*
X116398792Y-92856818D01*
X116398787Y-92856823D01*
X116395031Y-92860031D01*
X116240824Y-93040584D01*
X116238245Y-93044792D01*
X116238241Y-93044798D01*
X116188035Y-93126727D01*
X116116760Y-93243037D01*
X116114867Y-93247607D01*
X116114865Y-93247611D01*
X116027789Y-93457833D01*
X116025895Y-93462406D01*
X116024740Y-93467218D01*
X115974616Y-93676000D01*
X115970465Y-93693289D01*
X115951835Y-93930000D01*
X115970465Y-94166711D01*
X115971619Y-94171518D01*
X115971620Y-94171524D01*
X115990932Y-94251962D01*
X116025895Y-94397594D01*
X116116760Y-94616963D01*
X116119346Y-94621183D01*
X116238241Y-94815202D01*
X116238245Y-94815208D01*
X116240824Y-94819416D01*
X116395031Y-94999969D01*
X116575584Y-95154176D01*
X116579792Y-95156755D01*
X116579798Y-95156759D01*
X116718334Y-95241654D01*
X116778037Y-95278240D01*
X116782607Y-95280133D01*
X116782611Y-95280135D01*
X116992833Y-95367211D01*
X116997406Y-95369105D01*
X117056633Y-95383324D01*
X117223476Y-95423380D01*
X117223482Y-95423381D01*
X117228289Y-95424535D01*
X117465000Y-95443165D01*
X117701711Y-95424535D01*
X117706518Y-95423381D01*
X117706524Y-95423380D01*
X117873367Y-95383324D01*
X117932594Y-95369105D01*
X117937167Y-95367211D01*
X118147389Y-95280135D01*
X118147393Y-95280133D01*
X118151963Y-95278240D01*
X118211666Y-95241654D01*
X118350202Y-95156759D01*
X118350208Y-95156755D01*
X118354416Y-95154176D01*
X118534969Y-94999969D01*
X118556577Y-94974669D01*
X141357001Y-94974669D01*
X141357371Y-94981490D01*
X141362895Y-95032352D01*
X141366521Y-95047604D01*
X141411676Y-95168054D01*
X141420214Y-95183649D01*
X141496715Y-95285724D01*
X141509276Y-95298285D01*
X141611351Y-95374786D01*
X141626946Y-95383324D01*
X141747394Y-95428478D01*
X141762649Y-95432105D01*
X141813514Y-95437631D01*
X141820328Y-95438000D01*
X142592885Y-95438000D01*
X142608124Y-95433525D01*
X142609329Y-95432135D01*
X142611000Y-95424452D01*
X142611000Y-95419884D01*
X143119000Y-95419884D01*
X143123475Y-95435123D01*
X143124865Y-95436328D01*
X143132548Y-95437999D01*
X143909669Y-95437999D01*
X143916490Y-95437629D01*
X143967352Y-95432105D01*
X143982604Y-95428479D01*
X144103054Y-95383324D01*
X144118649Y-95374786D01*
X144220724Y-95298285D01*
X144233285Y-95285724D01*
X144309786Y-95183649D01*
X144318324Y-95168054D01*
X144363478Y-95047606D01*
X144367105Y-95032351D01*
X144372631Y-94981486D01*
X144373000Y-94974672D01*
X144373000Y-94202115D01*
X144368525Y-94186876D01*
X144367135Y-94185671D01*
X144359452Y-94184000D01*
X143137115Y-94184000D01*
X143121876Y-94188475D01*
X143120671Y-94189865D01*
X143119000Y-94197548D01*
X143119000Y-95419884D01*
X142611000Y-95419884D01*
X142611000Y-94202115D01*
X142606525Y-94186876D01*
X142605135Y-94185671D01*
X142597452Y-94184000D01*
X141375116Y-94184000D01*
X141359877Y-94188475D01*
X141358672Y-94189865D01*
X141357001Y-94197548D01*
X141357001Y-94974669D01*
X118556577Y-94974669D01*
X118689176Y-94819416D01*
X118691755Y-94815208D01*
X118691759Y-94815202D01*
X118810654Y-94621183D01*
X118813240Y-94616963D01*
X118904105Y-94397594D01*
X118939068Y-94251962D01*
X118958380Y-94171524D01*
X118958381Y-94171518D01*
X118959535Y-94166711D01*
X118978165Y-93930000D01*
X118959535Y-93693289D01*
X118955385Y-93676000D01*
X118905260Y-93467218D01*
X118904105Y-93462406D01*
X118902211Y-93457833D01*
X118815135Y-93247611D01*
X118815133Y-93247607D01*
X118813240Y-93243037D01*
X118741965Y-93126727D01*
X118691759Y-93044798D01*
X118691755Y-93044792D01*
X118689176Y-93040584D01*
X118534969Y-92860031D01*
X118531213Y-92856823D01*
X118531208Y-92856818D01*
X118412944Y-92755811D01*
X118374134Y-92696361D01*
X118373628Y-92625366D01*
X118412944Y-92564189D01*
X118531208Y-92463182D01*
X118531213Y-92463177D01*
X118534969Y-92459969D01*
X118689176Y-92279416D01*
X118730083Y-92212662D01*
X118782728Y-92165034D01*
X118837513Y-92152500D01*
X132062624Y-92152500D01*
X132081574Y-92153933D01*
X132095973Y-92156124D01*
X132095979Y-92156124D01*
X132103208Y-92157224D01*
X132110500Y-92156631D01*
X132110503Y-92156631D01*
X132156183Y-92152915D01*
X132166398Y-92152500D01*
X132174525Y-92152500D01*
X132178161Y-92152076D01*
X132178163Y-92152076D01*
X132181615Y-92151673D01*
X132202924Y-92149189D01*
X132207244Y-92148762D01*
X132280426Y-92142809D01*
X132287388Y-92140553D01*
X132293376Y-92139357D01*
X132299333Y-92137949D01*
X132306607Y-92137101D01*
X132313489Y-92134603D01*
X132313493Y-92134602D01*
X132375607Y-92112055D01*
X132379711Y-92110645D01*
X132449575Y-92088013D01*
X132455838Y-92084213D01*
X132461380Y-92081675D01*
X132466856Y-92078933D01*
X132473741Y-92076434D01*
X132504632Y-92056181D01*
X132535132Y-92036185D01*
X132538800Y-92033870D01*
X132601581Y-91995773D01*
X132605786Y-91992059D01*
X132605789Y-91992057D01*
X132610005Y-91988333D01*
X132610031Y-91988362D01*
X132612962Y-91985762D01*
X132616316Y-91982958D01*
X132622435Y-91978946D01*
X132675989Y-91922413D01*
X132678366Y-91919972D01*
X134898933Y-89699405D01*
X134961245Y-89665379D01*
X134988028Y-89662500D01*
X135032802Y-89662500D01*
X135100923Y-89682502D01*
X135120724Y-89698246D01*
X135189410Y-89765157D01*
X135194206Y-89768362D01*
X135194209Y-89768364D01*
X135253659Y-89808087D01*
X135358803Y-89878342D01*
X135364106Y-89880620D01*
X135364109Y-89880622D01*
X135463170Y-89923182D01*
X135545987Y-89958763D01*
X135601884Y-89971411D01*
X135739055Y-90002450D01*
X135739060Y-90002451D01*
X135744692Y-90003725D01*
X135750463Y-90003952D01*
X135750465Y-90003952D01*
X135813470Y-90006427D01*
X135948263Y-90011723D01*
X136149883Y-89982490D01*
X136155347Y-89980635D01*
X136155352Y-89980634D01*
X136337327Y-89918862D01*
X136337332Y-89918860D01*
X136342799Y-89917004D01*
X136520551Y-89817458D01*
X136677186Y-89687186D01*
X136807458Y-89530551D01*
X136879756Y-89401454D01*
X136904180Y-89357842D01*
X136904181Y-89357840D01*
X136907004Y-89352799D01*
X136908860Y-89347332D01*
X136908862Y-89347327D01*
X136970634Y-89165352D01*
X136970635Y-89165347D01*
X136972490Y-89159883D01*
X137001723Y-88958263D01*
X137003249Y-88900000D01*
X136984608Y-88697126D01*
X136938180Y-88532508D01*
X136930875Y-88506606D01*
X136930874Y-88506604D01*
X136929307Y-88501047D01*
X136923019Y-88488295D01*
X136841756Y-88323510D01*
X136839201Y-88318329D01*
X136833769Y-88311054D01*
X136720758Y-88159715D01*
X136720758Y-88159714D01*
X136717305Y-88155091D01*
X136627646Y-88072211D01*
X136571943Y-88020719D01*
X136571940Y-88020717D01*
X136567703Y-88016800D01*
X136516854Y-87984717D01*
X136400288Y-87911169D01*
X136400283Y-87911167D01*
X136395404Y-87908088D01*
X136206180Y-87832595D01*
X136006366Y-87792849D01*
X136000592Y-87792773D01*
X136000588Y-87792773D01*
X135897452Y-87791424D01*
X135802655Y-87790183D01*
X135796958Y-87791162D01*
X135796957Y-87791162D01*
X135726347Y-87803295D01*
X135601870Y-87824684D01*
X135410734Y-87895198D01*
X135405773Y-87898150D01*
X135405772Y-87898150D01*
X135260267Y-87984717D01*
X135235649Y-87999363D01*
X135167565Y-88059071D01*
X135113788Y-88106232D01*
X135049384Y-88136109D01*
X135030711Y-88137500D01*
X134687368Y-88137500D01*
X134668420Y-88136067D01*
X134660412Y-88134849D01*
X134654024Y-88133877D01*
X134654022Y-88133877D01*
X134646792Y-88132777D01*
X134639500Y-88133370D01*
X134639497Y-88133370D01*
X134593825Y-88137085D01*
X134583611Y-88137500D01*
X134575475Y-88137500D01*
X134571840Y-88137924D01*
X134571837Y-88137924D01*
X134553835Y-88140023D01*
X134547084Y-88140810D01*
X134542713Y-88141243D01*
X134531701Y-88142138D01*
X134476872Y-88146597D01*
X134476869Y-88146598D01*
X134469573Y-88147191D01*
X134462609Y-88149447D01*
X134456614Y-88150645D01*
X134450664Y-88152051D01*
X134443393Y-88152899D01*
X134374398Y-88177943D01*
X134370252Y-88179366D01*
X134307388Y-88199731D01*
X134307386Y-88199732D01*
X134300425Y-88201987D01*
X134294170Y-88205783D01*
X134288633Y-88208318D01*
X134283142Y-88211068D01*
X134276259Y-88213566D01*
X134270135Y-88217581D01*
X134214868Y-88253815D01*
X134211200Y-88256130D01*
X134148419Y-88294227D01*
X134144212Y-88297943D01*
X134144208Y-88297946D01*
X134139995Y-88301668D01*
X134139969Y-88301638D01*
X134137041Y-88304236D01*
X134133687Y-88307040D01*
X134127565Y-88311054D01*
X134122533Y-88316366D01*
X134122532Y-88316367D01*
X134073995Y-88367604D01*
X134071617Y-88370046D01*
X132869996Y-89571666D01*
X131851067Y-90590595D01*
X131788755Y-90624621D01*
X131761972Y-90627500D01*
X130955246Y-90627500D01*
X130887125Y-90607498D01*
X130840632Y-90553842D01*
X130830528Y-90483568D01*
X130837263Y-90457274D01*
X130838970Y-90452720D01*
X130838971Y-90452715D01*
X130841745Y-90445316D01*
X130848500Y-90383134D01*
X130848500Y-88686866D01*
X130841745Y-88624684D01*
X130790615Y-88488295D01*
X130703261Y-88371739D01*
X130586705Y-88284385D01*
X130450316Y-88233255D01*
X130439526Y-88232083D01*
X130437394Y-88231197D01*
X130434778Y-88230575D01*
X130434879Y-88230152D01*
X130373965Y-88204845D01*
X130333537Y-88146483D01*
X130331078Y-88075529D01*
X130367371Y-88014510D01*
X130376031Y-88007511D01*
X130379793Y-88004354D01*
X130384300Y-88001198D01*
X130546198Y-87839300D01*
X130556433Y-87824684D01*
X130647995Y-87693919D01*
X130677523Y-87651749D01*
X130679846Y-87646767D01*
X130679849Y-87646762D01*
X130771961Y-87449225D01*
X130771961Y-87449224D01*
X130774284Y-87444243D01*
X130776753Y-87435031D01*
X130832119Y-87228402D01*
X130832119Y-87228400D01*
X130833543Y-87223087D01*
X130853498Y-86995000D01*
X130833543Y-86766913D01*
X130832119Y-86761598D01*
X130775707Y-86551067D01*
X130775706Y-86551065D01*
X130774284Y-86545757D01*
X130763868Y-86523419D01*
X130679849Y-86343238D01*
X130679846Y-86343233D01*
X130677523Y-86338251D01*
X130596450Y-86222467D01*
X130549357Y-86155211D01*
X130549355Y-86155208D01*
X130546198Y-86150700D01*
X130384300Y-85988802D01*
X130379792Y-85985645D01*
X130379789Y-85985643D01*
X130240673Y-85888233D01*
X130196749Y-85857477D01*
X130191767Y-85855154D01*
X130191762Y-85855151D01*
X129994225Y-85763039D01*
X129994224Y-85763039D01*
X129989243Y-85760716D01*
X129983935Y-85759294D01*
X129983933Y-85759293D01*
X129773402Y-85702881D01*
X129773400Y-85702881D01*
X129768087Y-85701457D01*
X129540000Y-85681502D01*
X129311913Y-85701457D01*
X129306600Y-85702881D01*
X129306598Y-85702881D01*
X129096067Y-85759293D01*
X129096065Y-85759294D01*
X129090757Y-85760716D01*
X129085776Y-85763039D01*
X129085775Y-85763039D01*
X128888238Y-85855151D01*
X128888233Y-85855154D01*
X128883251Y-85857477D01*
X128839327Y-85888233D01*
X128700211Y-85985643D01*
X128700208Y-85985645D01*
X128695700Y-85988802D01*
X128533802Y-86150700D01*
X128530645Y-86155208D01*
X128530643Y-86155211D01*
X128483550Y-86222467D01*
X128402477Y-86338251D01*
X128400154Y-86343233D01*
X128400151Y-86343238D01*
X128316132Y-86523419D01*
X128305716Y-86545757D01*
X128304294Y-86551065D01*
X128304293Y-86551067D01*
X128247881Y-86761598D01*
X128246457Y-86766913D01*
X128226502Y-86995000D01*
X128246457Y-87223087D01*
X128247881Y-87228400D01*
X128247881Y-87228402D01*
X128303248Y-87435031D01*
X128305716Y-87444243D01*
X128308039Y-87449224D01*
X128308039Y-87449225D01*
X128400151Y-87646762D01*
X128400154Y-87646767D01*
X128402477Y-87651749D01*
X128432005Y-87693919D01*
X128523568Y-87824684D01*
X128533802Y-87839300D01*
X128695700Y-88001198D01*
X128700211Y-88004357D01*
X128704424Y-88007892D01*
X128703473Y-88009026D01*
X128743471Y-88059071D01*
X128750776Y-88129690D01*
X128718742Y-88193049D01*
X128657538Y-88229030D01*
X128640483Y-88232082D01*
X128629684Y-88233255D01*
X128493295Y-88284385D01*
X128376739Y-88371739D01*
X128289385Y-88488295D01*
X128238255Y-88624684D01*
X128231500Y-88686866D01*
X128231500Y-90383134D01*
X128238255Y-90445316D01*
X128241029Y-90452715D01*
X128241030Y-90452720D01*
X128242737Y-90457274D01*
X128247918Y-90528081D01*
X128213996Y-90590449D01*
X128151739Y-90624576D01*
X128124754Y-90627500D01*
X122981481Y-90627500D01*
X122913360Y-90607498D01*
X122866867Y-90553842D01*
X122856763Y-90483568D01*
X122886257Y-90418988D01*
X122892386Y-90412405D01*
X122921916Y-90382875D01*
X122928972Y-90374467D01*
X123053931Y-90196007D01*
X123059414Y-90186511D01*
X123151490Y-89989053D01*
X123155236Y-89978761D01*
X123201394Y-89806497D01*
X123201058Y-89792401D01*
X123193116Y-89789000D01*
X120652033Y-89789000D01*
X120638502Y-89792973D01*
X120637273Y-89801522D01*
X120684764Y-89978761D01*
X120688510Y-89989053D01*
X120780586Y-90186511D01*
X120786069Y-90196007D01*
X120911028Y-90374467D01*
X120918084Y-90382875D01*
X120947614Y-90412405D01*
X120981640Y-90474717D01*
X120976575Y-90545532D01*
X120934028Y-90602368D01*
X120867508Y-90627179D01*
X120858519Y-90627500D01*
X119610028Y-90627500D01*
X119541907Y-90607498D01*
X119495414Y-90553842D01*
X119485310Y-90483568D01*
X119514804Y-90418988D01*
X119520933Y-90412405D01*
X120506528Y-89426810D01*
X120520941Y-89414423D01*
X120532665Y-89405795D01*
X120538564Y-89401454D01*
X120572979Y-89360945D01*
X120579909Y-89353429D01*
X120585653Y-89347685D01*
X120590183Y-89341959D01*
X120600577Y-89328822D01*
X120658530Y-89287810D01*
X120699391Y-89281000D01*
X123187967Y-89281000D01*
X123201498Y-89277027D01*
X123202727Y-89268478D01*
X123155236Y-89091239D01*
X123151490Y-89080947D01*
X123059414Y-88883489D01*
X123053931Y-88873993D01*
X122928972Y-88695533D01*
X122921916Y-88687125D01*
X122767875Y-88533084D01*
X122759467Y-88526028D01*
X122581007Y-88401069D01*
X122571511Y-88395586D01*
X122536951Y-88379471D01*
X122483666Y-88332554D01*
X122464205Y-88264277D01*
X122484747Y-88196317D01*
X122536951Y-88151081D01*
X122571762Y-88134849D01*
X122571767Y-88134846D01*
X122576749Y-88132523D01*
X122686703Y-88055532D01*
X122759789Y-88004357D01*
X122759792Y-88004355D01*
X122764300Y-88001198D01*
X122926198Y-87839300D01*
X122936433Y-87824684D01*
X123027995Y-87693919D01*
X123057523Y-87651749D01*
X123059846Y-87646767D01*
X123059849Y-87646762D01*
X123151961Y-87449225D01*
X123151961Y-87449224D01*
X123154284Y-87444243D01*
X123156753Y-87435031D01*
X123212119Y-87228402D01*
X123212119Y-87228400D01*
X123213543Y-87223087D01*
X123233498Y-86995000D01*
X123213543Y-86766913D01*
X123212119Y-86761598D01*
X123155707Y-86551067D01*
X123155706Y-86551065D01*
X123154284Y-86545757D01*
X123143868Y-86523419D01*
X123059849Y-86343238D01*
X123059846Y-86343233D01*
X123057523Y-86338251D01*
X122976450Y-86222467D01*
X122929357Y-86155211D01*
X122929355Y-86155208D01*
X122926198Y-86150700D01*
X122764300Y-85988802D01*
X122759792Y-85985645D01*
X122759789Y-85985643D01*
X122620673Y-85888233D01*
X122576749Y-85857477D01*
X122571767Y-85855154D01*
X122571762Y-85855151D01*
X122374225Y-85763039D01*
X122374224Y-85763039D01*
X122369243Y-85760716D01*
X122363935Y-85759294D01*
X122363933Y-85759293D01*
X122153402Y-85702881D01*
X122153400Y-85702881D01*
X122148087Y-85701457D01*
X121920000Y-85681502D01*
X121691913Y-85701457D01*
X121686600Y-85702881D01*
X121686598Y-85702881D01*
X121476067Y-85759293D01*
X121476065Y-85759294D01*
X121470757Y-85760716D01*
X121465776Y-85763039D01*
X121465775Y-85763039D01*
X121268238Y-85855151D01*
X121268233Y-85855154D01*
X121263251Y-85857477D01*
X121219327Y-85888233D01*
X121080211Y-85985643D01*
X121080208Y-85985645D01*
X121075700Y-85988802D01*
X120992595Y-86071907D01*
X120930283Y-86105933D01*
X120859468Y-86100868D01*
X120802632Y-86058321D01*
X120777821Y-85991801D01*
X120777500Y-85982812D01*
X120777500Y-83534054D01*
X120797502Y-83465933D01*
X120851158Y-83419440D01*
X120883070Y-83409822D01*
X120886711Y-83409535D01*
X121117594Y-83354105D01*
X121122167Y-83352211D01*
X121332389Y-83265135D01*
X121332393Y-83265133D01*
X121336963Y-83263240D01*
X121400948Y-83224030D01*
X121535202Y-83141759D01*
X121535208Y-83141755D01*
X121539416Y-83139176D01*
X121719969Y-82984969D01*
X121751971Y-82947500D01*
X128026835Y-82947500D01*
X128045465Y-83184211D01*
X128046619Y-83189018D01*
X128046620Y-83189024D01*
X128067525Y-83276097D01*
X128100895Y-83415094D01*
X128102788Y-83419665D01*
X128102789Y-83419667D01*
X128150170Y-83534054D01*
X128191760Y-83634463D01*
X128194346Y-83638683D01*
X128313241Y-83832702D01*
X128313245Y-83832708D01*
X128315824Y-83836916D01*
X128470031Y-84017469D01*
X128650584Y-84171676D01*
X128654792Y-84174255D01*
X128654798Y-84174259D01*
X128765614Y-84242167D01*
X128853037Y-84295740D01*
X128857607Y-84297633D01*
X128857611Y-84297635D01*
X129067833Y-84384711D01*
X129072406Y-84386605D01*
X129152609Y-84405860D01*
X129298476Y-84440880D01*
X129298482Y-84440881D01*
X129303289Y-84442035D01*
X129540000Y-84460665D01*
X129776711Y-84442035D01*
X129781518Y-84440881D01*
X129781524Y-84440880D01*
X129927391Y-84405860D01*
X130007594Y-84386605D01*
X130012167Y-84384711D01*
X130222389Y-84297635D01*
X130222393Y-84297633D01*
X130226963Y-84295740D01*
X130314386Y-84242167D01*
X130425202Y-84174259D01*
X130425208Y-84174255D01*
X130429416Y-84171676D01*
X130609969Y-84017469D01*
X130764176Y-83836916D01*
X130766755Y-83832708D01*
X130766759Y-83832702D01*
X130885654Y-83638683D01*
X130888240Y-83634463D01*
X130929831Y-83534054D01*
X130977211Y-83419667D01*
X130977212Y-83419665D01*
X130979105Y-83415094D01*
X131012475Y-83276097D01*
X131033380Y-83189024D01*
X131033381Y-83189018D01*
X131034535Y-83184211D01*
X131053165Y-82947500D01*
X131048556Y-82888938D01*
X131042610Y-82813386D01*
X131057206Y-82743906D01*
X131107049Y-82693346D01*
X131168222Y-82677500D01*
X134886972Y-82677500D01*
X134955093Y-82697502D01*
X134976067Y-82714405D01*
X139535595Y-87273933D01*
X139569621Y-87336245D01*
X139572500Y-87363028D01*
X139572500Y-90737624D01*
X139571067Y-90756574D01*
X139568876Y-90770973D01*
X139568876Y-90770979D01*
X139567776Y-90778208D01*
X139568369Y-90785500D01*
X139568369Y-90785503D01*
X139572085Y-90831183D01*
X139572500Y-90841398D01*
X139572500Y-90849525D01*
X139575811Y-90877924D01*
X139576238Y-90882244D01*
X139582191Y-90955426D01*
X139584447Y-90962388D01*
X139585643Y-90968376D01*
X139587051Y-90974333D01*
X139587899Y-90981607D01*
X139590397Y-90988489D01*
X139590398Y-90988493D01*
X139612945Y-91050607D01*
X139614355Y-91054711D01*
X139636987Y-91124575D01*
X139640787Y-91130838D01*
X139643325Y-91136380D01*
X139646067Y-91141856D01*
X139648566Y-91148741D01*
X139652581Y-91154865D01*
X139688815Y-91210132D01*
X139691130Y-91213800D01*
X139729227Y-91276581D01*
X139732941Y-91280786D01*
X139732943Y-91280789D01*
X139736667Y-91285005D01*
X139736638Y-91285031D01*
X139739238Y-91287962D01*
X139742042Y-91291316D01*
X139746054Y-91297435D01*
X139751366Y-91302467D01*
X139802586Y-91350988D01*
X139805028Y-91353366D01*
X140333190Y-91881528D01*
X140345577Y-91895941D01*
X140358546Y-91913564D01*
X140364129Y-91918307D01*
X140399055Y-91947979D01*
X140406571Y-91954909D01*
X140412315Y-91960653D01*
X140415189Y-91962927D01*
X140415196Y-91962933D01*
X140434711Y-91978372D01*
X140438115Y-91981163D01*
X140488472Y-92023945D01*
X140488476Y-92023948D01*
X140494051Y-92028684D01*
X140500568Y-92032012D01*
X140505632Y-92035389D01*
X140510856Y-92038616D01*
X140516600Y-92043160D01*
X140583104Y-92074242D01*
X140587001Y-92076147D01*
X140652404Y-92109543D01*
X140659518Y-92111283D01*
X140665260Y-92113419D01*
X140671051Y-92115346D01*
X140677680Y-92118444D01*
X140749569Y-92133397D01*
X140753835Y-92134363D01*
X140825112Y-92151804D01*
X140830714Y-92152152D01*
X140830717Y-92152152D01*
X140836330Y-92152500D01*
X140836328Y-92152539D01*
X140840229Y-92152772D01*
X140844588Y-92153161D01*
X140851756Y-92154652D01*
X140859073Y-92154454D01*
X140929577Y-92152546D01*
X140932986Y-92152500D01*
X141492487Y-92152500D01*
X141560608Y-92172502D01*
X141599916Y-92212661D01*
X141640824Y-92279416D01*
X141644037Y-92283178D01*
X141650506Y-92290752D01*
X141679538Y-92355541D01*
X141668934Y-92425742D01*
X141622060Y-92479065D01*
X141615203Y-92483105D01*
X141611353Y-92485213D01*
X141509276Y-92561715D01*
X141496715Y-92574276D01*
X141420214Y-92676351D01*
X141411676Y-92691946D01*
X141366522Y-92812394D01*
X141362895Y-92827649D01*
X141357369Y-92878514D01*
X141357000Y-92885328D01*
X141357000Y-93657885D01*
X141361475Y-93673124D01*
X141362865Y-93674329D01*
X141370548Y-93676000D01*
X144354884Y-93676000D01*
X144370123Y-93671525D01*
X144371328Y-93670135D01*
X144372999Y-93662452D01*
X144372999Y-92885331D01*
X144372629Y-92878510D01*
X144367105Y-92827648D01*
X144363479Y-92812396D01*
X144318324Y-92691946D01*
X144309786Y-92676351D01*
X144233285Y-92574276D01*
X144220724Y-92561715D01*
X144118647Y-92485213D01*
X144114797Y-92483105D01*
X144111720Y-92480022D01*
X144111462Y-92479828D01*
X144111490Y-92479791D01*
X144064650Y-92432848D01*
X144049635Y-92363457D01*
X144074519Y-92296964D01*
X144079479Y-92290769D01*
X144089176Y-92279416D01*
X144130083Y-92212662D01*
X144182728Y-92165034D01*
X144237513Y-92152500D01*
X146032624Y-92152500D01*
X146051574Y-92153933D01*
X146065973Y-92156124D01*
X146065979Y-92156124D01*
X146073208Y-92157224D01*
X146080500Y-92156631D01*
X146080503Y-92156631D01*
X146126183Y-92152915D01*
X146136398Y-92152500D01*
X146144525Y-92152500D01*
X146148161Y-92152076D01*
X146148163Y-92152076D01*
X146151615Y-92151673D01*
X146172924Y-92149189D01*
X146177244Y-92148762D01*
X146250426Y-92142809D01*
X146257388Y-92140553D01*
X146263376Y-92139357D01*
X146269333Y-92137949D01*
X146276607Y-92137101D01*
X146283489Y-92134603D01*
X146283493Y-92134602D01*
X146345607Y-92112055D01*
X146349711Y-92110645D01*
X146419575Y-92088013D01*
X146425838Y-92084213D01*
X146431380Y-92081675D01*
X146436856Y-92078933D01*
X146443741Y-92076434D01*
X146474632Y-92056181D01*
X146505132Y-92036185D01*
X146508800Y-92033870D01*
X146571581Y-91995773D01*
X146575786Y-91992059D01*
X146575789Y-91992057D01*
X146580005Y-91988333D01*
X146580031Y-91988362D01*
X146582962Y-91985762D01*
X146586316Y-91982958D01*
X146592435Y-91978946D01*
X146645989Y-91922413D01*
X146648366Y-91919972D01*
X148868933Y-89699405D01*
X148931245Y-89665379D01*
X148958028Y-89662500D01*
X150915500Y-89662500D01*
X150983621Y-89682502D01*
X151030114Y-89736158D01*
X151041500Y-89788500D01*
X151041500Y-89798134D01*
X151048255Y-89860316D01*
X151099385Y-89996705D01*
X151186739Y-90113261D01*
X151303295Y-90200615D01*
X151311704Y-90203767D01*
X151311705Y-90203768D01*
X151420451Y-90244535D01*
X151477216Y-90287176D01*
X151501916Y-90353738D01*
X151486709Y-90423087D01*
X151467316Y-90449568D01*
X151375611Y-90545532D01*
X151340629Y-90582138D01*
X151337715Y-90586410D01*
X151337714Y-90586411D01*
X151303075Y-90637190D01*
X151214743Y-90766680D01*
X151167715Y-90867993D01*
X151130516Y-90948133D01*
X151120688Y-90969305D01*
X151060989Y-91184570D01*
X151037251Y-91406695D01*
X151037548Y-91411848D01*
X151037548Y-91411851D01*
X151044192Y-91527077D01*
X151050110Y-91629715D01*
X151051247Y-91634761D01*
X151051248Y-91634767D01*
X151066917Y-91704292D01*
X151099222Y-91847639D01*
X151156363Y-91988362D01*
X151179873Y-92046259D01*
X151183266Y-92054616D01*
X151195858Y-92075164D01*
X151265865Y-92189405D01*
X151299987Y-92245088D01*
X151446250Y-92413938D01*
X151618126Y-92556632D01*
X151691955Y-92599774D01*
X151740679Y-92651412D01*
X151753750Y-92721195D01*
X151727019Y-92786967D01*
X151686562Y-92820327D01*
X151678457Y-92824546D01*
X151669738Y-92830036D01*
X151499433Y-92957905D01*
X151491726Y-92964748D01*
X151344590Y-93118717D01*
X151338104Y-93126727D01*
X151218098Y-93302649D01*
X151213000Y-93311623D01*
X151123338Y-93504783D01*
X151119775Y-93514470D01*
X151064389Y-93714183D01*
X151065912Y-93722607D01*
X151078292Y-93726000D01*
X153718344Y-93726000D01*
X153731875Y-93722027D01*
X153733180Y-93712947D01*
X153691214Y-93545875D01*
X153687894Y-93536124D01*
X153602972Y-93340814D01*
X153598105Y-93331739D01*
X153482426Y-93152926D01*
X153476136Y-93144757D01*
X153332806Y-92987240D01*
X153325273Y-92980215D01*
X153158139Y-92848222D01*
X153149556Y-92842520D01*
X153112602Y-92822120D01*
X153062631Y-92771687D01*
X153047859Y-92702245D01*
X153072975Y-92635839D01*
X153100327Y-92609232D01*
X153123797Y-92592491D01*
X153279860Y-92481173D01*
X153304908Y-92456213D01*
X153434435Y-92327137D01*
X153438096Y-92323489D01*
X153467065Y-92283175D01*
X153565435Y-92146277D01*
X153568453Y-92142077D01*
X153570913Y-92137101D01*
X153665136Y-91946453D01*
X153665137Y-91946451D01*
X153667430Y-91941811D01*
X153732370Y-91728069D01*
X153761529Y-91506590D01*
X153763156Y-91440000D01*
X153744852Y-91217361D01*
X153690431Y-91000702D01*
X153601354Y-90795840D01*
X153480014Y-90608277D01*
X153476532Y-90604450D01*
X153332798Y-90446488D01*
X153301746Y-90382642D01*
X153310141Y-90312143D01*
X153355317Y-90257375D01*
X153381761Y-90243706D01*
X153488297Y-90203767D01*
X153496705Y-90200615D01*
X153613261Y-90113261D01*
X153700615Y-89996705D01*
X153751745Y-89860316D01*
X153758500Y-89798134D01*
X153758500Y-88001866D01*
X153751745Y-87939684D01*
X153700615Y-87803295D01*
X153613261Y-87686739D01*
X153496705Y-87599385D01*
X153360316Y-87548255D01*
X153298134Y-87541500D01*
X152172028Y-87541500D01*
X152103907Y-87521498D01*
X152082933Y-87504595D01*
X150024405Y-85446067D01*
X149990379Y-85383755D01*
X149987500Y-85356972D01*
X149987500Y-79108028D01*
X150007502Y-79039907D01*
X150024405Y-79018933D01*
X150918281Y-78125057D01*
X150980593Y-78091031D01*
X151051408Y-78096096D01*
X151108244Y-78138643D01*
X151133055Y-78205163D01*
X151123134Y-78259201D01*
X151124652Y-78259759D01*
X151122868Y-78264608D01*
X151120688Y-78269305D01*
X151060989Y-78484570D01*
X151037251Y-78706695D01*
X151037548Y-78711848D01*
X151037548Y-78711851D01*
X151043011Y-78806590D01*
X151050110Y-78929715D01*
X151051247Y-78934761D01*
X151051248Y-78934767D01*
X151052625Y-78940875D01*
X151099222Y-79147639D01*
X151183266Y-79354616D01*
X151299987Y-79545088D01*
X151446250Y-79713938D01*
X151618126Y-79856632D01*
X151643864Y-79871672D01*
X151691445Y-79899476D01*
X151740169Y-79951114D01*
X151753240Y-80020897D01*
X151726509Y-80086669D01*
X151686055Y-80120027D01*
X151673607Y-80126507D01*
X151669474Y-80129610D01*
X151669471Y-80129612D01*
X151499100Y-80257530D01*
X151494965Y-80260635D01*
X151340629Y-80422138D01*
X151214743Y-80606680D01*
X151184591Y-80671638D01*
X151135637Y-80777101D01*
X151120688Y-80809305D01*
X151060989Y-81024570D01*
X151037251Y-81246695D01*
X151037548Y-81251848D01*
X151037548Y-81251851D01*
X151045937Y-81397335D01*
X151050110Y-81469715D01*
X151051247Y-81474761D01*
X151051248Y-81474767D01*
X151058827Y-81508395D01*
X151099222Y-81687639D01*
X151137461Y-81781811D01*
X151176329Y-81877531D01*
X151183266Y-81894616D01*
X151299987Y-82085088D01*
X151446250Y-82253938D01*
X151618126Y-82396632D01*
X151811000Y-82509338D01*
X151815825Y-82511180D01*
X151815826Y-82511181D01*
X151877243Y-82534634D01*
X152019692Y-82589030D01*
X152024760Y-82590061D01*
X152024763Y-82590062D01*
X152083259Y-82601963D01*
X152238597Y-82633567D01*
X152243772Y-82633757D01*
X152243774Y-82633757D01*
X152456673Y-82641564D01*
X152456677Y-82641564D01*
X152461837Y-82641753D01*
X152466957Y-82641097D01*
X152466959Y-82641097D01*
X152678288Y-82614025D01*
X152678289Y-82614025D01*
X152683416Y-82613368D01*
X152721431Y-82601963D01*
X152892429Y-82550661D01*
X152892434Y-82550659D01*
X152897384Y-82549174D01*
X153097994Y-82450896D01*
X153279860Y-82321173D01*
X153304908Y-82296213D01*
X153434435Y-82167137D01*
X153438096Y-82163489D01*
X153467065Y-82123175D01*
X153565435Y-81986277D01*
X153568453Y-81982077D01*
X153601605Y-81915000D01*
X153665136Y-81786453D01*
X153665137Y-81786451D01*
X153667430Y-81781811D01*
X153722108Y-81601846D01*
X153730865Y-81573023D01*
X153730865Y-81573021D01*
X153732370Y-81568069D01*
X153761529Y-81346590D01*
X153762172Y-81320261D01*
X153763074Y-81283365D01*
X153763074Y-81283361D01*
X153763156Y-81280000D01*
X153744852Y-81057361D01*
X153690431Y-80840702D01*
X153601354Y-80635840D01*
X153480014Y-80448277D01*
X153329670Y-80283051D01*
X153325619Y-80279852D01*
X153325615Y-80279848D01*
X153158414Y-80147800D01*
X153158410Y-80147798D01*
X153154359Y-80144598D01*
X153113053Y-80121796D01*
X153063084Y-80071364D01*
X153048312Y-80001921D01*
X153073428Y-79935516D01*
X153100780Y-79908909D01*
X153163475Y-79864189D01*
X153279860Y-79781173D01*
X153304908Y-79756213D01*
X153428774Y-79632778D01*
X153438096Y-79623489D01*
X153467065Y-79583175D01*
X153565435Y-79446277D01*
X153568453Y-79442077D01*
X153667430Y-79241811D01*
X153732370Y-79028069D01*
X153761529Y-78806590D01*
X153762316Y-78774392D01*
X153763074Y-78743365D01*
X153763074Y-78743361D01*
X153763156Y-78740000D01*
X153744852Y-78517361D01*
X153690431Y-78300702D01*
X153601354Y-78095840D01*
X153538587Y-77998817D01*
X153482822Y-77912617D01*
X153482820Y-77912614D01*
X153480014Y-77908277D01*
X153476532Y-77904450D01*
X153332798Y-77746488D01*
X153301746Y-77682642D01*
X153310141Y-77612143D01*
X153355317Y-77557375D01*
X153381761Y-77543706D01*
X153488297Y-77503767D01*
X153496705Y-77500615D01*
X153613261Y-77413261D01*
X153700615Y-77296705D01*
X153751745Y-77160316D01*
X153758500Y-77098134D01*
X153758500Y-75301866D01*
X153751745Y-75239684D01*
X153700615Y-75103295D01*
X153613261Y-74986739D01*
X153496705Y-74899385D01*
X153360316Y-74848255D01*
X153298134Y-74841500D01*
X152172028Y-74841500D01*
X152103907Y-74821498D01*
X152082933Y-74804595D01*
X150024405Y-72746067D01*
X149990379Y-72683755D01*
X149987500Y-72656972D01*
X149987500Y-64503028D01*
X150007502Y-64434907D01*
X150024405Y-64413933D01*
X150835438Y-63602900D01*
X150897750Y-63568874D01*
X150968565Y-63573939D01*
X151025401Y-63616486D01*
X151048422Y-63679525D01*
X151049590Y-63679361D01*
X151051745Y-63694697D01*
X151098565Y-63902446D01*
X151101645Y-63912275D01*
X151181770Y-64109603D01*
X151186413Y-64118794D01*
X151297694Y-64300388D01*
X151303777Y-64308699D01*
X151443213Y-64469667D01*
X151450580Y-64476883D01*
X151614434Y-64612916D01*
X151622881Y-64618831D01*
X151691969Y-64659203D01*
X151740693Y-64710842D01*
X151753764Y-64780625D01*
X151727033Y-64846396D01*
X151686584Y-64879752D01*
X151673607Y-64886507D01*
X151669474Y-64889610D01*
X151669471Y-64889612D01*
X151549405Y-64979760D01*
X151494965Y-65020635D01*
X151340629Y-65182138D01*
X151214743Y-65366680D01*
X151120688Y-65569305D01*
X151060989Y-65784570D01*
X151037251Y-66006695D01*
X151037548Y-66011848D01*
X151037548Y-66011851D01*
X151049652Y-66221777D01*
X151050110Y-66229715D01*
X151051247Y-66234761D01*
X151051248Y-66234767D01*
X151068374Y-66310757D01*
X151099222Y-66447639D01*
X151183266Y-66654616D01*
X151299987Y-66845088D01*
X151446250Y-67013938D01*
X151618126Y-67156632D01*
X151639668Y-67169220D01*
X151691445Y-67199476D01*
X151740169Y-67251114D01*
X151753240Y-67320897D01*
X151726509Y-67386669D01*
X151686055Y-67420027D01*
X151673607Y-67426507D01*
X151669474Y-67429610D01*
X151669471Y-67429612D01*
X151511199Y-67548446D01*
X151494965Y-67560635D01*
X151340629Y-67722138D01*
X151214743Y-67906680D01*
X151120688Y-68109305D01*
X151060989Y-68324570D01*
X151037251Y-68546695D01*
X151037548Y-68551848D01*
X151037548Y-68551851D01*
X151043011Y-68646590D01*
X151050110Y-68769715D01*
X151051247Y-68774761D01*
X151051248Y-68774767D01*
X151071119Y-68862939D01*
X151099222Y-68987639D01*
X151183266Y-69194616D01*
X151299987Y-69385088D01*
X151446250Y-69553938D01*
X151618126Y-69696632D01*
X151811000Y-69809338D01*
X152019692Y-69889030D01*
X152024760Y-69890061D01*
X152024763Y-69890062D01*
X152132017Y-69911883D01*
X152238597Y-69933567D01*
X152243772Y-69933757D01*
X152243774Y-69933757D01*
X152456673Y-69941564D01*
X152456677Y-69941564D01*
X152461837Y-69941753D01*
X152466957Y-69941097D01*
X152466959Y-69941097D01*
X152678288Y-69914025D01*
X152678289Y-69914025D01*
X152683416Y-69913368D01*
X152688366Y-69911883D01*
X152892429Y-69850661D01*
X152892434Y-69850659D01*
X152897384Y-69849174D01*
X153097994Y-69750896D01*
X153279860Y-69621173D01*
X153304908Y-69596213D01*
X153434435Y-69467137D01*
X153438096Y-69463489D01*
X153467065Y-69423175D01*
X153565435Y-69286277D01*
X153568453Y-69282077D01*
X153667430Y-69081811D01*
X153732370Y-68868069D01*
X153761529Y-68646590D01*
X153763156Y-68580000D01*
X153744852Y-68357361D01*
X153690431Y-68140702D01*
X153601354Y-67935840D01*
X153544276Y-67847611D01*
X153482822Y-67752617D01*
X153482820Y-67752614D01*
X153480014Y-67748277D01*
X153329670Y-67583051D01*
X153325619Y-67579852D01*
X153325615Y-67579848D01*
X153158414Y-67447800D01*
X153158410Y-67447798D01*
X153154359Y-67444598D01*
X153113053Y-67421796D01*
X153063084Y-67371364D01*
X153048312Y-67301921D01*
X153073428Y-67235516D01*
X153100780Y-67208909D01*
X153166590Y-67161967D01*
X153279860Y-67081173D01*
X153304908Y-67056213D01*
X153434435Y-66927137D01*
X153438096Y-66923489D01*
X153467065Y-66883175D01*
X153565435Y-66746277D01*
X153568453Y-66742077D01*
X153667430Y-66541811D01*
X153732370Y-66328069D01*
X153761529Y-66106590D01*
X153763156Y-66040000D01*
X153744852Y-65817361D01*
X153690431Y-65600702D01*
X153601354Y-65395840D01*
X153544276Y-65307611D01*
X153482822Y-65212617D01*
X153482820Y-65212614D01*
X153480014Y-65208277D01*
X153329670Y-65043051D01*
X153325619Y-65039852D01*
X153325615Y-65039848D01*
X153158414Y-64907800D01*
X153158410Y-64907798D01*
X153154359Y-64904598D01*
X153112569Y-64881529D01*
X153062598Y-64831097D01*
X153047826Y-64761654D01*
X153072942Y-64695248D01*
X153100294Y-64668641D01*
X153275328Y-64543792D01*
X153283200Y-64537139D01*
X153434052Y-64386812D01*
X153440730Y-64378965D01*
X153565003Y-64206020D01*
X153570313Y-64197183D01*
X153664670Y-64006267D01*
X153668469Y-63996672D01*
X153730377Y-63792910D01*
X153732555Y-63782837D01*
X153733986Y-63771962D01*
X153731775Y-63757778D01*
X153718617Y-63754000D01*
X152272000Y-63754000D01*
X152203879Y-63733998D01*
X152157386Y-63680342D01*
X152146000Y-63628000D01*
X152146000Y-63372000D01*
X152166002Y-63303879D01*
X152219658Y-63257386D01*
X152272000Y-63246000D01*
X153718344Y-63246000D01*
X153731875Y-63242027D01*
X153733180Y-63232947D01*
X153691214Y-63065875D01*
X153687894Y-63056124D01*
X153602972Y-62860814D01*
X153598105Y-62851739D01*
X153482426Y-62672926D01*
X153476136Y-62664757D01*
X153332293Y-62506677D01*
X153301241Y-62442831D01*
X153309635Y-62372333D01*
X153354812Y-62317564D01*
X153381256Y-62303895D01*
X153488297Y-62263767D01*
X153496705Y-62260615D01*
X153613261Y-62173261D01*
X153700615Y-62056705D01*
X153751745Y-61920316D01*
X153758500Y-61858134D01*
X153758500Y-60061866D01*
X153751745Y-59999684D01*
X153700615Y-59863295D01*
X153613261Y-59746739D01*
X153496705Y-59659385D01*
X153360316Y-59608255D01*
X153298134Y-59601500D01*
X151501866Y-59601500D01*
X151439684Y-59608255D01*
X151303295Y-59659385D01*
X151186739Y-59746739D01*
X151099385Y-59863295D01*
X151048255Y-59999684D01*
X151041500Y-60061866D01*
X151041500Y-61187972D01*
X151021498Y-61256093D01*
X151004595Y-61277067D01*
X148733472Y-63548190D01*
X148719059Y-63560577D01*
X148701436Y-63573546D01*
X148696692Y-63579129D01*
X148696693Y-63579129D01*
X148667021Y-63614055D01*
X148660091Y-63621571D01*
X148654347Y-63627315D01*
X148652073Y-63630189D01*
X148652067Y-63630196D01*
X148636628Y-63649711D01*
X148633837Y-63653115D01*
X148591055Y-63703472D01*
X148591052Y-63703476D01*
X148586316Y-63709051D01*
X148582988Y-63715568D01*
X148579611Y-63720632D01*
X148576384Y-63725856D01*
X148571840Y-63731600D01*
X148568741Y-63738231D01*
X148540768Y-63798082D01*
X148538837Y-63802033D01*
X148505457Y-63867404D01*
X148503716Y-63874519D01*
X148501579Y-63880265D01*
X148499655Y-63886048D01*
X148496556Y-63892679D01*
X148487260Y-63937375D01*
X148481608Y-63964547D01*
X148480639Y-63968829D01*
X148463196Y-64040112D01*
X148462500Y-64051330D01*
X148462461Y-64051328D01*
X148462228Y-64055229D01*
X148461839Y-64059588D01*
X148460348Y-64066756D01*
X148460546Y-64074073D01*
X148462454Y-64144577D01*
X148462500Y-64147986D01*
X148462500Y-72957624D01*
X148461067Y-72976574D01*
X148458876Y-72990973D01*
X148458876Y-72990979D01*
X148457776Y-72998208D01*
X148458369Y-73005500D01*
X148458369Y-73005503D01*
X148462085Y-73051183D01*
X148462500Y-73061398D01*
X148462500Y-73069525D01*
X148465811Y-73097924D01*
X148466238Y-73102244D01*
X148472191Y-73175426D01*
X148474447Y-73182388D01*
X148475643Y-73188376D01*
X148477051Y-73194333D01*
X148477899Y-73201607D01*
X148480397Y-73208489D01*
X148480398Y-73208493D01*
X148502945Y-73270607D01*
X148504355Y-73274711D01*
X148526987Y-73344575D01*
X148530787Y-73350838D01*
X148533325Y-73356380D01*
X148536067Y-73361856D01*
X148538566Y-73368741D01*
X148542581Y-73374865D01*
X148578815Y-73430132D01*
X148581130Y-73433800D01*
X148619227Y-73496581D01*
X148622941Y-73500786D01*
X148622943Y-73500789D01*
X148626667Y-73505005D01*
X148626638Y-73505031D01*
X148629238Y-73507962D01*
X148632042Y-73511316D01*
X148636054Y-73517435D01*
X148641366Y-73522467D01*
X148692586Y-73570988D01*
X148695028Y-73573366D01*
X150915067Y-75793405D01*
X150949093Y-75855717D01*
X150944028Y-75926532D01*
X150915067Y-75971595D01*
X148733472Y-78153190D01*
X148719059Y-78165577D01*
X148701436Y-78178546D01*
X148689527Y-78192564D01*
X148667021Y-78219055D01*
X148660091Y-78226571D01*
X148654347Y-78232315D01*
X148652073Y-78235189D01*
X148652067Y-78235196D01*
X148636628Y-78254711D01*
X148633837Y-78258115D01*
X148591055Y-78308472D01*
X148591052Y-78308476D01*
X148586316Y-78314051D01*
X148582988Y-78320568D01*
X148579611Y-78325632D01*
X148576384Y-78330856D01*
X148571840Y-78336600D01*
X148568741Y-78343231D01*
X148540768Y-78403082D01*
X148538837Y-78407033D01*
X148505457Y-78472404D01*
X148503716Y-78479519D01*
X148501579Y-78485265D01*
X148499655Y-78491048D01*
X148496556Y-78497679D01*
X148495066Y-78504843D01*
X148481608Y-78569547D01*
X148480639Y-78573829D01*
X148463196Y-78645112D01*
X148462500Y-78656330D01*
X148462461Y-78656328D01*
X148462228Y-78660229D01*
X148461839Y-78664588D01*
X148460348Y-78671756D01*
X148460546Y-78679073D01*
X148462454Y-78749577D01*
X148462500Y-78752986D01*
X148462500Y-85657624D01*
X148461067Y-85676574D01*
X148458876Y-85690973D01*
X148458876Y-85690979D01*
X148457776Y-85698208D01*
X148458369Y-85705500D01*
X148458369Y-85705503D01*
X148462085Y-85751183D01*
X148462500Y-85761398D01*
X148462500Y-85769525D01*
X148465811Y-85797924D01*
X148466238Y-85802244D01*
X148472191Y-85875426D01*
X148474447Y-85882388D01*
X148475643Y-85888376D01*
X148477051Y-85894333D01*
X148477899Y-85901607D01*
X148480397Y-85908489D01*
X148480398Y-85908493D01*
X148502945Y-85970607D01*
X148504355Y-85974711D01*
X148526987Y-86044575D01*
X148530787Y-86050838D01*
X148533325Y-86056380D01*
X148536067Y-86061856D01*
X148538566Y-86068741D01*
X148542581Y-86074865D01*
X148578815Y-86130132D01*
X148581130Y-86133800D01*
X148619227Y-86196581D01*
X148622941Y-86200786D01*
X148622943Y-86200789D01*
X148626667Y-86205005D01*
X148626638Y-86205031D01*
X148629238Y-86207962D01*
X148632042Y-86211316D01*
X148636054Y-86217435D01*
X148641366Y-86222467D01*
X148692586Y-86270988D01*
X148695028Y-86273366D01*
X150344067Y-87922405D01*
X150378093Y-87984717D01*
X150373028Y-88055532D01*
X150330481Y-88112368D01*
X150263961Y-88137179D01*
X150254972Y-88137500D01*
X148657376Y-88137500D01*
X148638426Y-88136067D01*
X148624027Y-88133876D01*
X148624021Y-88133876D01*
X148616792Y-88132776D01*
X148609500Y-88133369D01*
X148609497Y-88133369D01*
X148563817Y-88137085D01*
X148553602Y-88137500D01*
X148545475Y-88137500D01*
X148541839Y-88137924D01*
X148541837Y-88137924D01*
X148538385Y-88138327D01*
X148517076Y-88140811D01*
X148512756Y-88141238D01*
X148439574Y-88147191D01*
X148432612Y-88149447D01*
X148426624Y-88150643D01*
X148420667Y-88152051D01*
X148413393Y-88152899D01*
X148406511Y-88155397D01*
X148406507Y-88155398D01*
X148344393Y-88177945D01*
X148340289Y-88179355D01*
X148270425Y-88201987D01*
X148264162Y-88205787D01*
X148258620Y-88208325D01*
X148253144Y-88211067D01*
X148246259Y-88213566D01*
X148240135Y-88217581D01*
X148184868Y-88253815D01*
X148181200Y-88256130D01*
X148118419Y-88294227D01*
X148114214Y-88297941D01*
X148114211Y-88297943D01*
X148109995Y-88301667D01*
X148109969Y-88301638D01*
X148107038Y-88304238D01*
X148103684Y-88307042D01*
X148097565Y-88311054D01*
X148092533Y-88316366D01*
X148044012Y-88367586D01*
X148041634Y-88370028D01*
X145821067Y-90590595D01*
X145758755Y-90624621D01*
X145731972Y-90627500D01*
X144237513Y-90627500D01*
X144169392Y-90607498D01*
X144130084Y-90567339D01*
X144089176Y-90500584D01*
X144074643Y-90483568D01*
X143938177Y-90323787D01*
X143934969Y-90320031D01*
X143931213Y-90316823D01*
X143931208Y-90316818D01*
X143812944Y-90215811D01*
X143774134Y-90156361D01*
X143773628Y-90085366D01*
X143812944Y-90024189D01*
X143931208Y-89923182D01*
X143931213Y-89923177D01*
X143934969Y-89919969D01*
X144089176Y-89739416D01*
X144091755Y-89735208D01*
X144091759Y-89735202D01*
X144210654Y-89541183D01*
X144213240Y-89536963D01*
X144217987Y-89525504D01*
X144302211Y-89322167D01*
X144302212Y-89322165D01*
X144304105Y-89317594D01*
X144323360Y-89237391D01*
X144358380Y-89091524D01*
X144358381Y-89091518D01*
X144359535Y-89086711D01*
X144378165Y-88850000D01*
X144359535Y-88613289D01*
X144356112Y-88599028D01*
X144323360Y-88462609D01*
X144304105Y-88382406D01*
X144299687Y-88371739D01*
X144215135Y-88167611D01*
X144215133Y-88167607D01*
X144213240Y-88163037D01*
X144197337Y-88137085D01*
X144091759Y-87964798D01*
X144091755Y-87964792D01*
X144089176Y-87960584D01*
X143934969Y-87780031D01*
X143931213Y-87776823D01*
X143931208Y-87776818D01*
X143812944Y-87675811D01*
X143774134Y-87616361D01*
X143773628Y-87545366D01*
X143812944Y-87484189D01*
X143931208Y-87383182D01*
X143931213Y-87383177D01*
X143934969Y-87379969D01*
X144089176Y-87199416D01*
X144091755Y-87195208D01*
X144091759Y-87195202D01*
X144210654Y-87001183D01*
X144213240Y-86996963D01*
X144219777Y-86981183D01*
X144302211Y-86782167D01*
X144302212Y-86782165D01*
X144304105Y-86777594D01*
X144326962Y-86682386D01*
X144358380Y-86551524D01*
X144358381Y-86551518D01*
X144359535Y-86546711D01*
X144378165Y-86310000D01*
X144359535Y-86073289D01*
X144355406Y-86056087D01*
X144305260Y-85847218D01*
X144304105Y-85842406D01*
X144272400Y-85765862D01*
X144215135Y-85627611D01*
X144215133Y-85627607D01*
X144213240Y-85623037D01*
X144210654Y-85618817D01*
X144091759Y-85424798D01*
X144091755Y-85424792D01*
X144089176Y-85420584D01*
X143934969Y-85240031D01*
X143931213Y-85236823D01*
X143931208Y-85236818D01*
X143812944Y-85135811D01*
X143774134Y-85076361D01*
X143773628Y-85005366D01*
X143812944Y-84944189D01*
X143931208Y-84843182D01*
X143931213Y-84843177D01*
X143934969Y-84839969D01*
X144089176Y-84659416D01*
X144091755Y-84655208D01*
X144091759Y-84655202D01*
X144210654Y-84461183D01*
X144213240Y-84456963D01*
X144219424Y-84442035D01*
X144302211Y-84242167D01*
X144302212Y-84242165D01*
X144304105Y-84237594D01*
X144323360Y-84157391D01*
X144358380Y-84011524D01*
X144358381Y-84011518D01*
X144359535Y-84006711D01*
X144378165Y-83770000D01*
X144359535Y-83533289D01*
X144343365Y-83465933D01*
X144305260Y-83307218D01*
X144304105Y-83302406D01*
X144281107Y-83246883D01*
X144215135Y-83087611D01*
X144215133Y-83087607D01*
X144213240Y-83083037D01*
X144181739Y-83031632D01*
X144091759Y-82884798D01*
X144091755Y-82884792D01*
X144089176Y-82880584D01*
X143934969Y-82700031D01*
X143931213Y-82696823D01*
X143931208Y-82696818D01*
X143812944Y-82595811D01*
X143774134Y-82536361D01*
X143773628Y-82465366D01*
X143812944Y-82404189D01*
X143931208Y-82303182D01*
X143931213Y-82303177D01*
X143934969Y-82299969D01*
X144089176Y-82119416D01*
X144091755Y-82115208D01*
X144091759Y-82115202D01*
X144210654Y-81921183D01*
X144213240Y-81916963D01*
X144215443Y-81911646D01*
X144302211Y-81702167D01*
X144302212Y-81702165D01*
X144304105Y-81697594D01*
X144356172Y-81480720D01*
X144358380Y-81471524D01*
X144358381Y-81471518D01*
X144359535Y-81466711D01*
X144378165Y-81230000D01*
X144359535Y-80993289D01*
X144336091Y-80895635D01*
X144305260Y-80767218D01*
X144304105Y-80762406D01*
X144301671Y-80756529D01*
X144215135Y-80547611D01*
X144215133Y-80547607D01*
X144213240Y-80543037D01*
X144210654Y-80538817D01*
X144091759Y-80344798D01*
X144091755Y-80344792D01*
X144089176Y-80340584D01*
X143934969Y-80160031D01*
X143931213Y-80156823D01*
X143931208Y-80156818D01*
X143812944Y-80055811D01*
X143774134Y-79996361D01*
X143773628Y-79925366D01*
X143812944Y-79864189D01*
X143931208Y-79763182D01*
X143931213Y-79763177D01*
X143934969Y-79759969D01*
X144089176Y-79579416D01*
X144091755Y-79575208D01*
X144091759Y-79575202D01*
X144210654Y-79381183D01*
X144213240Y-79376963D01*
X144220673Y-79359020D01*
X144302211Y-79162167D01*
X144302212Y-79162165D01*
X144304105Y-79157594D01*
X144336433Y-79022939D01*
X144358380Y-78931524D01*
X144358381Y-78931518D01*
X144359535Y-78926711D01*
X144378165Y-78690000D01*
X144359535Y-78453289D01*
X144347962Y-78405081D01*
X144315364Y-78269305D01*
X144304105Y-78222406D01*
X144288250Y-78184129D01*
X144215135Y-78007611D01*
X144215133Y-78007607D01*
X144213240Y-78003037D01*
X144173136Y-77937594D01*
X144091759Y-77804798D01*
X144091755Y-77804792D01*
X144089176Y-77800584D01*
X143934969Y-77620031D01*
X143931213Y-77616823D01*
X143931208Y-77616818D01*
X143812944Y-77515811D01*
X143774134Y-77456361D01*
X143773628Y-77385366D01*
X143812944Y-77324189D01*
X143931208Y-77223182D01*
X143931213Y-77223177D01*
X143934969Y-77219969D01*
X144089176Y-77039416D01*
X144091755Y-77035208D01*
X144091759Y-77035202D01*
X144210654Y-76841183D01*
X144213240Y-76836963D01*
X144304105Y-76617594D01*
X144323360Y-76537391D01*
X144358380Y-76391524D01*
X144358381Y-76391518D01*
X144359535Y-76386711D01*
X144378165Y-76150000D01*
X144359535Y-75913289D01*
X144352144Y-75882500D01*
X144317523Y-75738295D01*
X144304105Y-75682406D01*
X144221615Y-75483255D01*
X144215135Y-75467611D01*
X144215133Y-75467607D01*
X144213240Y-75463037D01*
X144114474Y-75301866D01*
X144091759Y-75264798D01*
X144091755Y-75264792D01*
X144089176Y-75260584D01*
X143934969Y-75080031D01*
X143931213Y-75076823D01*
X143931208Y-75076818D01*
X143812944Y-74975811D01*
X143774134Y-74916361D01*
X143773628Y-74845366D01*
X143812944Y-74784189D01*
X143931208Y-74683182D01*
X143931213Y-74683177D01*
X143934969Y-74679969D01*
X144089176Y-74499416D01*
X144091755Y-74495208D01*
X144091759Y-74495202D01*
X144210654Y-74301183D01*
X144213240Y-74296963D01*
X144304105Y-74077594D01*
X144359535Y-73846711D01*
X144378165Y-73610000D01*
X144359535Y-73373289D01*
X144355406Y-73356087D01*
X144305260Y-73147218D01*
X144304105Y-73142406D01*
X144268433Y-73056285D01*
X144215135Y-72927611D01*
X144215133Y-72927607D01*
X144213240Y-72923037D01*
X144210654Y-72918817D01*
X144091759Y-72724798D01*
X144091755Y-72724792D01*
X144089176Y-72720584D01*
X143934969Y-72540031D01*
X143931213Y-72536823D01*
X143931208Y-72536818D01*
X143812944Y-72435811D01*
X143774134Y-72376361D01*
X143773628Y-72305366D01*
X143812944Y-72244189D01*
X143931208Y-72143182D01*
X143931213Y-72143177D01*
X143934969Y-72139969D01*
X144089176Y-71959416D01*
X144091755Y-71955208D01*
X144091759Y-71955202D01*
X144210654Y-71761183D01*
X144213240Y-71756963D01*
X144304105Y-71537594D01*
X144359535Y-71306711D01*
X144378165Y-71070000D01*
X144359535Y-70833289D01*
X144304105Y-70602406D01*
X144213240Y-70383037D01*
X144210654Y-70378817D01*
X144091759Y-70184798D01*
X144091755Y-70184792D01*
X144089176Y-70180584D01*
X143934969Y-70000031D01*
X143931213Y-69996823D01*
X143931208Y-69996818D01*
X143812944Y-69895811D01*
X143774134Y-69836361D01*
X143773628Y-69765366D01*
X143812944Y-69704189D01*
X143931208Y-69603182D01*
X143931213Y-69603177D01*
X143934969Y-69599969D01*
X144089176Y-69419416D01*
X144091755Y-69415208D01*
X144091759Y-69415202D01*
X144210654Y-69221183D01*
X144213240Y-69216963D01*
X144220673Y-69199020D01*
X144302211Y-69002167D01*
X144302212Y-69002165D01*
X144304105Y-68997594D01*
X144359535Y-68766711D01*
X144378165Y-68530000D01*
X144359535Y-68293289D01*
X144333091Y-68183139D01*
X144305260Y-68067218D01*
X144304105Y-68062406D01*
X144249879Y-67931492D01*
X144215135Y-67847611D01*
X144215133Y-67847607D01*
X144213240Y-67843037D01*
X144210654Y-67838817D01*
X144091759Y-67644798D01*
X144091755Y-67644792D01*
X144089176Y-67640584D01*
X143934969Y-67460031D01*
X143931213Y-67456823D01*
X143931208Y-67456818D01*
X143812944Y-67355811D01*
X143774134Y-67296361D01*
X143773628Y-67225366D01*
X143812944Y-67164189D01*
X143931208Y-67063182D01*
X143931213Y-67063177D01*
X143934969Y-67059969D01*
X144089176Y-66879416D01*
X144091755Y-66875208D01*
X144091759Y-66875202D01*
X144210654Y-66681183D01*
X144213240Y-66676963D01*
X144219263Y-66662424D01*
X144302211Y-66462167D01*
X144302212Y-66462165D01*
X144304105Y-66457594D01*
X144337396Y-66318926D01*
X144358380Y-66231524D01*
X144358381Y-66231518D01*
X144359535Y-66226711D01*
X144378165Y-65990000D01*
X144359535Y-65753289D01*
X144304105Y-65522406D01*
X144302211Y-65517833D01*
X144215135Y-65307611D01*
X144215133Y-65307607D01*
X144213240Y-65303037D01*
X144210654Y-65298817D01*
X144091759Y-65104798D01*
X144091755Y-65104792D01*
X144089176Y-65100584D01*
X143934969Y-64920031D01*
X143931213Y-64916823D01*
X143931208Y-64916818D01*
X143812944Y-64815811D01*
X143774134Y-64756361D01*
X143773628Y-64685366D01*
X143812944Y-64624189D01*
X143931208Y-64523182D01*
X143931213Y-64523177D01*
X143934969Y-64519969D01*
X144089176Y-64339416D01*
X144091755Y-64335208D01*
X144091759Y-64335202D01*
X144210654Y-64141183D01*
X144213240Y-64136963D01*
X144215872Y-64130610D01*
X144302211Y-63922167D01*
X144302212Y-63922165D01*
X144304105Y-63917594D01*
X144336457Y-63782837D01*
X144358380Y-63691524D01*
X144358381Y-63691518D01*
X144359535Y-63686711D01*
X144378165Y-63450000D01*
X144359535Y-63213289D01*
X144345373Y-63154297D01*
X144305260Y-62987218D01*
X144304105Y-62982406D01*
X144295121Y-62960717D01*
X144215135Y-62767611D01*
X144215133Y-62767607D01*
X144213240Y-62763037D01*
X144153014Y-62664757D01*
X144091759Y-62564798D01*
X144091755Y-62564792D01*
X144089176Y-62560584D01*
X143934969Y-62380031D01*
X143931213Y-62376823D01*
X143931208Y-62376818D01*
X143812944Y-62275811D01*
X143774134Y-62216361D01*
X143773628Y-62145366D01*
X143812944Y-62084189D01*
X143931208Y-61983182D01*
X143931213Y-61983177D01*
X143934969Y-61979969D01*
X144089176Y-61799416D01*
X144091755Y-61795208D01*
X144091759Y-61795202D01*
X144210654Y-61601183D01*
X144213240Y-61596963D01*
X144304105Y-61377594D01*
X144333275Y-61256093D01*
X144358380Y-61151524D01*
X144358381Y-61151518D01*
X144359535Y-61146711D01*
X144378165Y-60910000D01*
X144359535Y-60673289D01*
X144304105Y-60442406D01*
X144213240Y-60223037D01*
X144114474Y-60061866D01*
X144091759Y-60024798D01*
X144091755Y-60024792D01*
X144089176Y-60020584D01*
X143934969Y-59840031D01*
X143931213Y-59836823D01*
X143931208Y-59836818D01*
X143812944Y-59735811D01*
X143774134Y-59676361D01*
X143773628Y-59605366D01*
X143812944Y-59544189D01*
X143931208Y-59443182D01*
X143931213Y-59443177D01*
X143934969Y-59439969D01*
X144089176Y-59259416D01*
X144091755Y-59255208D01*
X144091759Y-59255202D01*
X144210654Y-59061183D01*
X144213240Y-59056963D01*
X144304105Y-58837594D01*
X144359535Y-58606711D01*
X144378165Y-58370000D01*
X144359535Y-58133289D01*
X144304105Y-57902406D01*
X144213240Y-57683037D01*
X144210654Y-57678817D01*
X144091759Y-57484798D01*
X144091755Y-57484792D01*
X144089176Y-57480584D01*
X143934969Y-57300031D01*
X143754416Y-57145824D01*
X143750208Y-57143245D01*
X143750202Y-57143241D01*
X143556183Y-57024346D01*
X143551963Y-57021760D01*
X143547393Y-57019867D01*
X143547389Y-57019865D01*
X143470646Y-56988078D01*
X143380594Y-56950777D01*
X143325314Y-56906230D01*
X143302893Y-56838867D01*
X143320451Y-56770075D01*
X143369659Y-56723118D01*
X143508056Y-56649530D01*
X143511942Y-56647464D01*
X143616896Y-56571211D01*
X143735629Y-56484947D01*
X143735632Y-56484944D01*
X143739192Y-56482358D01*
X143941252Y-56287231D01*
X144114188Y-56065882D01*
X144116384Y-56062078D01*
X144116389Y-56062071D01*
X144252435Y-55826431D01*
X144254636Y-55822619D01*
X144359862Y-55562176D01*
X144393544Y-55427087D01*
X144426753Y-55293893D01*
X144426754Y-55293888D01*
X144427817Y-55289624D01*
X144457178Y-55010267D01*
X144457025Y-55005873D01*
X144447529Y-54733939D01*
X144447528Y-54733933D01*
X144447375Y-54729542D01*
X144424561Y-54600154D01*
X144399360Y-54457236D01*
X144398598Y-54452913D01*
X144311797Y-54185765D01*
X144221193Y-54000000D01*
X152586738Y-54000000D01*
X152605767Y-54302462D01*
X152662555Y-54600154D01*
X152756206Y-54888381D01*
X152885242Y-55162598D01*
X153047630Y-55418480D01*
X153050149Y-55421525D01*
X153050152Y-55421529D01*
X153106070Y-55489121D01*
X153240808Y-55651992D01*
X153461729Y-55859450D01*
X153706910Y-56037584D01*
X153710379Y-56039491D01*
X153710382Y-56039493D01*
X153969014Y-56181678D01*
X153972483Y-56183585D01*
X153976152Y-56185038D01*
X153976157Y-56185040D01*
X154225506Y-56283764D01*
X154254261Y-56295149D01*
X154547800Y-56370516D01*
X154848470Y-56408500D01*
X155151530Y-56408500D01*
X155452200Y-56370516D01*
X155745739Y-56295149D01*
X155774494Y-56283764D01*
X156023843Y-56185040D01*
X156023848Y-56185038D01*
X156027517Y-56183585D01*
X156030986Y-56181678D01*
X156289618Y-56039493D01*
X156289621Y-56039491D01*
X156293090Y-56037584D01*
X156538271Y-55859450D01*
X156759192Y-55651992D01*
X156893930Y-55489121D01*
X156949848Y-55421529D01*
X156949851Y-55421525D01*
X156952370Y-55418480D01*
X157114758Y-55162598D01*
X157243794Y-54888381D01*
X157337445Y-54600154D01*
X157394233Y-54302462D01*
X157413262Y-54000000D01*
X157394233Y-53697538D01*
X157337445Y-53399846D01*
X157243794Y-53111619D01*
X157237929Y-53099154D01*
X157169412Y-52953548D01*
X157114758Y-52837402D01*
X156952370Y-52581520D01*
X156759192Y-52348008D01*
X156538271Y-52140550D01*
X156293090Y-51962416D01*
X156027517Y-51816415D01*
X156023848Y-51814962D01*
X156023843Y-51814960D01*
X155749409Y-51706304D01*
X155749408Y-51706304D01*
X155745739Y-51704851D01*
X155452200Y-51629484D01*
X155151530Y-51591500D01*
X154848470Y-51591500D01*
X154547800Y-51629484D01*
X154254261Y-51704851D01*
X154250592Y-51706304D01*
X154250591Y-51706304D01*
X153976157Y-51814960D01*
X153976152Y-51814962D01*
X153972483Y-51816415D01*
X153706910Y-51962416D01*
X153461729Y-52140550D01*
X153240808Y-52348008D01*
X153047630Y-52581520D01*
X152885242Y-52837402D01*
X152830588Y-52953548D01*
X152762072Y-53099154D01*
X152756206Y-53111619D01*
X152662555Y-53399846D01*
X152605767Y-53697538D01*
X152586738Y-54000000D01*
X144221193Y-54000000D01*
X144188660Y-53933298D01*
X144186205Y-53929659D01*
X144186202Y-53929653D01*
X144105935Y-53810653D01*
X144031585Y-53700424D01*
X143843629Y-53491678D01*
X143819555Y-53471477D01*
X143631820Y-53313949D01*
X143628450Y-53311121D01*
X143390236Y-53162269D01*
X143133625Y-53048018D01*
X142929170Y-52989392D01*
X142867837Y-52971805D01*
X142867836Y-52971805D01*
X142863610Y-52970593D01*
X142859260Y-52969982D01*
X142859257Y-52969981D01*
X142742328Y-52953548D01*
X142585448Y-52931500D01*
X142374854Y-52931500D01*
X142372668Y-52931653D01*
X142372664Y-52931653D01*
X142169173Y-52945882D01*
X142169168Y-52945883D01*
X142164788Y-52946189D01*
X141890030Y-53004591D01*
X141885901Y-53006094D01*
X141885897Y-53006095D01*
X141630219Y-53099154D01*
X141630215Y-53099156D01*
X141626074Y-53100663D01*
X141378058Y-53232536D01*
X141374499Y-53235122D01*
X141374497Y-53235123D01*
X141269895Y-53311121D01*
X141150808Y-53397642D01*
X140948748Y-53592769D01*
X140775812Y-53814118D01*
X140773616Y-53817922D01*
X140773611Y-53817929D01*
X140670778Y-53996042D01*
X140635364Y-54057381D01*
X140530138Y-54317824D01*
X140529073Y-54322097D01*
X140529072Y-54322099D01*
X140495379Y-54457236D01*
X140462183Y-54590376D01*
X140432822Y-54869733D01*
X140432975Y-54874121D01*
X140432975Y-54874127D01*
X140433599Y-54891971D01*
X140442625Y-55150458D01*
X140443387Y-55154781D01*
X140443388Y-55154788D01*
X140467164Y-55289624D01*
X140491402Y-55427087D01*
X140578203Y-55694235D01*
X140701340Y-55946702D01*
X140703795Y-55950341D01*
X140703798Y-55950347D01*
X140761071Y-56035257D01*
X140858415Y-56179576D01*
X141046371Y-56388322D01*
X141261550Y-56568879D01*
X141499764Y-56717731D01*
X141756375Y-56831982D01*
X141760603Y-56833194D01*
X141760602Y-56833194D01*
X141979333Y-56895914D01*
X142039302Y-56933918D01*
X142069204Y-56998310D01*
X142059547Y-57068647D01*
X142010437Y-57124466D01*
X141979803Y-57143238D01*
X141979802Y-57143239D01*
X141975584Y-57145824D01*
X141795031Y-57300031D01*
X141640824Y-57480584D01*
X141638245Y-57484792D01*
X141638241Y-57484798D01*
X141519346Y-57678817D01*
X141516760Y-57683037D01*
X141425895Y-57902406D01*
X141370465Y-58133289D01*
X141351835Y-58370000D01*
X141370465Y-58606711D01*
X141425895Y-58837594D01*
X141516760Y-59056963D01*
X141519346Y-59061183D01*
X141638241Y-59255202D01*
X141638245Y-59255208D01*
X141640824Y-59259416D01*
X141795031Y-59439969D01*
X141798787Y-59443177D01*
X141798792Y-59443182D01*
X141917056Y-59544189D01*
X141955866Y-59603639D01*
X141956372Y-59674634D01*
X141917056Y-59735811D01*
X141798792Y-59836818D01*
X141798787Y-59836823D01*
X141795031Y-59840031D01*
X141640824Y-60020584D01*
X141638245Y-60024792D01*
X141638241Y-60024798D01*
X141615526Y-60061866D01*
X141516760Y-60223037D01*
X141425895Y-60442406D01*
X141370465Y-60673289D01*
X141351835Y-60910000D01*
X141370465Y-61146711D01*
X141371619Y-61151518D01*
X141371620Y-61151524D01*
X141396725Y-61256093D01*
X141425895Y-61377594D01*
X141516760Y-61596963D01*
X141519346Y-61601183D01*
X141638241Y-61795202D01*
X141638245Y-61795208D01*
X141640824Y-61799416D01*
X141795031Y-61979969D01*
X141798787Y-61983177D01*
X141798792Y-61983182D01*
X141917056Y-62084189D01*
X141955866Y-62143639D01*
X141956372Y-62214634D01*
X141917056Y-62275811D01*
X141798792Y-62376818D01*
X141798787Y-62376823D01*
X141795031Y-62380031D01*
X141640824Y-62560584D01*
X141638245Y-62564792D01*
X141638241Y-62564798D01*
X141576986Y-62664757D01*
X141516760Y-62763037D01*
X141514867Y-62767607D01*
X141514865Y-62767611D01*
X141434879Y-62960717D01*
X141425895Y-62982406D01*
X141424740Y-62987218D01*
X141384628Y-63154297D01*
X141370465Y-63213289D01*
X141351835Y-63450000D01*
X141370465Y-63686711D01*
X141371619Y-63691518D01*
X141371620Y-63691524D01*
X141393543Y-63782837D01*
X141425895Y-63917594D01*
X141427788Y-63922165D01*
X141427789Y-63922167D01*
X141514129Y-64130610D01*
X141516760Y-64136963D01*
X141519346Y-64141183D01*
X141638241Y-64335202D01*
X141638245Y-64335208D01*
X141640824Y-64339416D01*
X141795031Y-64519969D01*
X141798787Y-64523177D01*
X141798792Y-64523182D01*
X141917056Y-64624189D01*
X141955866Y-64683639D01*
X141956372Y-64754634D01*
X141917056Y-64815811D01*
X141798792Y-64916818D01*
X141798787Y-64916823D01*
X141795031Y-64920031D01*
X141640824Y-65100584D01*
X141638245Y-65104792D01*
X141638241Y-65104798D01*
X141519346Y-65298817D01*
X141516760Y-65303037D01*
X141514867Y-65307607D01*
X141514865Y-65307611D01*
X141427789Y-65517833D01*
X141425895Y-65522406D01*
X141370465Y-65753289D01*
X141351835Y-65990000D01*
X141370465Y-66226711D01*
X141371619Y-66231518D01*
X141371620Y-66231524D01*
X141392604Y-66318926D01*
X141425895Y-66457594D01*
X141427788Y-66462165D01*
X141427789Y-66462167D01*
X141510738Y-66662424D01*
X141516760Y-66676963D01*
X141519346Y-66681183D01*
X141638241Y-66875202D01*
X141638245Y-66875208D01*
X141640824Y-66879416D01*
X141795031Y-67059969D01*
X141798787Y-67063177D01*
X141798792Y-67063182D01*
X141917056Y-67164189D01*
X141955866Y-67223639D01*
X141956372Y-67294634D01*
X141917056Y-67355811D01*
X141798792Y-67456818D01*
X141798787Y-67456823D01*
X141795031Y-67460031D01*
X141640824Y-67640584D01*
X141638245Y-67644792D01*
X141638241Y-67644798D01*
X141519346Y-67838817D01*
X141516760Y-67843037D01*
X141514867Y-67847607D01*
X141514865Y-67847611D01*
X141480121Y-67931492D01*
X141425895Y-68062406D01*
X141424740Y-68067218D01*
X141396910Y-68183139D01*
X141370465Y-68293289D01*
X141351835Y-68530000D01*
X141370465Y-68766711D01*
X141425895Y-68997594D01*
X141427788Y-69002165D01*
X141427789Y-69002167D01*
X141509328Y-69199020D01*
X141516760Y-69216963D01*
X141519346Y-69221183D01*
X141638241Y-69415202D01*
X141638245Y-69415208D01*
X141640824Y-69419416D01*
X141795031Y-69599969D01*
X141798787Y-69603177D01*
X141798792Y-69603182D01*
X141917056Y-69704189D01*
X141955866Y-69763639D01*
X141956372Y-69834634D01*
X141917056Y-69895811D01*
X141798792Y-69996818D01*
X141798787Y-69996823D01*
X141795031Y-70000031D01*
X141640824Y-70180584D01*
X141638245Y-70184792D01*
X141638241Y-70184798D01*
X141519346Y-70378817D01*
X141516760Y-70383037D01*
X141425895Y-70602406D01*
X141370465Y-70833289D01*
X141351835Y-71070000D01*
X141370465Y-71306711D01*
X141425895Y-71537594D01*
X141516760Y-71756963D01*
X141519346Y-71761183D01*
X141638241Y-71955202D01*
X141638245Y-71955208D01*
X141640824Y-71959416D01*
X141795031Y-72139969D01*
X141798787Y-72143177D01*
X141798792Y-72143182D01*
X141917056Y-72244189D01*
X141955866Y-72303639D01*
X141956372Y-72374634D01*
X141917056Y-72435811D01*
X141798792Y-72536818D01*
X141798787Y-72536823D01*
X141795031Y-72540031D01*
X141640824Y-72720584D01*
X141638245Y-72724792D01*
X141638241Y-72724798D01*
X141519346Y-72918817D01*
X141516760Y-72923037D01*
X141514867Y-72927607D01*
X141514865Y-72927611D01*
X141461567Y-73056285D01*
X141425895Y-73142406D01*
X141424740Y-73147218D01*
X141374595Y-73356087D01*
X141370465Y-73373289D01*
X141351835Y-73610000D01*
X141370465Y-73846711D01*
X141425895Y-74077594D01*
X141516760Y-74296963D01*
X141519346Y-74301183D01*
X141638241Y-74495202D01*
X141638245Y-74495208D01*
X141640824Y-74499416D01*
X141795031Y-74679969D01*
X141798787Y-74683177D01*
X141798792Y-74683182D01*
X141917056Y-74784189D01*
X141955866Y-74843639D01*
X141956372Y-74914634D01*
X141917056Y-74975811D01*
X141798792Y-75076818D01*
X141798787Y-75076823D01*
X141795031Y-75080031D01*
X141640824Y-75260584D01*
X141638245Y-75264792D01*
X141638241Y-75264798D01*
X141615526Y-75301866D01*
X141516760Y-75463037D01*
X141514867Y-75467607D01*
X141514865Y-75467611D01*
X141508385Y-75483255D01*
X141425895Y-75682406D01*
X141412477Y-75738295D01*
X141377857Y-75882500D01*
X141370465Y-75913289D01*
X141351835Y-76150000D01*
X141370465Y-76386711D01*
X141371619Y-76391518D01*
X141371620Y-76391524D01*
X141406640Y-76537391D01*
X141425895Y-76617594D01*
X141516760Y-76836963D01*
X141519346Y-76841183D01*
X141638241Y-77035202D01*
X141638245Y-77035208D01*
X141640824Y-77039416D01*
X141795031Y-77219969D01*
X141798787Y-77223177D01*
X141798792Y-77223182D01*
X141917056Y-77324189D01*
X141955866Y-77383639D01*
X141956372Y-77454634D01*
X141917056Y-77515811D01*
X141798792Y-77616818D01*
X141798787Y-77616823D01*
X141795031Y-77620031D01*
X141640824Y-77800584D01*
X141638245Y-77804792D01*
X141638241Y-77804798D01*
X141556864Y-77937594D01*
X141516760Y-78003037D01*
X141514867Y-78007607D01*
X141514865Y-78007611D01*
X141441750Y-78184129D01*
X141425895Y-78222406D01*
X141414636Y-78269305D01*
X141382039Y-78405081D01*
X141370465Y-78453289D01*
X141351835Y-78690000D01*
X141370465Y-78926711D01*
X141371619Y-78931518D01*
X141371620Y-78931524D01*
X141393567Y-79022939D01*
X141425895Y-79157594D01*
X141427788Y-79162165D01*
X141427789Y-79162167D01*
X141509328Y-79359020D01*
X141516760Y-79376963D01*
X141519346Y-79381183D01*
X141638241Y-79575202D01*
X141638245Y-79575208D01*
X141640824Y-79579416D01*
X141795031Y-79759969D01*
X141798787Y-79763177D01*
X141798792Y-79763182D01*
X141917056Y-79864189D01*
X141955866Y-79923639D01*
X141956372Y-79994634D01*
X141917056Y-80055811D01*
X141798792Y-80156818D01*
X141798787Y-80156823D01*
X141795031Y-80160031D01*
X141640824Y-80340584D01*
X141638245Y-80344792D01*
X141638241Y-80344798D01*
X141519346Y-80538817D01*
X141516760Y-80543037D01*
X141514867Y-80547607D01*
X141514865Y-80547611D01*
X141428329Y-80756529D01*
X141425895Y-80762406D01*
X141424740Y-80767218D01*
X141393910Y-80895635D01*
X141370465Y-80993289D01*
X141351835Y-81230000D01*
X141370465Y-81466711D01*
X141371619Y-81471518D01*
X141371620Y-81471524D01*
X141373828Y-81480720D01*
X141425895Y-81697594D01*
X141427788Y-81702165D01*
X141427789Y-81702167D01*
X141514558Y-81911646D01*
X141516760Y-81916963D01*
X141519346Y-81921183D01*
X141638241Y-82115202D01*
X141638245Y-82115208D01*
X141640824Y-82119416D01*
X141795031Y-82299969D01*
X141798787Y-82303177D01*
X141798792Y-82303182D01*
X141917056Y-82404189D01*
X141955866Y-82463639D01*
X141956372Y-82534634D01*
X141917056Y-82595811D01*
X141798792Y-82696818D01*
X141798787Y-82696823D01*
X141795031Y-82700031D01*
X141640824Y-82880584D01*
X141638245Y-82884792D01*
X141638241Y-82884798D01*
X141548261Y-83031632D01*
X141516760Y-83083037D01*
X141514867Y-83087607D01*
X141514865Y-83087611D01*
X141448893Y-83246883D01*
X141425895Y-83302406D01*
X141424740Y-83307218D01*
X141386636Y-83465933D01*
X141370465Y-83533289D01*
X141351835Y-83770000D01*
X141370465Y-84006711D01*
X141371619Y-84011518D01*
X141371620Y-84011524D01*
X141406640Y-84157391D01*
X141425895Y-84237594D01*
X141427788Y-84242165D01*
X141427789Y-84242167D01*
X141510577Y-84442035D01*
X141516760Y-84456963D01*
X141519346Y-84461183D01*
X141638241Y-84655202D01*
X141638245Y-84655208D01*
X141640824Y-84659416D01*
X141795031Y-84839969D01*
X141798787Y-84843177D01*
X141798792Y-84843182D01*
X141917056Y-84944189D01*
X141955866Y-85003639D01*
X141956372Y-85074634D01*
X141917056Y-85135811D01*
X141798792Y-85236818D01*
X141798787Y-85236823D01*
X141795031Y-85240031D01*
X141640824Y-85420584D01*
X141638245Y-85424792D01*
X141638241Y-85424798D01*
X141519346Y-85618817D01*
X141516760Y-85623037D01*
X141514867Y-85627607D01*
X141514865Y-85627611D01*
X141457600Y-85765862D01*
X141425895Y-85842406D01*
X141424740Y-85847218D01*
X141374595Y-86056087D01*
X141370465Y-86073289D01*
X141351835Y-86310000D01*
X141370465Y-86546711D01*
X141371619Y-86551518D01*
X141371620Y-86551524D01*
X141403038Y-86682386D01*
X141425895Y-86777594D01*
X141427788Y-86782165D01*
X141427789Y-86782167D01*
X141510224Y-86981183D01*
X141516760Y-86996963D01*
X141519346Y-87001183D01*
X141638241Y-87195202D01*
X141638245Y-87195208D01*
X141640824Y-87199416D01*
X141795031Y-87379969D01*
X141798787Y-87383177D01*
X141798792Y-87383182D01*
X141917056Y-87484189D01*
X141955866Y-87543639D01*
X141956372Y-87614634D01*
X141917056Y-87675811D01*
X141798792Y-87776818D01*
X141798787Y-87776823D01*
X141795031Y-87780031D01*
X141640824Y-87960584D01*
X141638245Y-87964792D01*
X141638241Y-87964798D01*
X141532663Y-88137085D01*
X141516760Y-88163037D01*
X141514867Y-88167607D01*
X141514865Y-88167611D01*
X141430313Y-88371739D01*
X141425895Y-88382406D01*
X141406640Y-88462609D01*
X141373889Y-88599028D01*
X141370465Y-88613289D01*
X141351835Y-88850000D01*
X141370465Y-89086711D01*
X141371619Y-89091518D01*
X141371620Y-89091524D01*
X141406640Y-89237391D01*
X141425895Y-89317594D01*
X141427788Y-89322165D01*
X141427789Y-89322167D01*
X141512014Y-89525504D01*
X141516760Y-89536963D01*
X141519346Y-89541183D01*
X141638241Y-89735202D01*
X141638245Y-89735208D01*
X141640824Y-89739416D01*
X141795031Y-89919969D01*
X141798787Y-89923177D01*
X141798792Y-89923182D01*
X141917056Y-90024189D01*
X141955866Y-90083639D01*
X141956372Y-90154634D01*
X141917056Y-90215811D01*
X141798792Y-90316818D01*
X141798787Y-90316823D01*
X141795031Y-90320031D01*
X141791823Y-90323787D01*
X141655357Y-90483568D01*
X141640824Y-90500584D01*
X141599917Y-90567338D01*
X141547272Y-90614966D01*
X141492487Y-90627500D01*
X141288028Y-90627500D01*
X141219907Y-90607498D01*
X141198933Y-90590595D01*
X141134405Y-90526067D01*
X141100379Y-90463755D01*
X141097500Y-90436972D01*
X141097500Y-87062376D01*
X141098933Y-87043426D01*
X141101124Y-87029027D01*
X141101124Y-87029021D01*
X141102224Y-87021792D01*
X141100205Y-86996963D01*
X141097915Y-86968817D01*
X141097500Y-86958602D01*
X141097500Y-86950475D01*
X141094189Y-86922076D01*
X141093760Y-86917736D01*
X141088402Y-86851867D01*
X141087809Y-86844574D01*
X141085553Y-86837612D01*
X141084357Y-86831624D01*
X141082949Y-86825667D01*
X141082101Y-86818393D01*
X141079603Y-86811511D01*
X141079602Y-86811507D01*
X141057055Y-86749393D01*
X141055645Y-86745289D01*
X141033013Y-86675425D01*
X141029213Y-86669162D01*
X141026675Y-86663620D01*
X141023933Y-86658144D01*
X141021434Y-86651259D01*
X140981185Y-86589868D01*
X140978870Y-86586200D01*
X140940773Y-86523419D01*
X140933333Y-86514995D01*
X140933362Y-86514969D01*
X140930762Y-86512038D01*
X140927958Y-86508684D01*
X140923946Y-86502565D01*
X140867413Y-86449011D01*
X140864972Y-86446634D01*
X135841810Y-81423472D01*
X135829423Y-81409059D01*
X135820795Y-81397335D01*
X135816454Y-81391436D01*
X135775945Y-81357021D01*
X135768429Y-81350091D01*
X135762685Y-81344347D01*
X135759811Y-81342073D01*
X135759804Y-81342067D01*
X135740289Y-81326628D01*
X135736885Y-81323837D01*
X135686528Y-81281055D01*
X135686524Y-81281052D01*
X135680949Y-81276316D01*
X135674432Y-81272988D01*
X135669368Y-81269611D01*
X135664144Y-81266384D01*
X135658400Y-81261840D01*
X135595799Y-81232582D01*
X135591918Y-81230768D01*
X135587967Y-81228837D01*
X135529117Y-81198787D01*
X135522596Y-81195457D01*
X135515481Y-81193716D01*
X135509735Y-81191579D01*
X135503952Y-81189655D01*
X135497321Y-81186556D01*
X135425443Y-81171606D01*
X135421171Y-81170639D01*
X135349888Y-81153196D01*
X135344289Y-81152849D01*
X135344285Y-81152848D01*
X135338670Y-81152500D01*
X135338672Y-81152461D01*
X135334771Y-81152228D01*
X135330412Y-81151839D01*
X135323244Y-81150348D01*
X135315927Y-81150546D01*
X135245423Y-81152454D01*
X135242014Y-81152500D01*
X130639876Y-81152500D01*
X130620926Y-81151067D01*
X130606527Y-81148876D01*
X130606523Y-81148876D01*
X130599293Y-81147776D01*
X130592001Y-81148369D01*
X130591998Y-81148369D01*
X130546314Y-81152085D01*
X130536100Y-81152500D01*
X130527975Y-81152500D01*
X130524340Y-81152924D01*
X130524337Y-81152924D01*
X130510565Y-81154530D01*
X130499610Y-81155807D01*
X130495239Y-81156240D01*
X130422074Y-81162190D01*
X130415117Y-81164444D01*
X130409163Y-81165633D01*
X130403165Y-81167051D01*
X130395893Y-81167899D01*
X130326883Y-81192948D01*
X130322770Y-81194360D01*
X130288316Y-81205522D01*
X130259886Y-81214732D01*
X130259884Y-81214733D01*
X130252926Y-81216987D01*
X130246673Y-81220782D01*
X130241113Y-81223327D01*
X130235639Y-81226069D01*
X130228759Y-81228566D01*
X130193243Y-81251851D01*
X130167376Y-81268810D01*
X130163658Y-81271156D01*
X130100920Y-81309227D01*
X130092495Y-81316667D01*
X130092470Y-81316638D01*
X130089544Y-81319234D01*
X130086190Y-81322039D01*
X130080065Y-81326054D01*
X130075030Y-81331369D01*
X130075029Y-81331370D01*
X130026512Y-81382586D01*
X130024134Y-81385028D01*
X129971345Y-81437817D01*
X129909033Y-81471843D01*
X129852837Y-81471241D01*
X129824954Y-81464547D01*
X129781524Y-81454120D01*
X129781518Y-81454119D01*
X129776711Y-81452965D01*
X129540000Y-81434335D01*
X129303289Y-81452965D01*
X129298482Y-81454119D01*
X129298476Y-81454120D01*
X129158553Y-81487713D01*
X129072406Y-81508395D01*
X129067835Y-81510288D01*
X129067833Y-81510289D01*
X128857611Y-81597365D01*
X128857607Y-81597367D01*
X128853037Y-81599260D01*
X128848817Y-81601846D01*
X128654798Y-81720741D01*
X128654792Y-81720745D01*
X128650584Y-81723324D01*
X128470031Y-81877531D01*
X128466823Y-81881287D01*
X128455439Y-81894616D01*
X128315824Y-82058084D01*
X128313245Y-82062292D01*
X128313241Y-82062298D01*
X128223941Y-82208023D01*
X128191760Y-82260537D01*
X128189867Y-82265107D01*
X128189865Y-82265111D01*
X128102789Y-82475333D01*
X128100895Y-82479906D01*
X128099740Y-82484718D01*
X128048048Y-82700031D01*
X128045465Y-82710789D01*
X128026835Y-82947500D01*
X121751971Y-82947500D01*
X121874176Y-82804416D01*
X121876755Y-82800208D01*
X121876759Y-82800202D01*
X121995654Y-82606183D01*
X121998240Y-82601963D01*
X122000789Y-82595811D01*
X122087211Y-82387167D01*
X122087212Y-82387165D01*
X122089105Y-82382594D01*
X122119200Y-82257240D01*
X122143380Y-82156524D01*
X122143381Y-82156518D01*
X122144535Y-82151711D01*
X122163165Y-81915000D01*
X122144535Y-81678289D01*
X122141959Y-81667557D01*
X122090717Y-81454120D01*
X122089105Y-81447406D01*
X122073221Y-81409059D01*
X122000135Y-81232611D01*
X122000133Y-81232607D01*
X121998240Y-81228037D01*
X121990087Y-81214732D01*
X121876759Y-81029798D01*
X121876755Y-81029792D01*
X121874176Y-81025584D01*
X121719969Y-80845031D01*
X121539416Y-80690824D01*
X121535208Y-80688245D01*
X121535202Y-80688241D01*
X121341183Y-80569346D01*
X121336963Y-80566760D01*
X121332393Y-80564867D01*
X121332389Y-80564865D01*
X121122167Y-80477789D01*
X121122165Y-80477788D01*
X121117594Y-80475895D01*
X121002557Y-80448277D01*
X120891524Y-80421620D01*
X120891518Y-80421619D01*
X120886711Y-80420465D01*
X120650000Y-80401835D01*
X120413289Y-80420465D01*
X120408482Y-80421619D01*
X120408476Y-80421620D01*
X120297443Y-80448277D01*
X120182406Y-80475895D01*
X120177835Y-80477788D01*
X120177833Y-80477789D01*
X119967611Y-80564865D01*
X119967607Y-80564867D01*
X119963037Y-80566760D01*
X119958817Y-80569346D01*
X119764798Y-80688241D01*
X119764792Y-80688245D01*
X119760584Y-80690824D01*
X119580031Y-80845031D01*
X119425824Y-81025584D01*
X119423245Y-81029792D01*
X119423241Y-81029798D01*
X119309913Y-81214732D01*
X119301760Y-81228037D01*
X119299867Y-81232607D01*
X119299865Y-81232611D01*
X119254042Y-81343240D01*
X119210895Y-81447406D01*
X119209916Y-81451482D01*
X119169964Y-81509914D01*
X119104568Y-81537552D01*
X119034611Y-81525448D01*
X118982304Y-81477443D01*
X118964590Y-81402488D01*
X118977777Y-81234930D01*
X118978165Y-81230000D01*
X118959535Y-80993289D01*
X118936091Y-80895635D01*
X118905260Y-80767218D01*
X118904105Y-80762406D01*
X118901671Y-80756529D01*
X118815135Y-80547611D01*
X118815133Y-80547607D01*
X118813240Y-80543037D01*
X118810654Y-80538817D01*
X118691759Y-80344798D01*
X118691755Y-80344792D01*
X118689176Y-80340584D01*
X118534969Y-80160031D01*
X118531213Y-80156823D01*
X118531208Y-80156818D01*
X118412944Y-80055811D01*
X118374134Y-79996361D01*
X118373628Y-79925366D01*
X118412944Y-79864189D01*
X118531208Y-79763182D01*
X118531213Y-79763177D01*
X118534969Y-79759969D01*
X118689176Y-79579416D01*
X118691755Y-79575208D01*
X118691759Y-79575202D01*
X118810654Y-79381183D01*
X118813240Y-79376963D01*
X118820673Y-79359020D01*
X118902211Y-79162167D01*
X118902212Y-79162165D01*
X118904105Y-79157594D01*
X118936433Y-79022939D01*
X118958380Y-78931524D01*
X118958381Y-78931518D01*
X118959535Y-78926711D01*
X118978165Y-78690000D01*
X118959535Y-78453289D01*
X118947962Y-78405081D01*
X118915364Y-78269305D01*
X118904105Y-78222406D01*
X118888250Y-78184129D01*
X118815135Y-78007611D01*
X118815133Y-78007607D01*
X118813240Y-78003037D01*
X118773136Y-77937594D01*
X118691759Y-77804798D01*
X118691755Y-77804792D01*
X118689176Y-77800584D01*
X118534969Y-77620031D01*
X118531213Y-77616823D01*
X118531208Y-77616818D01*
X118412944Y-77515811D01*
X118374134Y-77456361D01*
X118373628Y-77385366D01*
X118412944Y-77324189D01*
X118531208Y-77223182D01*
X118531213Y-77223177D01*
X118534969Y-77219969D01*
X118689176Y-77039416D01*
X118691755Y-77035208D01*
X118691759Y-77035202D01*
X118810654Y-76841183D01*
X118813240Y-76836963D01*
X118904105Y-76617594D01*
X118923360Y-76537391D01*
X118958380Y-76391524D01*
X118958381Y-76391518D01*
X118959535Y-76386711D01*
X118978165Y-76150000D01*
X118959535Y-75913289D01*
X118952144Y-75882500D01*
X118917523Y-75738295D01*
X118904105Y-75682406D01*
X118821615Y-75483255D01*
X118815135Y-75467611D01*
X118815133Y-75467607D01*
X118813240Y-75463037D01*
X118714474Y-75301866D01*
X118691759Y-75264798D01*
X118691755Y-75264792D01*
X118689176Y-75260584D01*
X118534969Y-75080031D01*
X118531213Y-75076823D01*
X118531208Y-75076818D01*
X118412944Y-74975811D01*
X118374134Y-74916361D01*
X118373628Y-74845366D01*
X118412944Y-74784189D01*
X118531208Y-74683182D01*
X118531213Y-74683177D01*
X118534969Y-74679969D01*
X118689176Y-74499416D01*
X118691755Y-74495208D01*
X118691759Y-74495202D01*
X118810654Y-74301183D01*
X118813240Y-74296963D01*
X118904105Y-74077594D01*
X118959535Y-73846711D01*
X118978165Y-73610000D01*
X118959535Y-73373289D01*
X118955406Y-73356087D01*
X118905260Y-73147218D01*
X118904105Y-73142406D01*
X118868433Y-73056285D01*
X118815135Y-72927611D01*
X118815133Y-72927607D01*
X118813240Y-72923037D01*
X118810654Y-72918817D01*
X118691759Y-72724798D01*
X118691755Y-72724792D01*
X118689176Y-72720584D01*
X118534969Y-72540031D01*
X118531213Y-72536823D01*
X118531208Y-72536818D01*
X118412944Y-72435811D01*
X118374134Y-72376361D01*
X118373628Y-72305366D01*
X118412944Y-72244189D01*
X118531208Y-72143182D01*
X118531213Y-72143177D01*
X118534969Y-72139969D01*
X118689176Y-71959416D01*
X118691755Y-71955208D01*
X118691759Y-71955202D01*
X118810654Y-71761183D01*
X118813240Y-71756963D01*
X118904105Y-71537594D01*
X118959535Y-71306711D01*
X118978165Y-71070000D01*
X118959535Y-70833289D01*
X118904105Y-70602406D01*
X118813240Y-70383037D01*
X118810654Y-70378817D01*
X118691759Y-70184798D01*
X118691755Y-70184792D01*
X118689176Y-70180584D01*
X118534969Y-70000031D01*
X118531213Y-69996823D01*
X118531208Y-69996818D01*
X118412944Y-69895811D01*
X118374134Y-69836361D01*
X118373628Y-69765366D01*
X118412944Y-69704189D01*
X118531208Y-69603182D01*
X118531213Y-69603177D01*
X118534969Y-69599969D01*
X118689176Y-69419416D01*
X118691755Y-69415208D01*
X118691759Y-69415202D01*
X118810654Y-69221183D01*
X118813240Y-69216963D01*
X118820673Y-69199020D01*
X118902211Y-69002167D01*
X118902212Y-69002165D01*
X118904105Y-68997594D01*
X118959535Y-68766711D01*
X118978165Y-68530000D01*
X118959535Y-68293289D01*
X118933091Y-68183139D01*
X118905260Y-68067218D01*
X118904105Y-68062406D01*
X118849879Y-67931492D01*
X118815135Y-67847611D01*
X118815133Y-67847607D01*
X118813240Y-67843037D01*
X118810654Y-67838817D01*
X118691759Y-67644798D01*
X118691755Y-67644792D01*
X118689176Y-67640584D01*
X118534969Y-67460031D01*
X118531213Y-67456823D01*
X118531208Y-67456818D01*
X118412944Y-67355811D01*
X118374134Y-67296361D01*
X118373628Y-67225366D01*
X118412944Y-67164189D01*
X118531208Y-67063182D01*
X118531213Y-67063177D01*
X118534969Y-67059969D01*
X118689176Y-66879416D01*
X118691755Y-66875208D01*
X118691759Y-66875202D01*
X118810654Y-66681183D01*
X118813240Y-66676963D01*
X118819263Y-66662424D01*
X118902211Y-66462167D01*
X118902212Y-66462165D01*
X118904105Y-66457594D01*
X118937396Y-66318926D01*
X118958380Y-66231524D01*
X118958381Y-66231518D01*
X118959535Y-66226711D01*
X118978165Y-65990000D01*
X118959535Y-65753289D01*
X118904105Y-65522406D01*
X118902211Y-65517833D01*
X118815135Y-65307611D01*
X118815133Y-65307607D01*
X118813240Y-65303037D01*
X118810654Y-65298817D01*
X118691759Y-65104798D01*
X118691755Y-65104792D01*
X118689176Y-65100584D01*
X118534969Y-64920031D01*
X118531213Y-64916823D01*
X118531208Y-64916818D01*
X118412944Y-64815811D01*
X118374134Y-64756361D01*
X118373628Y-64685366D01*
X118412944Y-64624189D01*
X118531208Y-64523182D01*
X118531213Y-64523177D01*
X118534969Y-64519969D01*
X118689176Y-64339416D01*
X118691755Y-64335208D01*
X118691759Y-64335202D01*
X118810654Y-64141183D01*
X118813240Y-64136963D01*
X118815872Y-64130610D01*
X118902211Y-63922167D01*
X118902212Y-63922165D01*
X118904105Y-63917594D01*
X118936457Y-63782837D01*
X118958380Y-63691524D01*
X118958381Y-63691518D01*
X118959535Y-63686711D01*
X118978165Y-63450000D01*
X118959535Y-63213289D01*
X118945373Y-63154297D01*
X118905260Y-62987218D01*
X118904105Y-62982406D01*
X118895121Y-62960717D01*
X118815135Y-62767611D01*
X118815133Y-62767607D01*
X118813240Y-62763037D01*
X118753014Y-62664757D01*
X118691759Y-62564798D01*
X118691755Y-62564792D01*
X118689176Y-62560584D01*
X118534969Y-62380031D01*
X118531213Y-62376823D01*
X118531208Y-62376818D01*
X118412944Y-62275811D01*
X118374134Y-62216361D01*
X118373628Y-62145366D01*
X118412944Y-62084189D01*
X118531208Y-61983182D01*
X118531213Y-61983177D01*
X118534969Y-61979969D01*
X118689176Y-61799416D01*
X118691755Y-61795208D01*
X118691759Y-61795202D01*
X118810654Y-61601183D01*
X118813240Y-61596963D01*
X118904105Y-61377594D01*
X118933275Y-61256093D01*
X118958380Y-61151524D01*
X118958381Y-61151518D01*
X118959535Y-61146711D01*
X118978165Y-60910000D01*
X118959535Y-60673289D01*
X118904105Y-60442406D01*
X118813240Y-60223037D01*
X118714474Y-60061866D01*
X118691759Y-60024798D01*
X118691755Y-60024792D01*
X118689176Y-60020584D01*
X118534969Y-59840031D01*
X118531213Y-59836823D01*
X118531208Y-59836818D01*
X118412944Y-59735811D01*
X118374134Y-59676361D01*
X118373628Y-59605366D01*
X118412944Y-59544189D01*
X118531208Y-59443182D01*
X118531213Y-59443177D01*
X118534969Y-59439969D01*
X118543483Y-59430000D01*
X121385000Y-59430000D01*
X139075000Y-59430000D01*
X139075000Y-52940000D01*
X121385000Y-52940000D01*
X121385000Y-59430000D01*
X118543483Y-59430000D01*
X118689176Y-59259416D01*
X118691755Y-59255208D01*
X118691759Y-59255202D01*
X118810654Y-59061183D01*
X118813240Y-59056963D01*
X118904105Y-58837594D01*
X118959535Y-58606711D01*
X118978165Y-58370000D01*
X118959535Y-58133289D01*
X118904105Y-57902406D01*
X118813240Y-57683037D01*
X118810654Y-57678817D01*
X118691759Y-57484798D01*
X118691755Y-57484792D01*
X118689176Y-57480584D01*
X118534969Y-57300031D01*
X118354416Y-57145824D01*
X118350196Y-57143238D01*
X118330974Y-57131458D01*
X118283343Y-57078810D01*
X118271737Y-57008768D01*
X118299841Y-56943571D01*
X118358732Y-56903918D01*
X118370608Y-56900780D01*
X118489970Y-56875409D01*
X118494099Y-56873906D01*
X118494103Y-56873905D01*
X118749781Y-56780846D01*
X118749785Y-56780844D01*
X118753926Y-56779337D01*
X119001942Y-56647464D01*
X119106896Y-56571211D01*
X119225629Y-56484947D01*
X119225632Y-56484944D01*
X119229192Y-56482358D01*
X119431252Y-56287231D01*
X119604188Y-56065882D01*
X119606384Y-56062078D01*
X119606389Y-56062071D01*
X119742435Y-55826431D01*
X119744636Y-55822619D01*
X119849862Y-55562176D01*
X119883544Y-55427087D01*
X119916753Y-55293893D01*
X119916754Y-55293888D01*
X119917817Y-55289624D01*
X119947178Y-55010267D01*
X119947025Y-55005873D01*
X119937529Y-54733939D01*
X119937528Y-54733933D01*
X119937375Y-54729542D01*
X119914561Y-54600154D01*
X119889360Y-54457236D01*
X119888598Y-54452913D01*
X119801797Y-54185765D01*
X119678660Y-53933298D01*
X119676205Y-53929659D01*
X119676202Y-53929653D01*
X119595935Y-53810653D01*
X119521585Y-53700424D01*
X119333629Y-53491678D01*
X119309555Y-53471477D01*
X119121820Y-53313949D01*
X119118450Y-53311121D01*
X118880236Y-53162269D01*
X118623625Y-53048018D01*
X118419170Y-52989392D01*
X118357837Y-52971805D01*
X118357836Y-52971805D01*
X118353610Y-52970593D01*
X118349260Y-52969982D01*
X118349257Y-52969981D01*
X118232328Y-52953548D01*
X118075448Y-52931500D01*
X117864854Y-52931500D01*
X117862668Y-52931653D01*
X117862664Y-52931653D01*
X117659173Y-52945882D01*
X117659168Y-52945883D01*
X117654788Y-52946189D01*
X117380030Y-53004591D01*
X117375901Y-53006094D01*
X117375897Y-53006095D01*
X117120219Y-53099154D01*
X117120215Y-53099156D01*
X117116074Y-53100663D01*
X116868058Y-53232536D01*
X116864499Y-53235122D01*
X116864497Y-53235123D01*
X116759895Y-53311121D01*
X116640808Y-53397642D01*
X116438748Y-53592769D01*
X116265812Y-53814118D01*
X116263616Y-53817922D01*
X116263611Y-53817929D01*
X116160778Y-53996042D01*
X116125364Y-54057381D01*
X116020138Y-54317824D01*
X116019073Y-54322097D01*
X116019072Y-54322099D01*
X115985379Y-54457236D01*
X115952183Y-54590376D01*
X115922822Y-54869733D01*
X115922975Y-54874121D01*
X115922975Y-54874127D01*
X115923599Y-54891971D01*
X115932625Y-55150458D01*
X115933387Y-55154781D01*
X115933388Y-55154788D01*
X115957164Y-55289624D01*
X115981402Y-55427087D01*
X116068203Y-55694235D01*
X116191340Y-55946702D01*
X116193795Y-55950341D01*
X116193798Y-55950347D01*
X116251071Y-56035257D01*
X116348415Y-56179576D01*
X116536371Y-56388322D01*
X116751550Y-56568879D01*
X116755282Y-56571211D01*
X116989764Y-56717731D01*
X116988715Y-56719409D01*
X117033687Y-56763378D01*
X117049560Y-56832577D01*
X117025502Y-56899373D01*
X116972006Y-56941416D01*
X116782611Y-57019865D01*
X116782607Y-57019867D01*
X116778037Y-57021760D01*
X116773817Y-57024346D01*
X116579798Y-57143241D01*
X116579792Y-57143245D01*
X116575584Y-57145824D01*
X116395031Y-57300031D01*
X116240824Y-57480584D01*
X116238245Y-57484792D01*
X116238241Y-57484798D01*
X116119346Y-57678817D01*
X116116760Y-57683037D01*
X116025895Y-57902406D01*
X115970465Y-58133289D01*
X115951835Y-58370000D01*
X115970465Y-58606711D01*
X116025895Y-58837594D01*
X116116760Y-59056963D01*
X116119346Y-59061183D01*
X116238241Y-59255202D01*
X116238245Y-59255208D01*
X116240824Y-59259416D01*
X116395031Y-59439969D01*
X116398787Y-59443177D01*
X116398792Y-59443182D01*
X116517056Y-59544189D01*
X116555866Y-59603639D01*
X116556372Y-59674634D01*
X116517056Y-59735811D01*
X116398792Y-59836818D01*
X116398787Y-59836823D01*
X116395031Y-59840031D01*
X116240824Y-60020584D01*
X116238245Y-60024792D01*
X116238241Y-60024798D01*
X116215526Y-60061866D01*
X116116760Y-60223037D01*
X116025895Y-60442406D01*
X115970465Y-60673289D01*
X115951835Y-60910000D01*
X115970465Y-61146711D01*
X115971619Y-61151518D01*
X115971620Y-61151524D01*
X115996725Y-61256093D01*
X116025895Y-61377594D01*
X116116760Y-61596963D01*
X116119346Y-61601183D01*
X116238241Y-61795202D01*
X116238245Y-61795208D01*
X116240824Y-61799416D01*
X116395031Y-61979969D01*
X116398787Y-61983177D01*
X116398792Y-61983182D01*
X116517056Y-62084189D01*
X116555866Y-62143639D01*
X116556372Y-62214634D01*
X116517056Y-62275811D01*
X116398792Y-62376818D01*
X116398787Y-62376823D01*
X116395031Y-62380031D01*
X116240824Y-62560584D01*
X116238245Y-62564792D01*
X116238241Y-62564798D01*
X116176986Y-62664757D01*
X116116760Y-62763037D01*
X116114867Y-62767607D01*
X116114865Y-62767611D01*
X116034879Y-62960717D01*
X116025895Y-62982406D01*
X116024740Y-62987218D01*
X115984628Y-63154297D01*
X115970465Y-63213289D01*
X115951835Y-63450000D01*
X115970465Y-63686711D01*
X115971619Y-63691518D01*
X115971620Y-63691524D01*
X115993543Y-63782837D01*
X116025895Y-63917594D01*
X116027788Y-63922165D01*
X116027789Y-63922167D01*
X116114129Y-64130610D01*
X116116760Y-64136963D01*
X116119346Y-64141183D01*
X116238241Y-64335202D01*
X116238245Y-64335208D01*
X116240824Y-64339416D01*
X116395031Y-64519969D01*
X116398787Y-64523177D01*
X116398792Y-64523182D01*
X116517056Y-64624189D01*
X116555866Y-64683639D01*
X116556372Y-64754634D01*
X116517056Y-64815811D01*
X116398792Y-64916818D01*
X116398787Y-64916823D01*
X116395031Y-64920031D01*
X116240824Y-65100584D01*
X116238245Y-65104792D01*
X116238241Y-65104798D01*
X116119346Y-65298817D01*
X116116760Y-65303037D01*
X116114867Y-65307607D01*
X116114865Y-65307611D01*
X116027789Y-65517833D01*
X116025895Y-65522406D01*
X115970465Y-65753289D01*
X115951835Y-65990000D01*
X115970465Y-66226711D01*
X115971619Y-66231518D01*
X115971620Y-66231524D01*
X115992604Y-66318926D01*
X116025895Y-66457594D01*
X116027788Y-66462165D01*
X116027789Y-66462167D01*
X116110738Y-66662424D01*
X116116760Y-66676963D01*
X116119346Y-66681183D01*
X116238241Y-66875202D01*
X116238245Y-66875208D01*
X116240824Y-66879416D01*
X116395031Y-67059969D01*
X116398787Y-67063177D01*
X116398792Y-67063182D01*
X116517056Y-67164189D01*
X116555866Y-67223639D01*
X116556372Y-67294634D01*
X116517056Y-67355811D01*
X116398792Y-67456818D01*
X116398787Y-67456823D01*
X116395031Y-67460031D01*
X116240824Y-67640584D01*
X116238245Y-67644792D01*
X116238241Y-67644798D01*
X116119346Y-67838817D01*
X116116760Y-67843037D01*
X116114867Y-67847607D01*
X116114865Y-67847611D01*
X116080121Y-67931492D01*
X116025895Y-68062406D01*
X116024740Y-68067218D01*
X115996910Y-68183139D01*
X115970465Y-68293289D01*
X115951835Y-68530000D01*
X115970465Y-68766711D01*
X116025895Y-68997594D01*
X116027788Y-69002165D01*
X116027789Y-69002167D01*
X116109328Y-69199020D01*
X116116760Y-69216963D01*
X116119346Y-69221183D01*
X116238241Y-69415202D01*
X116238245Y-69415208D01*
X116240824Y-69419416D01*
X116395031Y-69599969D01*
X116398787Y-69603177D01*
X116398792Y-69603182D01*
X116517056Y-69704189D01*
X116555866Y-69763639D01*
X116556372Y-69834634D01*
X116517056Y-69895811D01*
X116398792Y-69996818D01*
X116398787Y-69996823D01*
X116395031Y-70000031D01*
X116240824Y-70180584D01*
X116238245Y-70184792D01*
X116238241Y-70184798D01*
X116119346Y-70378817D01*
X116116760Y-70383037D01*
X116025895Y-70602406D01*
X115970465Y-70833289D01*
X115951835Y-71070000D01*
X115970465Y-71306711D01*
X116025895Y-71537594D01*
X116116760Y-71756963D01*
X116119346Y-71761183D01*
X116238241Y-71955202D01*
X116238245Y-71955208D01*
X116240824Y-71959416D01*
X116395031Y-72139969D01*
X116398787Y-72143177D01*
X116398792Y-72143182D01*
X116517056Y-72244189D01*
X116555866Y-72303639D01*
X116556372Y-72374634D01*
X116517056Y-72435811D01*
X116398792Y-72536818D01*
X116398787Y-72536823D01*
X116395031Y-72540031D01*
X116240824Y-72720584D01*
X116238245Y-72724792D01*
X116238241Y-72724798D01*
X116119346Y-72918817D01*
X116116760Y-72923037D01*
X116114867Y-72927607D01*
X116114865Y-72927611D01*
X116061567Y-73056285D01*
X116025895Y-73142406D01*
X116024740Y-73147218D01*
X115974595Y-73356087D01*
X115970465Y-73373289D01*
X115951835Y-73610000D01*
X115970465Y-73846711D01*
X116025895Y-74077594D01*
X116116760Y-74296963D01*
X116119346Y-74301183D01*
X116238241Y-74495202D01*
X116238245Y-74495208D01*
X116240824Y-74499416D01*
X116395031Y-74679969D01*
X116398787Y-74683177D01*
X116398792Y-74683182D01*
X116517056Y-74784189D01*
X116555866Y-74843639D01*
X116556372Y-74914634D01*
X116517056Y-74975811D01*
X116398792Y-75076818D01*
X116398787Y-75076823D01*
X116395031Y-75080031D01*
X116240824Y-75260584D01*
X116238245Y-75264792D01*
X116238241Y-75264798D01*
X116215526Y-75301866D01*
X116116760Y-75463037D01*
X116114867Y-75467607D01*
X116114865Y-75467611D01*
X116108385Y-75483255D01*
X116025895Y-75682406D01*
X116012477Y-75738295D01*
X115977857Y-75882500D01*
X115970465Y-75913289D01*
X115951835Y-76150000D01*
X115970465Y-76386711D01*
X115971619Y-76391518D01*
X115971620Y-76391524D01*
X116006640Y-76537391D01*
X116025895Y-76617594D01*
X116116760Y-76836963D01*
X116119346Y-76841183D01*
X116238241Y-77035202D01*
X116238245Y-77035208D01*
X116240824Y-77039416D01*
X116395031Y-77219969D01*
X116398787Y-77223177D01*
X116398792Y-77223182D01*
X116517056Y-77324189D01*
X116555866Y-77383639D01*
X116556372Y-77454634D01*
X116517056Y-77515811D01*
X116398792Y-77616818D01*
X116398787Y-77616823D01*
X116395031Y-77620031D01*
X116240824Y-77800584D01*
X116238245Y-77804792D01*
X116238241Y-77804798D01*
X116156864Y-77937594D01*
X116116760Y-78003037D01*
X116114867Y-78007607D01*
X116114865Y-78007611D01*
X116041750Y-78184129D01*
X116025895Y-78222406D01*
X116014636Y-78269305D01*
X115982039Y-78405081D01*
X115970465Y-78453289D01*
X115951835Y-78690000D01*
X115970465Y-78926711D01*
X115971619Y-78931518D01*
X115971620Y-78931524D01*
X115993567Y-79022939D01*
X116025895Y-79157594D01*
X116027788Y-79162165D01*
X116027789Y-79162167D01*
X116109328Y-79359020D01*
X116116760Y-79376963D01*
X116119346Y-79381183D01*
X116238241Y-79575202D01*
X116238245Y-79575208D01*
X116240824Y-79579416D01*
X116395031Y-79759969D01*
X116398787Y-79763177D01*
X116398792Y-79763182D01*
X116517056Y-79864189D01*
X116555866Y-79923639D01*
X116556372Y-79994634D01*
X116517056Y-80055811D01*
X116398792Y-80156818D01*
X116398787Y-80156823D01*
X116395031Y-80160031D01*
X116240824Y-80340584D01*
X116238245Y-80344792D01*
X116238241Y-80344798D01*
X116119346Y-80538817D01*
X116116760Y-80543037D01*
X116114867Y-80547607D01*
X116114865Y-80547611D01*
X116028329Y-80756529D01*
X116025895Y-80762406D01*
X116024740Y-80767218D01*
X115993910Y-80895635D01*
X115970465Y-80993289D01*
X115951835Y-81230000D01*
X115970465Y-81466711D01*
X115971619Y-81471518D01*
X115971620Y-81471524D01*
X115973828Y-81480720D01*
X116025895Y-81697594D01*
X116027788Y-81702165D01*
X116027789Y-81702167D01*
X116114558Y-81911646D01*
X116116760Y-81916963D01*
X116119346Y-81921183D01*
X116238241Y-82115202D01*
X116238245Y-82115208D01*
X116240824Y-82119416D01*
X116395031Y-82299969D01*
X116398787Y-82303177D01*
X116398792Y-82303182D01*
X116517056Y-82404189D01*
X116555866Y-82463639D01*
X116556372Y-82534634D01*
X116517056Y-82595811D01*
X116398792Y-82696818D01*
X116398787Y-82696823D01*
X116395031Y-82700031D01*
X116240824Y-82880584D01*
X116238245Y-82884792D01*
X116238241Y-82884798D01*
X116148261Y-83031632D01*
X116116760Y-83083037D01*
X116114867Y-83087607D01*
X116114865Y-83087611D01*
X116048893Y-83246883D01*
X116025895Y-83302406D01*
X116024740Y-83307218D01*
X115986636Y-83465933D01*
X115970465Y-83533289D01*
X115951835Y-83770000D01*
X115970465Y-84006711D01*
X115971619Y-84011518D01*
X115971620Y-84011524D01*
X116006640Y-84157391D01*
X116025895Y-84237594D01*
X116027788Y-84242165D01*
X116027789Y-84242167D01*
X116110577Y-84442035D01*
X116116760Y-84456963D01*
X116119346Y-84461183D01*
X116238241Y-84655202D01*
X116238245Y-84655208D01*
X116240824Y-84659416D01*
X116395031Y-84839969D01*
X116398787Y-84843177D01*
X116398792Y-84843182D01*
X116517056Y-84944189D01*
X116555866Y-85003639D01*
X116556372Y-85074634D01*
X116517056Y-85135811D01*
X116398792Y-85236818D01*
X116398787Y-85236823D01*
X116395031Y-85240031D01*
X116240824Y-85420584D01*
X116238245Y-85424792D01*
X116238241Y-85424798D01*
X116119346Y-85618817D01*
X116116760Y-85623037D01*
X116114867Y-85627607D01*
X116114865Y-85627611D01*
X116057600Y-85765862D01*
X116025895Y-85842406D01*
X116024740Y-85847218D01*
X115974595Y-86056087D01*
X115970465Y-86073289D01*
X115951835Y-86310000D01*
X115970465Y-86546711D01*
X115971619Y-86551518D01*
X115971620Y-86551524D01*
X116003038Y-86682386D01*
X116025895Y-86777594D01*
X116027788Y-86782165D01*
X116027789Y-86782167D01*
X116110224Y-86981183D01*
X116116760Y-86996963D01*
X116119346Y-87001183D01*
X116238241Y-87195202D01*
X116238245Y-87195208D01*
X116240824Y-87199416D01*
X116395031Y-87379969D01*
X116398787Y-87383177D01*
X116398792Y-87383182D01*
X116517056Y-87484189D01*
X116555866Y-87543639D01*
X116556372Y-87614634D01*
X116517056Y-87675811D01*
X116398792Y-87776818D01*
X116398787Y-87776823D01*
X116395031Y-87780031D01*
X116240824Y-87960584D01*
X116238245Y-87964792D01*
X116238241Y-87964798D01*
X116132663Y-88137085D01*
X116116760Y-88163037D01*
X116114867Y-88167607D01*
X116114865Y-88167611D01*
X116030313Y-88371739D01*
X116025895Y-88382406D01*
X115989721Y-88533084D01*
X115983525Y-88558892D01*
X115948173Y-88620461D01*
X115885146Y-88653144D01*
X115814455Y-88646564D01*
X115771911Y-88618573D01*
X113829405Y-86676067D01*
X113795379Y-86613755D01*
X113792500Y-86586972D01*
X113792500Y-78842513D01*
X113812502Y-78774392D01*
X113852661Y-78735084D01*
X113919416Y-78694176D01*
X113923178Y-78690963D01*
X114096213Y-78543177D01*
X114099969Y-78539969D01*
X114254176Y-78359416D01*
X114256755Y-78355208D01*
X114256759Y-78355202D01*
X114375654Y-78161183D01*
X114378240Y-78156963D01*
X114385829Y-78138643D01*
X114467211Y-77942167D01*
X114467212Y-77942165D01*
X114469105Y-77937594D01*
X114488360Y-77857391D01*
X114523380Y-77711524D01*
X114523381Y-77711518D01*
X114524535Y-77706711D01*
X114543165Y-77470000D01*
X114524535Y-77233289D01*
X114521338Y-77219969D01*
X114477990Y-77039416D01*
X114469105Y-77002406D01*
X114378240Y-76783037D01*
X114375654Y-76778817D01*
X114256759Y-76584798D01*
X114256755Y-76584792D01*
X114254176Y-76580584D01*
X114099969Y-76400031D01*
X113919416Y-76245824D01*
X113915208Y-76243245D01*
X113915202Y-76243241D01*
X113721183Y-76124346D01*
X113716963Y-76121760D01*
X113712393Y-76119867D01*
X113712389Y-76119865D01*
X113502167Y-76032789D01*
X113502165Y-76032788D01*
X113497594Y-76030895D01*
X113417391Y-76011640D01*
X113271524Y-75976620D01*
X113271518Y-75976619D01*
X113266711Y-75975465D01*
X113030000Y-75956835D01*
X112793289Y-75975465D01*
X112788482Y-75976619D01*
X112788476Y-75976620D01*
X112642609Y-76011640D01*
X112562406Y-76030895D01*
X112557835Y-76032788D01*
X112557833Y-76032789D01*
X112347611Y-76119865D01*
X112347607Y-76119867D01*
X112343037Y-76121760D01*
X112338817Y-76124346D01*
X112144798Y-76243241D01*
X112144792Y-76243245D01*
X112140584Y-76245824D01*
X111960031Y-76400031D01*
X111805824Y-76580584D01*
X111803245Y-76584792D01*
X111803241Y-76584798D01*
X111684346Y-76778817D01*
X111681760Y-76783037D01*
X111590895Y-77002406D01*
X111582010Y-77039416D01*
X111538663Y-77219969D01*
X111535465Y-77233289D01*
X111516835Y-77470000D01*
X111535465Y-77706711D01*
X111536619Y-77711518D01*
X111536620Y-77711524D01*
X111571640Y-77857391D01*
X111590895Y-77937594D01*
X111592788Y-77942165D01*
X111592789Y-77942167D01*
X111674172Y-78138643D01*
X111681760Y-78156963D01*
X111684346Y-78161183D01*
X111803241Y-78355202D01*
X111803245Y-78355208D01*
X111805824Y-78359416D01*
X111960031Y-78539969D01*
X111963787Y-78543177D01*
X112136822Y-78690963D01*
X112140584Y-78694176D01*
X112207338Y-78735083D01*
X112254966Y-78787728D01*
X112267500Y-78842513D01*
X112267500Y-86887624D01*
X112266067Y-86906574D01*
X112263876Y-86920973D01*
X112263876Y-86920979D01*
X112262776Y-86928208D01*
X112263369Y-86935500D01*
X112263369Y-86935503D01*
X112267085Y-86981183D01*
X112267500Y-86991398D01*
X112267500Y-86999525D01*
X112270811Y-87027924D01*
X112271238Y-87032244D01*
X112277191Y-87105426D01*
X112279447Y-87112388D01*
X112280643Y-87118376D01*
X112282051Y-87124333D01*
X112282899Y-87131607D01*
X112285397Y-87138489D01*
X112285398Y-87138493D01*
X112307945Y-87200607D01*
X112309355Y-87204711D01*
X112331987Y-87274575D01*
X112335787Y-87280838D01*
X112338325Y-87286380D01*
X112341067Y-87291856D01*
X112343566Y-87298741D01*
X112347581Y-87304865D01*
X112383815Y-87360132D01*
X112386130Y-87363800D01*
X112424227Y-87426581D01*
X112427941Y-87430786D01*
X112427943Y-87430789D01*
X112431667Y-87435005D01*
X112431638Y-87435031D01*
X112434238Y-87437962D01*
X112437042Y-87441316D01*
X112441054Y-87447435D01*
X112446366Y-87452467D01*
X112497586Y-87500988D01*
X112500028Y-87503366D01*
X115409067Y-90412405D01*
X115443093Y-90474717D01*
X115438028Y-90545532D01*
X115395481Y-90602368D01*
X115328961Y-90627179D01*
X115319972Y-90627500D01*
X115052376Y-90627500D01*
X115033426Y-90626067D01*
X115019027Y-90623876D01*
X115019023Y-90623876D01*
X115011793Y-90622776D01*
X115004501Y-90623369D01*
X115004498Y-90623369D01*
X114958814Y-90627085D01*
X114948600Y-90627500D01*
X114940475Y-90627500D01*
X114936840Y-90627924D01*
X114936837Y-90627924D01*
X114918911Y-90630014D01*
X114912110Y-90630807D01*
X114907739Y-90631240D01*
X114834574Y-90637190D01*
X114827613Y-90639445D01*
X114821656Y-90640635D01*
X114815665Y-90642051D01*
X114808393Y-90642899D01*
X114801516Y-90645395D01*
X114801513Y-90645396D01*
X114739402Y-90667942D01*
X114735248Y-90669368D01*
X114665425Y-90691987D01*
X114659163Y-90695787D01*
X114653620Y-90698325D01*
X114648144Y-90701067D01*
X114641259Y-90703566D01*
X114635135Y-90707581D01*
X114579868Y-90743815D01*
X114576200Y-90746130D01*
X114513419Y-90784227D01*
X114509214Y-90787941D01*
X114509211Y-90787943D01*
X114504995Y-90791667D01*
X114504969Y-90791638D01*
X114502038Y-90794238D01*
X114498684Y-90797042D01*
X114492565Y-90801054D01*
X114487533Y-90806366D01*
X114439012Y-90857586D01*
X114436634Y-90860028D01*
X109507067Y-95789595D01*
X109444755Y-95823621D01*
X109417972Y-95826500D01*
X107711866Y-95826500D01*
X107649684Y-95833255D01*
X107513295Y-95884385D01*
X107396739Y-95971739D01*
X107309385Y-96088295D01*
X107258255Y-96224684D01*
X107251500Y-96286866D01*
X107251500Y-97127657D01*
X107231498Y-97195778D01*
X107177842Y-97242271D01*
X107107568Y-97252375D01*
X107042988Y-97222881D01*
X107036405Y-97216752D01*
X106742805Y-96923152D01*
X106708779Y-96860840D01*
X106705900Y-96834057D01*
X106705900Y-90791695D01*
X107247251Y-90791695D01*
X107247548Y-90796848D01*
X107247548Y-90796851D01*
X107258201Y-90981607D01*
X107260110Y-91014715D01*
X107261247Y-91019761D01*
X107261248Y-91019767D01*
X107268661Y-91052659D01*
X107309222Y-91232639D01*
X107393266Y-91439616D01*
X107509987Y-91630088D01*
X107656250Y-91798938D01*
X107828126Y-91941632D01*
X108021000Y-92054338D01*
X108025825Y-92056180D01*
X108025826Y-92056181D01*
X108090891Y-92081027D01*
X108229692Y-92134030D01*
X108234760Y-92135061D01*
X108234763Y-92135062D01*
X108331052Y-92154652D01*
X108448597Y-92178567D01*
X108453772Y-92178757D01*
X108453774Y-92178757D01*
X108666673Y-92186564D01*
X108666677Y-92186564D01*
X108671837Y-92186753D01*
X108676957Y-92186097D01*
X108676959Y-92186097D01*
X108888288Y-92159025D01*
X108888289Y-92159025D01*
X108893416Y-92158368D01*
X108911592Y-92152915D01*
X109102429Y-92095661D01*
X109102434Y-92095659D01*
X109107384Y-92094174D01*
X109307994Y-91995896D01*
X109489860Y-91866173D01*
X109648096Y-91708489D01*
X109707594Y-91625689D01*
X109775435Y-91531277D01*
X109778453Y-91527077D01*
X109786939Y-91509908D01*
X109875136Y-91331453D01*
X109875137Y-91331451D01*
X109877430Y-91326811D01*
X109942370Y-91113069D01*
X109971529Y-90891590D01*
X109972646Y-90845862D01*
X109973074Y-90828365D01*
X109973074Y-90828361D01*
X109973156Y-90825000D01*
X109954852Y-90602361D01*
X109900431Y-90385702D01*
X109811354Y-90180840D01*
X109710012Y-90024189D01*
X109692822Y-89997617D01*
X109692820Y-89997614D01*
X109690014Y-89993277D01*
X109686532Y-89989450D01*
X109542798Y-89831488D01*
X109511746Y-89767642D01*
X109520141Y-89697143D01*
X109565317Y-89642375D01*
X109591761Y-89628706D01*
X109698297Y-89588767D01*
X109706705Y-89585615D01*
X109823261Y-89498261D01*
X109910615Y-89381705D01*
X109961745Y-89245316D01*
X109968500Y-89183134D01*
X109968500Y-87386866D01*
X109961745Y-87324684D01*
X109910615Y-87188295D01*
X109823261Y-87071739D01*
X109706705Y-86984385D01*
X109570316Y-86933255D01*
X109508134Y-86926500D01*
X107711866Y-86926500D01*
X107649684Y-86933255D01*
X107513295Y-86984385D01*
X107396739Y-87071739D01*
X107309385Y-87188295D01*
X107258255Y-87324684D01*
X107251500Y-87386866D01*
X107251500Y-89183134D01*
X107258255Y-89245316D01*
X107309385Y-89381705D01*
X107396739Y-89498261D01*
X107513295Y-89585615D01*
X107521704Y-89588767D01*
X107521705Y-89588768D01*
X107630451Y-89629535D01*
X107687216Y-89672176D01*
X107711916Y-89738738D01*
X107696709Y-89808087D01*
X107677316Y-89834568D01*
X107635485Y-89878342D01*
X107550629Y-89967138D01*
X107547715Y-89971410D01*
X107547714Y-89971411D01*
X107535409Y-89989450D01*
X107424743Y-90151680D01*
X107330688Y-90354305D01*
X107270989Y-90569570D01*
X107247251Y-90791695D01*
X106705900Y-90791695D01*
X106705900Y-81881695D01*
X107222251Y-81881695D01*
X107222548Y-81886848D01*
X107222548Y-81886851D01*
X107228011Y-81981590D01*
X107235110Y-82104715D01*
X107236247Y-82109761D01*
X107236248Y-82109767D01*
X107256119Y-82197939D01*
X107284222Y-82322639D01*
X107368266Y-82529616D01*
X107386627Y-82559578D01*
X107479289Y-82710789D01*
X107484987Y-82720088D01*
X107631250Y-82888938D01*
X107803126Y-83031632D01*
X107996000Y-83144338D01*
X108204692Y-83224030D01*
X108209760Y-83225061D01*
X108209763Y-83225062D01*
X108317017Y-83246883D01*
X108423597Y-83268567D01*
X108428772Y-83268757D01*
X108428774Y-83268757D01*
X108641673Y-83276564D01*
X108641677Y-83276564D01*
X108646837Y-83276753D01*
X108651957Y-83276097D01*
X108651959Y-83276097D01*
X108863288Y-83249025D01*
X108863289Y-83249025D01*
X108868416Y-83248368D01*
X108873366Y-83246883D01*
X109077429Y-83185661D01*
X109077434Y-83185659D01*
X109082384Y-83184174D01*
X109282994Y-83085896D01*
X109464860Y-82956173D01*
X109473564Y-82947500D01*
X109619435Y-82802137D01*
X109623096Y-82798489D01*
X109682594Y-82715689D01*
X109750435Y-82621277D01*
X109753453Y-82617077D01*
X109763184Y-82597389D01*
X109850136Y-82421453D01*
X109850137Y-82421451D01*
X109852430Y-82416811D01*
X109917370Y-82203069D01*
X109946529Y-81981590D01*
X109946611Y-81978240D01*
X109948074Y-81918365D01*
X109948074Y-81918361D01*
X109948156Y-81915000D01*
X109929852Y-81692361D01*
X109875431Y-81475702D01*
X109786354Y-81270840D01*
X109736880Y-81194365D01*
X109667822Y-81087617D01*
X109667820Y-81087614D01*
X109665014Y-81083277D01*
X109514670Y-80918051D01*
X109510619Y-80914852D01*
X109510615Y-80914848D01*
X109343414Y-80782800D01*
X109343410Y-80782798D01*
X109339359Y-80779598D01*
X109297569Y-80756529D01*
X109247598Y-80706097D01*
X109232826Y-80636654D01*
X109257942Y-80570248D01*
X109285294Y-80543641D01*
X109460328Y-80418792D01*
X109468200Y-80412139D01*
X109619052Y-80261812D01*
X109625730Y-80253965D01*
X109750003Y-80081020D01*
X109755313Y-80072183D01*
X109849670Y-79881267D01*
X109853469Y-79871672D01*
X109915377Y-79667910D01*
X109917555Y-79657837D01*
X109918986Y-79646962D01*
X109916775Y-79632778D01*
X109903617Y-79629000D01*
X107268225Y-79629000D01*
X107254694Y-79632973D01*
X107253257Y-79642966D01*
X107283565Y-79777446D01*
X107286645Y-79787275D01*
X107366770Y-79984603D01*
X107371413Y-79993794D01*
X107482694Y-80175388D01*
X107488777Y-80183699D01*
X107628213Y-80344667D01*
X107635580Y-80351883D01*
X107799434Y-80487916D01*
X107807881Y-80493831D01*
X107876969Y-80534203D01*
X107925693Y-80585842D01*
X107938764Y-80655625D01*
X107912033Y-80721396D01*
X107871584Y-80754752D01*
X107858607Y-80761507D01*
X107854474Y-80764610D01*
X107854471Y-80764612D01*
X107684100Y-80892530D01*
X107679965Y-80895635D01*
X107676393Y-80899373D01*
X107581930Y-80998223D01*
X107525629Y-81057138D01*
X107399743Y-81241680D01*
X107353145Y-81342067D01*
X107308700Y-81437817D01*
X107305688Y-81444305D01*
X107245989Y-81659570D01*
X107222251Y-81881695D01*
X106705900Y-81881695D01*
X106705900Y-77733134D01*
X107226500Y-77733134D01*
X107233255Y-77795316D01*
X107284385Y-77931705D01*
X107371739Y-78048261D01*
X107488295Y-78135615D01*
X107496704Y-78138767D01*
X107496705Y-78138768D01*
X107605960Y-78179726D01*
X107662725Y-78222367D01*
X107687425Y-78288929D01*
X107672218Y-78358278D01*
X107652825Y-78384759D01*
X107529590Y-78513717D01*
X107523104Y-78521727D01*
X107403098Y-78697649D01*
X107398000Y-78706623D01*
X107308338Y-78899783D01*
X107304775Y-78909470D01*
X107249389Y-79109183D01*
X107250912Y-79117607D01*
X107263292Y-79121000D01*
X109903344Y-79121000D01*
X109916875Y-79117027D01*
X109918180Y-79107947D01*
X109876214Y-78940875D01*
X109872894Y-78931124D01*
X109787972Y-78735814D01*
X109783105Y-78726739D01*
X109667426Y-78547926D01*
X109661136Y-78539757D01*
X109517293Y-78381677D01*
X109486241Y-78317831D01*
X109494635Y-78247333D01*
X109539812Y-78192564D01*
X109566256Y-78178895D01*
X109673297Y-78138767D01*
X109681705Y-78135615D01*
X109798261Y-78048261D01*
X109885615Y-77931705D01*
X109936745Y-77795316D01*
X109943500Y-77733134D01*
X109943500Y-75936866D01*
X109936745Y-75874684D01*
X109885615Y-75738295D01*
X109798261Y-75621739D01*
X109681705Y-75534385D01*
X109545316Y-75483255D01*
X109483134Y-75476500D01*
X107686866Y-75476500D01*
X107624684Y-75483255D01*
X107488295Y-75534385D01*
X107371739Y-75621739D01*
X107284385Y-75738295D01*
X107233255Y-75874684D01*
X107226500Y-75936866D01*
X107226500Y-77733134D01*
X106705900Y-77733134D01*
X106705900Y-67471944D01*
X106722924Y-67413966D01*
X107253257Y-67413966D01*
X107283565Y-67548446D01*
X107286645Y-67558275D01*
X107366770Y-67755603D01*
X107371413Y-67764794D01*
X107482694Y-67946388D01*
X107488777Y-67954699D01*
X107628213Y-68115667D01*
X107635580Y-68122883D01*
X107799434Y-68258916D01*
X107807881Y-68264831D01*
X107991756Y-68372279D01*
X108001042Y-68376729D01*
X108200001Y-68452703D01*
X108209899Y-68455579D01*
X108313250Y-68476606D01*
X108327299Y-68475410D01*
X108331000Y-68465065D01*
X108331000Y-68464517D01*
X108839000Y-68464517D01*
X108843064Y-68478359D01*
X108856478Y-68480393D01*
X108863184Y-68479534D01*
X108873262Y-68477392D01*
X109077255Y-68416191D01*
X109086842Y-68412433D01*
X109278095Y-68318739D01*
X109286945Y-68313464D01*
X109460328Y-68189792D01*
X109468200Y-68183139D01*
X109619052Y-68032812D01*
X109625730Y-68024965D01*
X109750003Y-67852020D01*
X109755313Y-67843183D01*
X109849670Y-67652267D01*
X109853469Y-67642672D01*
X109915377Y-67438910D01*
X109917555Y-67428837D01*
X109918986Y-67417962D01*
X109916775Y-67403778D01*
X109903617Y-67400000D01*
X108857115Y-67400000D01*
X108841876Y-67404475D01*
X108840671Y-67405865D01*
X108839000Y-67413548D01*
X108839000Y-68464517D01*
X108331000Y-68464517D01*
X108331000Y-67418115D01*
X108326525Y-67402876D01*
X108325135Y-67401671D01*
X108317452Y-67400000D01*
X107268225Y-67400000D01*
X107254694Y-67403973D01*
X107253257Y-67413966D01*
X106722924Y-67413966D01*
X106725902Y-67403823D01*
X106742805Y-67382849D01*
X107196749Y-66928905D01*
X107259061Y-66894879D01*
X107285844Y-66892000D01*
X109903344Y-66892000D01*
X109916875Y-66888027D01*
X109918180Y-66878947D01*
X109876214Y-66711875D01*
X109872894Y-66702124D01*
X109787972Y-66506814D01*
X109783105Y-66497739D01*
X109667426Y-66318926D01*
X109661136Y-66310757D01*
X109517806Y-66153240D01*
X109510273Y-66146215D01*
X109343139Y-66014222D01*
X109334556Y-66008520D01*
X109297602Y-65988120D01*
X109247631Y-65937687D01*
X109232859Y-65868245D01*
X109257975Y-65801839D01*
X109285327Y-65775232D01*
X109322838Y-65748476D01*
X109464860Y-65647173D01*
X109623096Y-65489489D01*
X109714418Y-65362401D01*
X109750435Y-65312277D01*
X109753453Y-65308077D01*
X109817543Y-65178401D01*
X109850136Y-65112453D01*
X109850137Y-65112451D01*
X109852430Y-65107811D01*
X109917370Y-64894069D01*
X109946529Y-64672590D01*
X109946611Y-64669240D01*
X109948074Y-64609365D01*
X109948074Y-64609361D01*
X109948156Y-64606000D01*
X109929852Y-64383361D01*
X109875431Y-64166702D01*
X109786354Y-63961840D01*
X109741612Y-63892679D01*
X109667822Y-63778617D01*
X109667820Y-63778614D01*
X109665014Y-63774277D01*
X109650001Y-63757778D01*
X109517798Y-63612488D01*
X109486746Y-63548642D01*
X109495141Y-63478143D01*
X109540317Y-63423375D01*
X109566761Y-63409706D01*
X109673297Y-63369767D01*
X109681705Y-63366615D01*
X109798261Y-63279261D01*
X109885615Y-63162705D01*
X109936745Y-63026316D01*
X109943500Y-62964134D01*
X109943500Y-61167866D01*
X109936745Y-61105684D01*
X109885615Y-60969295D01*
X109798261Y-60852739D01*
X109681705Y-60765385D01*
X109545316Y-60714255D01*
X109483134Y-60707500D01*
X107686866Y-60707500D01*
X107624684Y-60714255D01*
X107488295Y-60765385D01*
X107371739Y-60852739D01*
X107284385Y-60969295D01*
X107233255Y-61105684D01*
X107226500Y-61167866D01*
X107226500Y-62964134D01*
X107233255Y-63026316D01*
X107284385Y-63162705D01*
X107371739Y-63279261D01*
X107488295Y-63366615D01*
X107496704Y-63369767D01*
X107496705Y-63369768D01*
X107605451Y-63410535D01*
X107662216Y-63453176D01*
X107686916Y-63519738D01*
X107671709Y-63589087D01*
X107652316Y-63615568D01*
X107539142Y-63733998D01*
X107525629Y-63748138D01*
X107522715Y-63752410D01*
X107522714Y-63752411D01*
X107490196Y-63800081D01*
X107399743Y-63932680D01*
X107305688Y-64135305D01*
X107245989Y-64350570D01*
X107222251Y-64572695D01*
X107222548Y-64577848D01*
X107222548Y-64577851D01*
X107234240Y-64780625D01*
X107235110Y-64795715D01*
X107257276Y-64894069D01*
X107261327Y-64912046D01*
X107256791Y-64982897D01*
X107227505Y-65028842D01*
X105596961Y-66659386D01*
X105590696Y-66665239D01*
X105550248Y-66700524D01*
X105521044Y-66742077D01*
X105516109Y-66749099D01*
X105512177Y-66754393D01*
X105475537Y-66801121D01*
X105472411Y-66808045D01*
X105468698Y-66814176D01*
X105466062Y-66818796D01*
X105462640Y-66825178D01*
X105458269Y-66831397D01*
X105455509Y-66838476D01*
X105436702Y-66886713D01*
X105434146Y-66892792D01*
X105409711Y-66946912D01*
X105408325Y-66954388D01*
X105406170Y-66961266D01*
X105404710Y-66966391D01*
X105402922Y-66973355D01*
X105400162Y-66980434D01*
X105399170Y-66987966D01*
X105399170Y-66987968D01*
X105392414Y-67039292D01*
X105391384Y-67045798D01*
X105380560Y-67104197D01*
X105380997Y-67111777D01*
X105380997Y-67111778D01*
X105383891Y-67161967D01*
X105384100Y-67169220D01*
X105384100Y-97132737D01*
X105383808Y-97141308D01*
X105380158Y-97194843D01*
X101000000Y-97194843D01*
X101000000Y-54000000D01*
X102586738Y-54000000D01*
X102605767Y-54302462D01*
X102662555Y-54600154D01*
X102756206Y-54888381D01*
X102885242Y-55162598D01*
X103047630Y-55418480D01*
X103050149Y-55421525D01*
X103050152Y-55421529D01*
X103106070Y-55489121D01*
X103240808Y-55651992D01*
X103461729Y-55859450D01*
X103706910Y-56037584D01*
X103710379Y-56039491D01*
X103710382Y-56039493D01*
X103969014Y-56181678D01*
X103972483Y-56183585D01*
X103976152Y-56185038D01*
X103976157Y-56185040D01*
X104225506Y-56283764D01*
X104254261Y-56295149D01*
X104547800Y-56370516D01*
X104848470Y-56408500D01*
X105151530Y-56408500D01*
X105452200Y-56370516D01*
X105745739Y-56295149D01*
X105774494Y-56283764D01*
X106023843Y-56185040D01*
X106023848Y-56185038D01*
X106027517Y-56183585D01*
X106030986Y-56181678D01*
X106289618Y-56039493D01*
X106289621Y-56039491D01*
X106293090Y-56037584D01*
X106538271Y-55859450D01*
X106759192Y-55651992D01*
X106893930Y-55489121D01*
X106949848Y-55421529D01*
X106949851Y-55421525D01*
X106952370Y-55418480D01*
X107114758Y-55162598D01*
X107243794Y-54888381D01*
X107337445Y-54600154D01*
X107394233Y-54302462D01*
X107413262Y-54000000D01*
X107394233Y-53697538D01*
X107337445Y-53399846D01*
X107243794Y-53111619D01*
X107237929Y-53099154D01*
X107169412Y-52953548D01*
X107114758Y-52837402D01*
X106952370Y-52581520D01*
X106759192Y-52348008D01*
X106538271Y-52140550D01*
X106293090Y-51962416D01*
X106027517Y-51816415D01*
X106023848Y-51814962D01*
X106023843Y-51814960D01*
X105749409Y-51706304D01*
X105749408Y-51706304D01*
X105745739Y-51704851D01*
X105452200Y-51629484D01*
X105151530Y-51591500D01*
X104848470Y-51591500D01*
X104547800Y-51629484D01*
X104254261Y-51704851D01*
X104250592Y-51706304D01*
X104250591Y-51706304D01*
X103976157Y-51814960D01*
X103976152Y-51814962D01*
X103972483Y-51816415D01*
X103706910Y-51962416D01*
X103461729Y-52140550D01*
X103240808Y-52348008D01*
X103047630Y-52581520D01*
X102885242Y-52837402D01*
X102830588Y-52953548D01*
X102762072Y-53099154D01*
X102756206Y-53111619D01*
X102662555Y-53399846D01*
X102605767Y-53697538D01*
X102586738Y-54000000D01*
X101000000Y-54000000D01*
X101000000Y-52052190D01*
X101020002Y-51984069D01*
X101036905Y-51963095D01*
X101963095Y-51036905D01*
X102025407Y-51002879D01*
X102052190Y-51000000D01*
X157947810Y-51000000D01*
X158015931Y-51020002D01*
G37*
%TD.AperFunction*%
%TD*%
M02*
