%TF.GenerationSoftware,KiCad,Pcbnew,(6.0.7)*%
%TF.CreationDate,2022-08-26T02:08:05+02:00*%
%TF.ProjectId,airpcb_smd,61697270-6362-45f7-936d-642e6b696361,rev?*%
%TF.SameCoordinates,Original*%
%TF.FileFunction,Soldermask,Bot*%
%TF.FilePolarity,Negative*%
%FSLAX46Y46*%
G04 Gerber Fmt 4.6, Leading zero omitted, Abs format (unit mm)*
G04 Created by KiCad (PCBNEW (6.0.7)) date 2022-08-26 02:08:05*
%MOMM*%
%LPD*%
G01*
G04 APERTURE LIST*
G04 Aperture macros list*
%AMRoundRect*
0 Rectangle with rounded corners*
0 $1 Rounding radius*
0 $2 $3 $4 $5 $6 $7 $8 $9 X,Y pos of 4 corners*
0 Add a 4 corners polygon primitive as box body*
4,1,4,$2,$3,$4,$5,$6,$7,$8,$9,$2,$3,0*
0 Add four circle primitives for the rounded corners*
1,1,$1+$1,$2,$3*
1,1,$1+$1,$4,$5*
1,1,$1+$1,$6,$7*
1,1,$1+$1,$8,$9*
0 Add four rect primitives between the rounded corners*
20,1,$1+$1,$2,$3,$4,$5,0*
20,1,$1+$1,$4,$5,$6,$7,0*
20,1,$1+$1,$6,$7,$8,$9,0*
20,1,$1+$1,$8,$9,$2,$3,0*%
G04 Aperture macros list end*
%TA.AperFunction,Profile*%
%ADD10C,0.050000*%
%TD*%
%ADD11C,3.100000*%
%ADD12RoundRect,0.050000X1.000000X1.000000X-1.000000X1.000000X-1.000000X-1.000000X1.000000X-1.000000X0*%
%ADD13C,2.100000*%
%ADD14C,1.200000*%
%ADD15RoundRect,0.050000X-1.100000X-1.100000X1.100000X-1.100000X1.100000X1.100000X-1.100000X1.100000X0*%
%ADD16C,2.300000*%
%ADD17RoundRect,0.050000X0.800000X0.800000X-0.800000X0.800000X-0.800000X-0.800000X0.800000X-0.800000X0*%
%ADD18O,1.700000X1.700000*%
%ADD19C,3.900000*%
%ADD20RoundRect,0.050000X-0.850000X-0.850000X0.850000X-0.850000X0.850000X0.850000X-0.850000X0.850000X0*%
%ADD21O,1.800000X1.800000*%
G04 APERTURE END LIST*
D10*
X103000000Y-50000000D02*
G75*
G03*
X100000000Y-53000000I0J-3000000D01*
G01*
X103000000Y-50000000D02*
X157000000Y-50000000D01*
X100000000Y-121000000D02*
G75*
G03*
X103000000Y-124000000I3000000J0D01*
G01*
X160000000Y-53000000D02*
G75*
G03*
X157000000Y-50000000I-3000000J0D01*
G01*
X160000000Y-53000000D02*
X160000000Y-121000000D01*
X103000000Y-124000000D02*
X157000000Y-124000000D01*
X100000000Y-53000000D02*
X100000000Y-121000000D01*
X157000000Y-124000000D02*
G75*
G03*
X160000000Y-121000000I0J3000000D01*
G01*
D11*
%TO.C,U3*%
X142445000Y-101890000D03*
X142445000Y-54940000D03*
X117935000Y-54940000D03*
X117935000Y-101890000D03*
D12*
X142865000Y-93930000D03*
D13*
X142865000Y-91390000D03*
X142865000Y-88850000D03*
X142865000Y-86310000D03*
X142865000Y-83770000D03*
X142865000Y-81230000D03*
X142865000Y-78690000D03*
X142865000Y-76150000D03*
X142865000Y-73610000D03*
X142865000Y-71070000D03*
X142865000Y-68530000D03*
X142865000Y-65990000D03*
X142865000Y-63450000D03*
X142865000Y-60910000D03*
X142865000Y-58370000D03*
X117465000Y-58370000D03*
X117465000Y-60910000D03*
X117465000Y-63450000D03*
X117465000Y-65990000D03*
X117465000Y-68530000D03*
X117465000Y-71070000D03*
X117465000Y-73610000D03*
X117465000Y-76150000D03*
X117465000Y-78690000D03*
X117465000Y-81230000D03*
X117465000Y-83770000D03*
X117465000Y-86310000D03*
X117465000Y-88850000D03*
X117465000Y-91390000D03*
X117465000Y-93930000D03*
%TD*%
D14*
%TO.C,J4*%
X127000000Y-121920000D03*
X129540000Y-121920000D03*
D15*
X127000000Y-119380000D03*
D16*
X129540000Y-119380000D03*
%TD*%
D17*
%TO.C,U2*%
X146040000Y-113035000D03*
D18*
X146040000Y-110495000D03*
X138420000Y-110495000D03*
X138420000Y-113035000D03*
%TD*%
D19*
%TO.C,H1*%
X105000000Y-54000000D03*
%TD*%
D20*
%TO.C,J2*%
X152400000Y-88900000D03*
D21*
X152400000Y-91440000D03*
X152400000Y-93980000D03*
X152400000Y-96520000D03*
%TD*%
D20*
%TO.C,J1*%
X152400000Y-60960000D03*
D21*
X152400000Y-63500000D03*
X152400000Y-66040000D03*
X152400000Y-68580000D03*
%TD*%
D20*
%TO.C,J7*%
X108585000Y-76835000D03*
D21*
X108585000Y-79375000D03*
X108585000Y-81915000D03*
%TD*%
D17*
%TO.C,U1*%
X129540000Y-89535000D03*
D18*
X129540000Y-86995000D03*
X121920000Y-86995000D03*
X121920000Y-89535000D03*
%TD*%
D20*
%TO.C,J9*%
X108585000Y-62066000D03*
D21*
X108585000Y-64606000D03*
X108585000Y-67146000D03*
%TD*%
D19*
%TO.C,H2*%
X155000000Y-54000000D03*
%TD*%
D20*
%TO.C,J8*%
X152400000Y-76200000D03*
D21*
X152400000Y-78740000D03*
X152400000Y-81280000D03*
%TD*%
D20*
%TO.C,J3*%
X108610000Y-88285000D03*
D21*
X108610000Y-90825000D03*
%TD*%
D19*
%TO.C,H4*%
X105000000Y-119000000D03*
%TD*%
%TO.C,H3*%
X155000000Y-119000000D03*
%TD*%
D20*
%TO.C,J11*%
X108610000Y-97185000D03*
D21*
X108610000Y-99725000D03*
X108610000Y-102265000D03*
X108610000Y-104805000D03*
X108610000Y-107345000D03*
%TD*%
M02*
