%TF.GenerationSoftware,KiCad,Pcbnew,(6.0.7)*%
%TF.CreationDate,2022-08-26T02:08:05+02:00*%
%TF.ProjectId,airpcb_smd,61697270-6362-45f7-936d-642e6b696361,rev?*%
%TF.SameCoordinates,Original*%
%TF.FileFunction,Legend,Top*%
%TF.FilePolarity,Positive*%
%FSLAX46Y46*%
G04 Gerber Fmt 4.6, Leading zero omitted, Abs format (unit mm)*
G04 Created by KiCad (PCBNEW (6.0.7)) date 2022-08-26 02:08:05*
%MOMM*%
%LPD*%
G01*
G04 APERTURE LIST*
%ADD10C,0.250000*%
%ADD11C,0.120000*%
%TA.AperFunction,Profile*%
%ADD12C,0.050000*%
%TD*%
%ADD13C,0.150000*%
%ADD14C,0.127000*%
%ADD15C,0.200000*%
G04 APERTURE END LIST*
D10*
X109717142Y-118467380D02*
X110288571Y-118467380D01*
X110002857Y-119467380D02*
X110002857Y-118467380D01*
X110955238Y-118943571D02*
X111098095Y-118991190D01*
X111145714Y-119038809D01*
X111193333Y-119134047D01*
X111193333Y-119276904D01*
X111145714Y-119372142D01*
X111098095Y-119419761D01*
X111002857Y-119467380D01*
X110621904Y-119467380D01*
X110621904Y-118467380D01*
X110955238Y-118467380D01*
X111050476Y-118515000D01*
X111098095Y-118562619D01*
X111145714Y-118657857D01*
X111145714Y-118753095D01*
X111098095Y-118848333D01*
X111050476Y-118895952D01*
X110955238Y-118943571D01*
X110621904Y-118943571D01*
X111621904Y-119086428D02*
X112383809Y-119086428D01*
X112812380Y-119181666D02*
X113288571Y-119181666D01*
X112717142Y-119467380D02*
X113050476Y-118467380D01*
X113383809Y-119467380D01*
X113717142Y-119467380D02*
X113717142Y-118467380D01*
X114764761Y-119467380D02*
X114431428Y-118991190D01*
X114193333Y-119467380D02*
X114193333Y-118467380D01*
X114574285Y-118467380D01*
X114669523Y-118515000D01*
X114717142Y-118562619D01*
X114764761Y-118657857D01*
X114764761Y-118800714D01*
X114717142Y-118895952D01*
X114669523Y-118943571D01*
X114574285Y-118991190D01*
X114193333Y-118991190D01*
X115193333Y-119086428D02*
X115955238Y-119086428D01*
X116431428Y-119467380D02*
X116431428Y-118467380D01*
X116431428Y-118943571D02*
X117002857Y-118943571D01*
X117002857Y-119467380D02*
X117002857Y-118467380D01*
X117431428Y-119181666D02*
X117907619Y-119181666D01*
X117336190Y-119467380D02*
X117669523Y-118467380D01*
X118002857Y-119467380D01*
X118907619Y-119372142D02*
X118860000Y-119419761D01*
X118717142Y-119467380D01*
X118621904Y-119467380D01*
X118479047Y-119419761D01*
X118383809Y-119324523D01*
X118336190Y-119229285D01*
X118288571Y-119038809D01*
X118288571Y-118895952D01*
X118336190Y-118705476D01*
X118383809Y-118610238D01*
X118479047Y-118515000D01*
X118621904Y-118467380D01*
X118717142Y-118467380D01*
X118860000Y-118515000D01*
X118907619Y-118562619D01*
X119336190Y-119467380D02*
X119336190Y-118467380D01*
X119907619Y-119467380D02*
X119479047Y-118895952D01*
X119907619Y-118467380D02*
X119336190Y-119038809D01*
X110574285Y-120077380D02*
X110907619Y-121077380D01*
X111240952Y-120077380D01*
X111574285Y-120553571D02*
X111907619Y-120553571D01*
X112050476Y-121077380D02*
X111574285Y-121077380D01*
X111574285Y-120077380D01*
X112050476Y-120077380D01*
X113050476Y-121077380D02*
X112717142Y-120601190D01*
X112479047Y-121077380D02*
X112479047Y-120077380D01*
X112860000Y-120077380D01*
X112955238Y-120125000D01*
X113002857Y-120172619D01*
X113050476Y-120267857D01*
X113050476Y-120410714D01*
X113002857Y-120505952D01*
X112955238Y-120553571D01*
X112860000Y-120601190D01*
X112479047Y-120601190D01*
X113479047Y-120982142D02*
X113526666Y-121029761D01*
X113479047Y-121077380D01*
X113431428Y-121029761D01*
X113479047Y-120982142D01*
X113479047Y-121077380D01*
X114717142Y-120553571D02*
X115050476Y-120553571D01*
X115193333Y-121077380D02*
X114717142Y-121077380D01*
X114717142Y-120077380D01*
X115193333Y-120077380D01*
X115574285Y-121029761D02*
X115717142Y-121077380D01*
X115955238Y-121077380D01*
X116050476Y-121029761D01*
X116098095Y-120982142D01*
X116145714Y-120886904D01*
X116145714Y-120791666D01*
X116098095Y-120696428D01*
X116050476Y-120648809D01*
X115955238Y-120601190D01*
X115764761Y-120553571D01*
X115669523Y-120505952D01*
X115621904Y-120458333D01*
X115574285Y-120363095D01*
X115574285Y-120267857D01*
X115621904Y-120172619D01*
X115669523Y-120125000D01*
X115764761Y-120077380D01*
X116002857Y-120077380D01*
X116145714Y-120125000D01*
X116574285Y-121077380D02*
X116574285Y-120077380D01*
X116955238Y-120077380D01*
X117050476Y-120125000D01*
X117098095Y-120172619D01*
X117145714Y-120267857D01*
X117145714Y-120410714D01*
X117098095Y-120505952D01*
X117050476Y-120553571D01*
X116955238Y-120601190D01*
X116574285Y-120601190D01*
X117479047Y-120077380D02*
X118098095Y-120077380D01*
X117764761Y-120458333D01*
X117907619Y-120458333D01*
X118002857Y-120505952D01*
X118050476Y-120553571D01*
X118098095Y-120648809D01*
X118098095Y-120886904D01*
X118050476Y-120982142D01*
X118002857Y-121029761D01*
X117907619Y-121077380D01*
X117621904Y-121077380D01*
X117526666Y-121029761D01*
X117479047Y-120982142D01*
X118479047Y-120172619D02*
X118526666Y-120125000D01*
X118621904Y-120077380D01*
X118860000Y-120077380D01*
X118955238Y-120125000D01*
X119002857Y-120172619D01*
X119050476Y-120267857D01*
X119050476Y-120363095D01*
X119002857Y-120505952D01*
X118431428Y-121077380D01*
X119050476Y-121077380D01*
D11*
X133370000Y-100030000D02*
X133370000Y-103850000D01*
X126660000Y-100030000D02*
X133370000Y-100030000D01*
X126660000Y-103830000D02*
X126660000Y-100030000D01*
X121440000Y-59390000D02*
X139050000Y-59440000D01*
X139060000Y-71990000D02*
X139060000Y-52930000D01*
X121400000Y-72060000D02*
X139060000Y-71990000D01*
X121420000Y-53010000D02*
X121400000Y-72060000D01*
X104160000Y-109156000D02*
X104160000Y-108902000D01*
X104775000Y-75565000D02*
X106045000Y-75565000D01*
X104160000Y-109664000D02*
X104160000Y-109156000D01*
X104230000Y-95940000D02*
X105500000Y-95940000D01*
X156801379Y-59257202D02*
X156801379Y-59765202D01*
X104830000Y-92142000D02*
X106227000Y-92142000D01*
X104775000Y-82931000D02*
X104775000Y-82677000D01*
X104225000Y-104634000D02*
X104220000Y-95940000D01*
X104775000Y-79629000D02*
X104775000Y-75565000D01*
X104775000Y-83439000D02*
X104775000Y-82931000D01*
X156801379Y-59765202D02*
X156801379Y-60019202D01*
X156853305Y-87103970D02*
X156853305Y-87611970D01*
X156870000Y-74584000D02*
X156870000Y-74838000D01*
X156870000Y-78660000D02*
X156870000Y-82710000D01*
X104830000Y-92650000D02*
X104830000Y-92142000D01*
X156801379Y-63841202D02*
X156775000Y-70830000D01*
X104775000Y-68162000D02*
X106172000Y-68162000D01*
X104775000Y-60796000D02*
X106045000Y-60796000D01*
X156848305Y-97900000D02*
X155578305Y-97900000D01*
X156870000Y-74584000D02*
X155473000Y-74584000D01*
X156853305Y-87611970D02*
X155456305Y-87611970D01*
X156853305Y-87611970D02*
X156853305Y-87865970D01*
X104160000Y-109156000D02*
X105557000Y-109156000D01*
X104830000Y-84776000D02*
X106100000Y-84776000D01*
X156775000Y-70830000D02*
X155505000Y-70830000D01*
X156853305Y-91687970D02*
X156850000Y-97920000D01*
X104775000Y-68670000D02*
X104775000Y-68162000D01*
X156801379Y-59765202D02*
X155404379Y-59765202D01*
X104775000Y-64860000D02*
X104775000Y-60796000D01*
X104830000Y-88840000D02*
X104830000Y-84776000D01*
X104775000Y-68162000D02*
X104775000Y-67908000D01*
X104775000Y-82931000D02*
X106172000Y-82931000D01*
X156870000Y-74076000D02*
X156870000Y-74584000D01*
X156865000Y-82690000D02*
X155595000Y-82690000D01*
X104830000Y-92142000D02*
X104830000Y-91888000D01*
D12*
X103000000Y-50000000D02*
G75*
G03*
X100000000Y-53000000I0J-3000000D01*
G01*
X103000000Y-50000000D02*
X157000000Y-50000000D01*
X100000000Y-121000000D02*
G75*
G03*
X103000000Y-124000000I3000000J0D01*
G01*
X160000000Y-53000000D02*
G75*
G03*
X157000000Y-50000000I-3000000J0D01*
G01*
X160000000Y-53000000D02*
X160000000Y-121000000D01*
X103000000Y-124000000D02*
X157000000Y-124000000D01*
X100000000Y-53000000D02*
X100000000Y-121000000D01*
X157000000Y-124000000D02*
G75*
G03*
X160000000Y-121000000I0J3000000D01*
G01*
D13*
X105101428Y-90948142D02*
X104501428Y-90948142D01*
X104501428Y-90805285D01*
X104530000Y-90719571D01*
X104587142Y-90662428D01*
X104644285Y-90633857D01*
X104758571Y-90605285D01*
X104844285Y-90605285D01*
X104958571Y-90633857D01*
X105015714Y-90662428D01*
X105072857Y-90719571D01*
X105101428Y-90805285D01*
X105101428Y-90948142D01*
X105044285Y-90005285D02*
X105072857Y-90033857D01*
X105101428Y-90119571D01*
X105101428Y-90176714D01*
X105072857Y-90262428D01*
X105015714Y-90319571D01*
X104958571Y-90348142D01*
X104844285Y-90376714D01*
X104758571Y-90376714D01*
X104644285Y-90348142D01*
X104587142Y-90319571D01*
X104530000Y-90262428D01*
X104501428Y-90176714D01*
X104501428Y-90119571D01*
X104530000Y-90033857D01*
X104558571Y-90005285D01*
X154875238Y-67985714D02*
X154827619Y-68128571D01*
X154827619Y-68366666D01*
X154875238Y-68461904D01*
X154922857Y-68509523D01*
X155018095Y-68557142D01*
X155113333Y-68557142D01*
X155208571Y-68509523D01*
X155256190Y-68461904D01*
X155303809Y-68366666D01*
X155351428Y-68176190D01*
X155399047Y-68080952D01*
X155446666Y-68033333D01*
X155541904Y-67985714D01*
X155637142Y-67985714D01*
X155732380Y-68033333D01*
X155780000Y-68080952D01*
X155827619Y-68176190D01*
X155827619Y-68414285D01*
X155780000Y-68557142D01*
X154827619Y-68985714D02*
X155827619Y-68985714D01*
X155827619Y-69223809D01*
X155780000Y-69366666D01*
X155684761Y-69461904D01*
X155589523Y-69509523D01*
X155399047Y-69557142D01*
X155256190Y-69557142D01*
X155065714Y-69509523D01*
X154970476Y-69461904D01*
X154875238Y-69366666D01*
X154827619Y-69223809D01*
X154827619Y-68985714D01*
X155113333Y-69938095D02*
X155113333Y-70414285D01*
X154827619Y-69842857D02*
X155827619Y-70176190D01*
X154827619Y-70509523D01*
X105346000Y-85530095D02*
X105298380Y-85625333D01*
X105298380Y-85768190D01*
X105346000Y-85911047D01*
X105441238Y-86006285D01*
X105536476Y-86053904D01*
X105726952Y-86101523D01*
X105869809Y-86101523D01*
X106060285Y-86053904D01*
X106155523Y-86006285D01*
X106250761Y-85911047D01*
X106298380Y-85768190D01*
X106298380Y-85672952D01*
X106250761Y-85530095D01*
X106203142Y-85482476D01*
X105869809Y-85482476D01*
X105869809Y-85672952D01*
X157188571Y-75080488D02*
X156588571Y-75223345D01*
X157017142Y-75337631D01*
X156588571Y-75451917D01*
X157188571Y-75594774D01*
X156617142Y-75794774D02*
X156588571Y-75880488D01*
X156588571Y-76023345D01*
X156617142Y-76080488D01*
X156645714Y-76109060D01*
X156702857Y-76137631D01*
X156760000Y-76137631D01*
X156817142Y-76109060D01*
X156845714Y-76080488D01*
X156874285Y-76023345D01*
X156902857Y-75909060D01*
X156931428Y-75851917D01*
X156960000Y-75823345D01*
X157017142Y-75794774D01*
X157074285Y-75794774D01*
X157131428Y-75823345D01*
X157160000Y-75851917D01*
X157188571Y-75909060D01*
X157188571Y-76051917D01*
X157160000Y-76137631D01*
X157131428Y-76366203D02*
X157160000Y-76394774D01*
X157188571Y-76451917D01*
X157188571Y-76594774D01*
X157160000Y-76651917D01*
X157131428Y-76680488D01*
X157074285Y-76709060D01*
X157017142Y-76709060D01*
X156931428Y-76680488D01*
X156588571Y-76337631D01*
X156588571Y-76709060D01*
X156931428Y-77051917D02*
X156960000Y-76994774D01*
X156988571Y-76966203D01*
X157045714Y-76937631D01*
X157074285Y-76937631D01*
X157131428Y-76966203D01*
X157160000Y-76994774D01*
X157188571Y-77051917D01*
X157188571Y-77166203D01*
X157160000Y-77223345D01*
X157131428Y-77251917D01*
X157074285Y-77280488D01*
X157045714Y-77280488D01*
X156988571Y-77251917D01*
X156960000Y-77223345D01*
X156931428Y-77166203D01*
X156931428Y-77051917D01*
X156902857Y-76994774D01*
X156874285Y-76966203D01*
X156817142Y-76937631D01*
X156702857Y-76937631D01*
X156645714Y-76966203D01*
X156617142Y-76994774D01*
X156588571Y-77051917D01*
X156588571Y-77166203D01*
X156617142Y-77223345D01*
X156645714Y-77251917D01*
X156702857Y-77280488D01*
X156817142Y-77280488D01*
X156874285Y-77251917D01*
X156902857Y-77223345D01*
X156931428Y-77166203D01*
X156588571Y-77851917D02*
X156588571Y-77509060D01*
X156588571Y-77680488D02*
X157188571Y-77680488D01*
X157102857Y-77623345D01*
X157045714Y-77566203D01*
X157017142Y-77509060D01*
X157131428Y-78080488D02*
X157160000Y-78109060D01*
X157188571Y-78166203D01*
X157188571Y-78309060D01*
X157160000Y-78366203D01*
X157131428Y-78394774D01*
X157074285Y-78423345D01*
X157017142Y-78423345D01*
X156931428Y-78394774D01*
X156588571Y-78051917D01*
X156588571Y-78423345D01*
X155960302Y-80889523D02*
X155960302Y-80413333D01*
X155484111Y-80365714D01*
X155531730Y-80413333D01*
X155579349Y-80508571D01*
X155579349Y-80746666D01*
X155531730Y-80841904D01*
X155484111Y-80889523D01*
X155388873Y-80937142D01*
X155150778Y-80937142D01*
X155055540Y-80889523D01*
X155007921Y-80841904D01*
X154960302Y-80746666D01*
X154960302Y-80508571D01*
X155007921Y-80413333D01*
X155055540Y-80365714D01*
X155960302Y-81222857D02*
X154960302Y-81556190D01*
X155960302Y-81889523D01*
X155787619Y-61929523D02*
X155787619Y-62424761D01*
X155406666Y-62158095D01*
X155406666Y-62272380D01*
X155359047Y-62348571D01*
X155311428Y-62386666D01*
X155216190Y-62424761D01*
X154978095Y-62424761D01*
X154882857Y-62386666D01*
X154835238Y-62348571D01*
X154787619Y-62272380D01*
X154787619Y-62043809D01*
X154835238Y-61967619D01*
X154882857Y-61929523D01*
X155787619Y-62653333D02*
X154787619Y-62920000D01*
X155787619Y-63186666D01*
X155787619Y-63377142D02*
X155787619Y-63872380D01*
X155406666Y-63605714D01*
X155406666Y-63720000D01*
X155359047Y-63796190D01*
X155311428Y-63834285D01*
X155216190Y-63872380D01*
X154978095Y-63872380D01*
X154882857Y-63834285D01*
X154835238Y-63796190D01*
X154787619Y-63720000D01*
X154787619Y-63491428D01*
X154835238Y-63415238D01*
X154882857Y-63377142D01*
X104446428Y-67111000D02*
X104446428Y-67396714D01*
X104732142Y-67425285D01*
X104703571Y-67396714D01*
X104675000Y-67339571D01*
X104675000Y-67196714D01*
X104703571Y-67139571D01*
X104732142Y-67111000D01*
X104789285Y-67082428D01*
X104932142Y-67082428D01*
X104989285Y-67111000D01*
X105017857Y-67139571D01*
X105046428Y-67196714D01*
X105046428Y-67339571D01*
X105017857Y-67396714D01*
X104989285Y-67425285D01*
X104646428Y-66882428D02*
X105046428Y-66739571D01*
X104646428Y-66596714D01*
X104446428Y-66425285D02*
X104446428Y-66053857D01*
X104675000Y-66253857D01*
X104675000Y-66168142D01*
X104703571Y-66111000D01*
X104732142Y-66082428D01*
X104789285Y-66053857D01*
X104932142Y-66053857D01*
X104989285Y-66082428D01*
X105017857Y-66111000D01*
X105046428Y-66168142D01*
X105046428Y-66339571D01*
X105017857Y-66396714D01*
X104989285Y-66425285D01*
X104646428Y-65853857D02*
X105046428Y-65711000D01*
X104646428Y-65568142D01*
X106298380Y-88103428D02*
X106298380Y-88560571D01*
X106298380Y-88332000D02*
X105298380Y-88332000D01*
X105441238Y-88408190D01*
X105536476Y-88484380D01*
X105584095Y-88560571D01*
X155898263Y-92891904D02*
X155898263Y-93510952D01*
X155517310Y-93177619D01*
X155517310Y-93320476D01*
X155469691Y-93415714D01*
X155422072Y-93463333D01*
X155326834Y-93510952D01*
X155088739Y-93510952D01*
X154993501Y-93463333D01*
X154945882Y-93415714D01*
X154898263Y-93320476D01*
X154898263Y-93034761D01*
X154945882Y-92939523D01*
X154993501Y-92891904D01*
X155898263Y-93796666D02*
X154898263Y-94130000D01*
X155898263Y-94463333D01*
X155898263Y-94701428D02*
X155898263Y-95320476D01*
X155517310Y-94987142D01*
X155517310Y-95130000D01*
X155469691Y-95225238D01*
X155422072Y-95272857D01*
X155326834Y-95320476D01*
X155088739Y-95320476D01*
X154993501Y-95272857D01*
X154945882Y-95225238D01*
X154898263Y-95130000D01*
X154898263Y-94844285D01*
X154945882Y-94749047D01*
X154993501Y-94701428D01*
X154920302Y-77899523D02*
X155920302Y-77899523D01*
X155920302Y-78090000D01*
X155872683Y-78204285D01*
X155777444Y-78280476D01*
X155682206Y-78318571D01*
X155491730Y-78356666D01*
X155348873Y-78356666D01*
X155158397Y-78318571D01*
X155063159Y-78280476D01*
X154967921Y-78204285D01*
X154920302Y-78090000D01*
X154920302Y-77899523D01*
X155586968Y-79042380D02*
X154920302Y-79042380D01*
X155967921Y-78851904D02*
X155253635Y-78661428D01*
X155253635Y-79156666D01*
X105497380Y-67501476D02*
X105497380Y-67006238D01*
X105878333Y-67272904D01*
X105878333Y-67158619D01*
X105925952Y-67082428D01*
X105973571Y-67044333D01*
X106068809Y-67006238D01*
X106306904Y-67006238D01*
X106402142Y-67044333D01*
X106449761Y-67082428D01*
X106497380Y-67158619D01*
X106497380Y-67387190D01*
X106449761Y-67463380D01*
X106402142Y-67501476D01*
X105497380Y-66777666D02*
X106497380Y-66511000D01*
X105497380Y-66244333D01*
X105497380Y-66053857D02*
X105497380Y-65558619D01*
X105878333Y-65825285D01*
X105878333Y-65711000D01*
X105925952Y-65634809D01*
X105973571Y-65596714D01*
X106068809Y-65558619D01*
X106306904Y-65558619D01*
X106402142Y-65596714D01*
X106449761Y-65634809D01*
X106497380Y-65711000D01*
X106497380Y-65939571D01*
X106449761Y-66015761D01*
X106402142Y-66053857D01*
X156571876Y-89094173D02*
X157171876Y-89094173D01*
X157171876Y-89237030D01*
X157143305Y-89322744D01*
X157086162Y-89379887D01*
X157029019Y-89408458D01*
X156914733Y-89437030D01*
X156829019Y-89437030D01*
X156714733Y-89408458D01*
X156657590Y-89379887D01*
X156600447Y-89322744D01*
X156571876Y-89237030D01*
X156571876Y-89094173D01*
X156571876Y-89694173D02*
X157171876Y-89694173D01*
X156886162Y-89694173D02*
X156886162Y-90037030D01*
X156571876Y-90037030D02*
X157171876Y-90037030D01*
X157171876Y-90237030D02*
X157171876Y-90579887D01*
X156571876Y-90408458D02*
X157171876Y-90408458D01*
X104501428Y-107747142D02*
X103901428Y-107747142D01*
X103901428Y-107518571D01*
X103930000Y-107461428D01*
X103958571Y-107432857D01*
X104015714Y-107404285D01*
X104101428Y-107404285D01*
X104158571Y-107432857D01*
X104187142Y-107461428D01*
X104215714Y-107518571D01*
X104215714Y-107747142D01*
X104472857Y-107175714D02*
X104501428Y-107090000D01*
X104501428Y-106947142D01*
X104472857Y-106890000D01*
X104444285Y-106861428D01*
X104387142Y-106832857D01*
X104330000Y-106832857D01*
X104272857Y-106861428D01*
X104244285Y-106890000D01*
X104215714Y-106947142D01*
X104187142Y-107061428D01*
X104158571Y-107118571D01*
X104130000Y-107147142D01*
X104072857Y-107175714D01*
X104015714Y-107175714D01*
X103958571Y-107147142D01*
X103930000Y-107118571D01*
X103901428Y-107061428D01*
X103901428Y-106918571D01*
X103930000Y-106832857D01*
X103901428Y-106575714D02*
X104387142Y-106575714D01*
X104444285Y-106547142D01*
X104472857Y-106518571D01*
X104501428Y-106461428D01*
X104501428Y-106347142D01*
X104472857Y-106290000D01*
X104444285Y-106261428D01*
X104387142Y-106232857D01*
X103901428Y-106232857D01*
X105291000Y-76319095D02*
X105243380Y-76414333D01*
X105243380Y-76557190D01*
X105291000Y-76700047D01*
X105386238Y-76795285D01*
X105481476Y-76842904D01*
X105671952Y-76890523D01*
X105814809Y-76890523D01*
X106005285Y-76842904D01*
X106100523Y-76795285D01*
X106195761Y-76700047D01*
X106243380Y-76557190D01*
X106243380Y-76461952D01*
X106195761Y-76319095D01*
X106148142Y-76271476D01*
X105814809Y-76271476D01*
X105814809Y-76461952D01*
X154893956Y-64809523D02*
X154846337Y-64952380D01*
X154846337Y-65190476D01*
X154893956Y-65285714D01*
X154941575Y-65333333D01*
X155036813Y-65380952D01*
X155132051Y-65380952D01*
X155227289Y-65333333D01*
X155274908Y-65285714D01*
X155322527Y-65190476D01*
X155370146Y-65000000D01*
X155417765Y-64904761D01*
X155465384Y-64857142D01*
X155560622Y-64809523D01*
X155655860Y-64809523D01*
X155751098Y-64857142D01*
X155798718Y-64904761D01*
X155846337Y-65000000D01*
X155846337Y-65238095D01*
X155798718Y-65380952D01*
X154941575Y-66380952D02*
X154893956Y-66333333D01*
X154846337Y-66190476D01*
X154846337Y-66095238D01*
X154893956Y-65952380D01*
X154989194Y-65857142D01*
X155084432Y-65809523D01*
X155274908Y-65761904D01*
X155417765Y-65761904D01*
X155608241Y-65809523D01*
X155703479Y-65857142D01*
X155798718Y-65952380D01*
X155846337Y-66095238D01*
X155846337Y-66190476D01*
X155798718Y-66333333D01*
X155751098Y-66380952D01*
X154846337Y-67285714D02*
X154846337Y-66809523D01*
X155846337Y-66809523D01*
X155810644Y-89431904D02*
X155858263Y-89336666D01*
X155858263Y-89193809D01*
X155810644Y-89050952D01*
X155715405Y-88955714D01*
X155620167Y-88908095D01*
X155429691Y-88860476D01*
X155286834Y-88860476D01*
X155096358Y-88908095D01*
X155001120Y-88955714D01*
X154905882Y-89050952D01*
X154858263Y-89193809D01*
X154858263Y-89289047D01*
X154905882Y-89431904D01*
X154953501Y-89479523D01*
X155286834Y-89479523D01*
X155286834Y-89289047D01*
X155758718Y-61071904D02*
X155806337Y-60976666D01*
X155806337Y-60833809D01*
X155758718Y-60690952D01*
X155663479Y-60595714D01*
X155568241Y-60548095D01*
X155377765Y-60500476D01*
X155234908Y-60500476D01*
X155044432Y-60548095D01*
X154949194Y-60595714D01*
X154853956Y-60690952D01*
X154806337Y-60833809D01*
X154806337Y-60929047D01*
X154853956Y-61071904D01*
X154901575Y-61119523D01*
X155234908Y-61119523D01*
X155234908Y-60929047D01*
X105046428Y-82465714D02*
X104446428Y-82465714D01*
X104446428Y-82237142D01*
X104475000Y-82180000D01*
X104503571Y-82151428D01*
X104560714Y-82122857D01*
X104646428Y-82122857D01*
X104703571Y-82151428D01*
X104732142Y-82180000D01*
X104760714Y-82237142D01*
X104760714Y-82465714D01*
X105046428Y-81780000D02*
X105017857Y-81837142D01*
X104989285Y-81865714D01*
X104932142Y-81894285D01*
X104760714Y-81894285D01*
X104703571Y-81865714D01*
X104675000Y-81837142D01*
X104646428Y-81780000D01*
X104646428Y-81694285D01*
X104675000Y-81637142D01*
X104703571Y-81608571D01*
X104760714Y-81580000D01*
X104932142Y-81580000D01*
X104989285Y-81608571D01*
X105017857Y-81637142D01*
X105046428Y-81694285D01*
X105046428Y-81780000D01*
X104646428Y-81380000D02*
X105046428Y-81265714D01*
X104760714Y-81151428D01*
X105046428Y-81037142D01*
X104646428Y-80922857D01*
X105017857Y-80465714D02*
X105046428Y-80522857D01*
X105046428Y-80637142D01*
X105017857Y-80694285D01*
X104960714Y-80722857D01*
X104732142Y-80722857D01*
X104675000Y-80694285D01*
X104646428Y-80637142D01*
X104646428Y-80522857D01*
X104675000Y-80465714D01*
X104732142Y-80437142D01*
X104789285Y-80437142D01*
X104846428Y-80722857D01*
X105046428Y-80180000D02*
X104646428Y-80180000D01*
X104760714Y-80180000D02*
X104703571Y-80151428D01*
X104675000Y-80122857D01*
X104646428Y-80065714D01*
X104646428Y-80008571D01*
X106392380Y-64242904D02*
X105392380Y-64242904D01*
X105392380Y-63861952D01*
X105440000Y-63766714D01*
X105487619Y-63719095D01*
X105582857Y-63671476D01*
X105725714Y-63671476D01*
X105820952Y-63719095D01*
X105868571Y-63766714D01*
X105916190Y-63861952D01*
X105916190Y-64242904D01*
X156519950Y-61361690D02*
X157119950Y-61361690D01*
X157062807Y-61618833D02*
X157091379Y-61647405D01*
X157119950Y-61704547D01*
X157119950Y-61847405D01*
X157091379Y-61904547D01*
X157062807Y-61933119D01*
X157005664Y-61961690D01*
X156948521Y-61961690D01*
X156862807Y-61933119D01*
X156519950Y-61590262D01*
X156519950Y-61961690D01*
X156577093Y-62561690D02*
X156548521Y-62533119D01*
X156519950Y-62447405D01*
X156519950Y-62390262D01*
X156548521Y-62304547D01*
X156605664Y-62247405D01*
X156662807Y-62218833D01*
X156777093Y-62190262D01*
X156862807Y-62190262D01*
X156977093Y-62218833D01*
X157034236Y-62247405D01*
X157091379Y-62304547D01*
X157119950Y-62390262D01*
X157119950Y-62447405D01*
X157091379Y-62533119D01*
X157062807Y-62561690D01*
X105243380Y-81851476D02*
X105243380Y-82327666D01*
X105719571Y-82375285D01*
X105671952Y-82327666D01*
X105624333Y-82232428D01*
X105624333Y-81994333D01*
X105671952Y-81899095D01*
X105719571Y-81851476D01*
X105814809Y-81803857D01*
X106052904Y-81803857D01*
X106148142Y-81851476D01*
X106195761Y-81899095D01*
X106243380Y-81994333D01*
X106243380Y-82232428D01*
X106195761Y-82327666D01*
X106148142Y-82375285D01*
X105243380Y-81518142D02*
X106243380Y-81184809D01*
X105243380Y-80851476D01*
X105352380Y-62241476D02*
X105352380Y-62717666D01*
X105828571Y-62765285D01*
X105780952Y-62717666D01*
X105733333Y-62622428D01*
X105733333Y-62384333D01*
X105780952Y-62289095D01*
X105828571Y-62241476D01*
X105923809Y-62193857D01*
X106161904Y-62193857D01*
X106257142Y-62241476D01*
X106304761Y-62289095D01*
X106352380Y-62384333D01*
X106352380Y-62622428D01*
X106304761Y-62717666D01*
X106257142Y-62765285D01*
X105352380Y-61908142D02*
X106352380Y-61574809D01*
X105352380Y-61241476D01*
X105243380Y-80111476D02*
X105243380Y-79616238D01*
X105624333Y-79882904D01*
X105624333Y-79768619D01*
X105671952Y-79692428D01*
X105719571Y-79654333D01*
X105814809Y-79616238D01*
X106052904Y-79616238D01*
X106148142Y-79654333D01*
X106195761Y-79692428D01*
X106243380Y-79768619D01*
X106243380Y-79997190D01*
X106195761Y-80073380D01*
X106148142Y-80111476D01*
X105243380Y-79387666D02*
X106243380Y-79121000D01*
X105243380Y-78854333D01*
X105243380Y-78663857D02*
X105243380Y-78168619D01*
X105624333Y-78435285D01*
X105624333Y-78321000D01*
X105671952Y-78244809D01*
X105719571Y-78206714D01*
X105814809Y-78168619D01*
X106052904Y-78168619D01*
X106148142Y-78206714D01*
X106195761Y-78244809D01*
X106243380Y-78321000D01*
X106243380Y-78549571D01*
X106195761Y-78625761D01*
X106148142Y-78663857D01*
X155872683Y-76381904D02*
X155920302Y-76286666D01*
X155920302Y-76143809D01*
X155872683Y-76000952D01*
X155777444Y-75905714D01*
X155682206Y-75858095D01*
X155491730Y-75810476D01*
X155348873Y-75810476D01*
X155158397Y-75858095D01*
X155063159Y-75905714D01*
X154967921Y-76000952D01*
X154920302Y-76143809D01*
X154920302Y-76239047D01*
X154967921Y-76381904D01*
X155015540Y-76429523D01*
X155348873Y-76429523D01*
X155348873Y-76239047D01*
X105393619Y-91157714D02*
X105346000Y-91110095D01*
X105298380Y-91014857D01*
X105298380Y-90776761D01*
X105346000Y-90681523D01*
X105393619Y-90633904D01*
X105488857Y-90586285D01*
X105584095Y-90586285D01*
X105726952Y-90633904D01*
X106298380Y-91205333D01*
X106298380Y-90586285D01*
X154858263Y-90949523D02*
X155858263Y-90949523D01*
X155858263Y-91140000D01*
X155810644Y-91254285D01*
X155715405Y-91330476D01*
X155620167Y-91368571D01*
X155429691Y-91406666D01*
X155286834Y-91406666D01*
X155096358Y-91368571D01*
X155001120Y-91330476D01*
X154905882Y-91254285D01*
X154858263Y-91140000D01*
X154858263Y-90949523D01*
X155763024Y-91711428D02*
X155810644Y-91749523D01*
X155858263Y-91825714D01*
X155858263Y-92016190D01*
X155810644Y-92092380D01*
X155763024Y-92130476D01*
X155667786Y-92168571D01*
X155572548Y-92168571D01*
X155429691Y-92130476D01*
X154858263Y-91673333D01*
X154858263Y-92168571D01*
%TO.C,Q2*%
X126822619Y-107410238D02*
X126775000Y-107505476D01*
X126679761Y-107600714D01*
X126536904Y-107743571D01*
X126489285Y-107838809D01*
X126489285Y-107934047D01*
X126727380Y-107886428D02*
X126679761Y-107981666D01*
X126584523Y-108076904D01*
X126394047Y-108124523D01*
X126060714Y-108124523D01*
X125870238Y-108076904D01*
X125775000Y-107981666D01*
X125727380Y-107886428D01*
X125727380Y-107695952D01*
X125775000Y-107600714D01*
X125870238Y-107505476D01*
X126060714Y-107457857D01*
X126394047Y-107457857D01*
X126584523Y-107505476D01*
X126679761Y-107600714D01*
X126727380Y-107695952D01*
X126727380Y-107886428D01*
X125822619Y-107076904D02*
X125775000Y-107029285D01*
X125727380Y-106934047D01*
X125727380Y-106695952D01*
X125775000Y-106600714D01*
X125822619Y-106553095D01*
X125917857Y-106505476D01*
X126013095Y-106505476D01*
X126155952Y-106553095D01*
X126727380Y-107124523D01*
X126727380Y-106505476D01*
%TO.C,Q1*%
X128809761Y-78107619D02*
X128714523Y-78060000D01*
X128619285Y-77964761D01*
X128476428Y-77821904D01*
X128381190Y-77774285D01*
X128285952Y-77774285D01*
X128333571Y-78012380D02*
X128238333Y-77964761D01*
X128143095Y-77869523D01*
X128095476Y-77679047D01*
X128095476Y-77345714D01*
X128143095Y-77155238D01*
X128238333Y-77060000D01*
X128333571Y-77012380D01*
X128524047Y-77012380D01*
X128619285Y-77060000D01*
X128714523Y-77155238D01*
X128762142Y-77345714D01*
X128762142Y-77679047D01*
X128714523Y-77869523D01*
X128619285Y-77964761D01*
X128524047Y-78012380D01*
X128333571Y-78012380D01*
X129714523Y-78012380D02*
X129143095Y-78012380D01*
X129428809Y-78012380D02*
X129428809Y-77012380D01*
X129333571Y-77155238D01*
X129238333Y-77250476D01*
X129143095Y-77298095D01*
%TO.C,U3*%
X140758095Y-105227380D02*
X140758095Y-106036904D01*
X140805714Y-106132142D01*
X140853333Y-106179761D01*
X140948571Y-106227380D01*
X141139047Y-106227380D01*
X141234285Y-106179761D01*
X141281904Y-106132142D01*
X141329523Y-106036904D01*
X141329523Y-105227380D01*
X141710476Y-105227380D02*
X142329523Y-105227380D01*
X141996190Y-105608333D01*
X142139047Y-105608333D01*
X142234285Y-105655952D01*
X142281904Y-105703571D01*
X142329523Y-105798809D01*
X142329523Y-106036904D01*
X142281904Y-106132142D01*
X142234285Y-106179761D01*
X142139047Y-106227380D01*
X141853333Y-106227380D01*
X141758095Y-106179761D01*
X141710476Y-106132142D01*
X123764285Y-68838571D02*
X124097619Y-68838571D01*
X124240476Y-69362380D02*
X123764285Y-69362380D01*
X123764285Y-68362380D01*
X124240476Y-68362380D01*
X124621428Y-69314761D02*
X124764285Y-69362380D01*
X125002380Y-69362380D01*
X125097619Y-69314761D01*
X125145238Y-69267142D01*
X125192857Y-69171904D01*
X125192857Y-69076666D01*
X125145238Y-68981428D01*
X125097619Y-68933809D01*
X125002380Y-68886190D01*
X124811904Y-68838571D01*
X124716666Y-68790952D01*
X124669047Y-68743333D01*
X124621428Y-68648095D01*
X124621428Y-68552857D01*
X124669047Y-68457619D01*
X124716666Y-68410000D01*
X124811904Y-68362380D01*
X125050000Y-68362380D01*
X125192857Y-68410000D01*
X125621428Y-69362380D02*
X125621428Y-68362380D01*
X126002380Y-68362380D01*
X126097619Y-68410000D01*
X126145238Y-68457619D01*
X126192857Y-68552857D01*
X126192857Y-68695714D01*
X126145238Y-68790952D01*
X126097619Y-68838571D01*
X126002380Y-68886190D01*
X125621428Y-68886190D01*
X126526190Y-68362380D02*
X127145238Y-68362380D01*
X126811904Y-68743333D01*
X126954761Y-68743333D01*
X127050000Y-68790952D01*
X127097619Y-68838571D01*
X127145238Y-68933809D01*
X127145238Y-69171904D01*
X127097619Y-69267142D01*
X127050000Y-69314761D01*
X126954761Y-69362380D01*
X126669047Y-69362380D01*
X126573809Y-69314761D01*
X126526190Y-69267142D01*
X127526190Y-68457619D02*
X127573809Y-68410000D01*
X127669047Y-68362380D01*
X127907142Y-68362380D01*
X128002380Y-68410000D01*
X128050000Y-68457619D01*
X128097619Y-68552857D01*
X128097619Y-68648095D01*
X128050000Y-68790952D01*
X127478571Y-69362380D01*
X128097619Y-69362380D01*
X128526190Y-68981428D02*
X129288095Y-68981428D01*
X129764285Y-69362380D02*
X129764285Y-68362380D01*
X130002380Y-68362380D01*
X130145238Y-68410000D01*
X130240476Y-68505238D01*
X130288095Y-68600476D01*
X130335714Y-68790952D01*
X130335714Y-68933809D01*
X130288095Y-69124285D01*
X130240476Y-69219523D01*
X130145238Y-69314761D01*
X130002380Y-69362380D01*
X129764285Y-69362380D01*
X130764285Y-68838571D02*
X131097619Y-68838571D01*
X131240476Y-69362380D02*
X130764285Y-69362380D01*
X130764285Y-68362380D01*
X131240476Y-68362380D01*
X131526190Y-68362380D02*
X131859523Y-69362380D01*
X132192857Y-68362380D01*
X132526190Y-69362380D02*
X132526190Y-68362380D01*
X133097619Y-69362380D02*
X132669047Y-68790952D01*
X133097619Y-68362380D02*
X132526190Y-68933809D01*
X133526190Y-69362380D02*
X133526190Y-68362380D01*
X133859523Y-68362380D02*
X134430952Y-68362380D01*
X134145238Y-69362380D02*
X134145238Y-68362380D01*
X134764285Y-68981428D02*
X135526190Y-68981428D01*
X135859523Y-68362380D02*
X136192857Y-69362380D01*
X136526190Y-68362380D01*
X137383333Y-69362380D02*
X136811904Y-69362380D01*
X137097619Y-69362380D02*
X137097619Y-68362380D01*
X137002380Y-68505238D01*
X136907142Y-68600476D01*
X136811904Y-68648095D01*
%TO.C,J4*%
X127936666Y-114672380D02*
X127936666Y-115386666D01*
X127889047Y-115529523D01*
X127793809Y-115624761D01*
X127650952Y-115672380D01*
X127555714Y-115672380D01*
X128841428Y-115005714D02*
X128841428Y-115672380D01*
X128603333Y-114624761D02*
X128365238Y-115339047D01*
X128984285Y-115339047D01*
X123991666Y-119868095D02*
X123991666Y-119391904D01*
X124277380Y-119963333D02*
X123277380Y-119630000D01*
X124277380Y-119296666D01*
X123753571Y-118630000D02*
X123801190Y-118487142D01*
X123848809Y-118439523D01*
X123944047Y-118391904D01*
X124086904Y-118391904D01*
X124182142Y-118439523D01*
X124229761Y-118487142D01*
X124277380Y-118582380D01*
X124277380Y-118963333D01*
X123277380Y-118963333D01*
X123277380Y-118630000D01*
X123325000Y-118534761D01*
X123372619Y-118487142D01*
X123467857Y-118439523D01*
X123563095Y-118439523D01*
X123658333Y-118487142D01*
X123705952Y-118534761D01*
X123753571Y-118630000D01*
X123753571Y-118963333D01*
%TO.C,D5*%
X115347380Y-91543095D02*
X114347380Y-91543095D01*
X114347380Y-91305000D01*
X114395000Y-91162142D01*
X114490238Y-91066904D01*
X114585476Y-91019285D01*
X114775952Y-90971666D01*
X114918809Y-90971666D01*
X115109285Y-91019285D01*
X115204523Y-91066904D01*
X115299761Y-91162142D01*
X115347380Y-91305000D01*
X115347380Y-91543095D01*
X114347380Y-90066904D02*
X114347380Y-90543095D01*
X114823571Y-90590714D01*
X114775952Y-90543095D01*
X114728333Y-90447857D01*
X114728333Y-90209761D01*
X114775952Y-90114523D01*
X114823571Y-90066904D01*
X114918809Y-90019285D01*
X115156904Y-90019285D01*
X115252142Y-90066904D01*
X115299761Y-90114523D01*
X115347380Y-90209761D01*
X115347380Y-90447857D01*
X115299761Y-90543095D01*
X115252142Y-90590714D01*
%TO.C,U2*%
X141468095Y-114817380D02*
X141468095Y-115626904D01*
X141515714Y-115722142D01*
X141563333Y-115769761D01*
X141658571Y-115817380D01*
X141849047Y-115817380D01*
X141944285Y-115769761D01*
X141991904Y-115722142D01*
X142039523Y-115626904D01*
X142039523Y-114817380D01*
X142468095Y-114912619D02*
X142515714Y-114865000D01*
X142610952Y-114817380D01*
X142849047Y-114817380D01*
X142944285Y-114865000D01*
X142991904Y-114912619D01*
X143039523Y-115007857D01*
X143039523Y-115103095D01*
X142991904Y-115245952D01*
X142420476Y-115817380D01*
X143039523Y-115817380D01*
%TO.C,H1*%
X104238095Y-51552380D02*
X104238095Y-50552380D01*
X104238095Y-51028571D02*
X104809523Y-51028571D01*
X104809523Y-51552380D02*
X104809523Y-50552380D01*
X105809523Y-51552380D02*
X105238095Y-51552380D01*
X105523809Y-51552380D02*
X105523809Y-50552380D01*
X105428571Y-50695238D01*
X105333333Y-50790476D01*
X105238095Y-50838095D01*
%TO.C,R6*%
X140532380Y-106846666D02*
X140056190Y-107180000D01*
X140532380Y-107418095D02*
X139532380Y-107418095D01*
X139532380Y-107037142D01*
X139580000Y-106941904D01*
X139627619Y-106894285D01*
X139722857Y-106846666D01*
X139865714Y-106846666D01*
X139960952Y-106894285D01*
X140008571Y-106941904D01*
X140056190Y-107037142D01*
X140056190Y-107418095D01*
X139532380Y-105989523D02*
X139532380Y-106180000D01*
X139580000Y-106275238D01*
X139627619Y-106322857D01*
X139770476Y-106418095D01*
X139960952Y-106465714D01*
X140341904Y-106465714D01*
X140437142Y-106418095D01*
X140484761Y-106370476D01*
X140532380Y-106275238D01*
X140532380Y-106084761D01*
X140484761Y-105989523D01*
X140437142Y-105941904D01*
X140341904Y-105894285D01*
X140103809Y-105894285D01*
X140008571Y-105941904D01*
X139960952Y-105989523D01*
X139913333Y-106084761D01*
X139913333Y-106275238D01*
X139960952Y-106370476D01*
X140008571Y-106418095D01*
X140103809Y-106465714D01*
%TO.C,J2*%
X152066666Y-85582380D02*
X152066666Y-86296666D01*
X152019047Y-86439523D01*
X151923809Y-86534761D01*
X151780952Y-86582380D01*
X151685714Y-86582380D01*
X152495238Y-85677619D02*
X152542857Y-85630000D01*
X152638095Y-85582380D01*
X152876190Y-85582380D01*
X152971428Y-85630000D01*
X153019047Y-85677619D01*
X153066666Y-85772857D01*
X153066666Y-85868095D01*
X153019047Y-86010952D01*
X152447619Y-86582380D01*
X153066666Y-86582380D01*
%TO.C,D1*%
X135552380Y-95988095D02*
X134552380Y-95988095D01*
X134552380Y-95750000D01*
X134600000Y-95607142D01*
X134695238Y-95511904D01*
X134790476Y-95464285D01*
X134980952Y-95416666D01*
X135123809Y-95416666D01*
X135314285Y-95464285D01*
X135409523Y-95511904D01*
X135504761Y-95607142D01*
X135552380Y-95750000D01*
X135552380Y-95988095D01*
X135552380Y-94464285D02*
X135552380Y-95035714D01*
X135552380Y-94750000D02*
X134552380Y-94750000D01*
X134695238Y-94845238D01*
X134790476Y-94940476D01*
X134838095Y-95035714D01*
%TO.C,J1*%
X152066666Y-57642380D02*
X152066666Y-58356666D01*
X152019047Y-58499523D01*
X151923809Y-58594761D01*
X151780952Y-58642380D01*
X151685714Y-58642380D01*
X153066666Y-58642380D02*
X152495238Y-58642380D01*
X152780952Y-58642380D02*
X152780952Y-57642380D01*
X152685714Y-57785238D01*
X152590476Y-57880476D01*
X152495238Y-57928095D01*
%TO.C,J7*%
X108251666Y-73517380D02*
X108251666Y-74231666D01*
X108204047Y-74374523D01*
X108108809Y-74469761D01*
X107965952Y-74517380D01*
X107870714Y-74517380D01*
X108632619Y-73517380D02*
X109299285Y-73517380D01*
X108870714Y-74517380D01*
%TO.C,D3*%
X130706904Y-111422380D02*
X130706904Y-110422380D01*
X130945000Y-110422380D01*
X131087857Y-110470000D01*
X131183095Y-110565238D01*
X131230714Y-110660476D01*
X131278333Y-110850952D01*
X131278333Y-110993809D01*
X131230714Y-111184285D01*
X131183095Y-111279523D01*
X131087857Y-111374761D01*
X130945000Y-111422380D01*
X130706904Y-111422380D01*
X131611666Y-110422380D02*
X132230714Y-110422380D01*
X131897380Y-110803333D01*
X132040238Y-110803333D01*
X132135476Y-110850952D01*
X132183095Y-110898571D01*
X132230714Y-110993809D01*
X132230714Y-111231904D01*
X132183095Y-111327142D01*
X132135476Y-111374761D01*
X132040238Y-111422380D01*
X131754523Y-111422380D01*
X131659285Y-111374761D01*
X131611666Y-111327142D01*
%TO.C,U1*%
X124968095Y-91317380D02*
X124968095Y-92126904D01*
X125015714Y-92222142D01*
X125063333Y-92269761D01*
X125158571Y-92317380D01*
X125349047Y-92317380D01*
X125444285Y-92269761D01*
X125491904Y-92222142D01*
X125539523Y-92126904D01*
X125539523Y-91317380D01*
X126539523Y-92317380D02*
X125968095Y-92317380D01*
X126253809Y-92317380D02*
X126253809Y-91317380D01*
X126158571Y-91460238D01*
X126063333Y-91555476D01*
X125968095Y-91603095D01*
%TO.C,D2*%
X124991904Y-98837380D02*
X124991904Y-97837380D01*
X125230000Y-97837380D01*
X125372857Y-97885000D01*
X125468095Y-97980238D01*
X125515714Y-98075476D01*
X125563333Y-98265952D01*
X125563333Y-98408809D01*
X125515714Y-98599285D01*
X125468095Y-98694523D01*
X125372857Y-98789761D01*
X125230000Y-98837380D01*
X124991904Y-98837380D01*
X125944285Y-97932619D02*
X125991904Y-97885000D01*
X126087142Y-97837380D01*
X126325238Y-97837380D01*
X126420476Y-97885000D01*
X126468095Y-97932619D01*
X126515714Y-98027857D01*
X126515714Y-98123095D01*
X126468095Y-98265952D01*
X125896666Y-98837380D01*
X126515714Y-98837380D01*
%TO.C,J9*%
X108251666Y-58748380D02*
X108251666Y-59462666D01*
X108204047Y-59605523D01*
X108108809Y-59700761D01*
X107965952Y-59748380D01*
X107870714Y-59748380D01*
X108775476Y-59748380D02*
X108965952Y-59748380D01*
X109061190Y-59700761D01*
X109108809Y-59653142D01*
X109204047Y-59510285D01*
X109251666Y-59319809D01*
X109251666Y-58938857D01*
X109204047Y-58843619D01*
X109156428Y-58796000D01*
X109061190Y-58748380D01*
X108870714Y-58748380D01*
X108775476Y-58796000D01*
X108727857Y-58843619D01*
X108680238Y-58938857D01*
X108680238Y-59176952D01*
X108727857Y-59272190D01*
X108775476Y-59319809D01*
X108870714Y-59367428D01*
X109061190Y-59367428D01*
X109156428Y-59319809D01*
X109204047Y-59272190D01*
X109251666Y-59176952D01*
%TO.C,H2*%
X154238095Y-51552380D02*
X154238095Y-50552380D01*
X154238095Y-51028571D02*
X154809523Y-51028571D01*
X154809523Y-51552380D02*
X154809523Y-50552380D01*
X155238095Y-50647619D02*
X155285714Y-50600000D01*
X155380952Y-50552380D01*
X155619047Y-50552380D01*
X155714285Y-50600000D01*
X155761904Y-50647619D01*
X155809523Y-50742857D01*
X155809523Y-50838095D01*
X155761904Y-50980952D01*
X155190476Y-51552380D01*
X155809523Y-51552380D01*
%TO.C,R5*%
X123023333Y-82622380D02*
X122690000Y-82146190D01*
X122451904Y-82622380D02*
X122451904Y-81622380D01*
X122832857Y-81622380D01*
X122928095Y-81670000D01*
X122975714Y-81717619D01*
X123023333Y-81812857D01*
X123023333Y-81955714D01*
X122975714Y-82050952D01*
X122928095Y-82098571D01*
X122832857Y-82146190D01*
X122451904Y-82146190D01*
X123928095Y-81622380D02*
X123451904Y-81622380D01*
X123404285Y-82098571D01*
X123451904Y-82050952D01*
X123547142Y-82003333D01*
X123785238Y-82003333D01*
X123880476Y-82050952D01*
X123928095Y-82098571D01*
X123975714Y-82193809D01*
X123975714Y-82431904D01*
X123928095Y-82527142D01*
X123880476Y-82574761D01*
X123785238Y-82622380D01*
X123547142Y-82622380D01*
X123451904Y-82574761D01*
X123404285Y-82527142D01*
%TO.C,D4*%
X130801904Y-115982380D02*
X130801904Y-114982380D01*
X131040000Y-114982380D01*
X131182857Y-115030000D01*
X131278095Y-115125238D01*
X131325714Y-115220476D01*
X131373333Y-115410952D01*
X131373333Y-115553809D01*
X131325714Y-115744285D01*
X131278095Y-115839523D01*
X131182857Y-115934761D01*
X131040000Y-115982380D01*
X130801904Y-115982380D01*
X132230476Y-115315714D02*
X132230476Y-115982380D01*
X131992380Y-114934761D02*
X131754285Y-115649047D01*
X132373333Y-115649047D01*
%TO.C,R8*%
X115132380Y-97044166D02*
X114656190Y-97377500D01*
X115132380Y-97615595D02*
X114132380Y-97615595D01*
X114132380Y-97234642D01*
X114180000Y-97139404D01*
X114227619Y-97091785D01*
X114322857Y-97044166D01*
X114465714Y-97044166D01*
X114560952Y-97091785D01*
X114608571Y-97139404D01*
X114656190Y-97234642D01*
X114656190Y-97615595D01*
X114560952Y-96472738D02*
X114513333Y-96567976D01*
X114465714Y-96615595D01*
X114370476Y-96663214D01*
X114322857Y-96663214D01*
X114227619Y-96615595D01*
X114180000Y-96567976D01*
X114132380Y-96472738D01*
X114132380Y-96282261D01*
X114180000Y-96187023D01*
X114227619Y-96139404D01*
X114322857Y-96091785D01*
X114370476Y-96091785D01*
X114465714Y-96139404D01*
X114513333Y-96187023D01*
X114560952Y-96282261D01*
X114560952Y-96472738D01*
X114608571Y-96567976D01*
X114656190Y-96615595D01*
X114751428Y-96663214D01*
X114941904Y-96663214D01*
X115037142Y-96615595D01*
X115084761Y-96567976D01*
X115132380Y-96472738D01*
X115132380Y-96282261D01*
X115084761Y-96187023D01*
X115037142Y-96139404D01*
X114941904Y-96091785D01*
X114751428Y-96091785D01*
X114656190Y-96139404D01*
X114608571Y-96187023D01*
X114560952Y-96282261D01*
%TO.C,R3*%
X119213333Y-99257380D02*
X118880000Y-98781190D01*
X118641904Y-99257380D02*
X118641904Y-98257380D01*
X119022857Y-98257380D01*
X119118095Y-98305000D01*
X119165714Y-98352619D01*
X119213333Y-98447857D01*
X119213333Y-98590714D01*
X119165714Y-98685952D01*
X119118095Y-98733571D01*
X119022857Y-98781190D01*
X118641904Y-98781190D01*
X119546666Y-98257380D02*
X120165714Y-98257380D01*
X119832380Y-98638333D01*
X119975238Y-98638333D01*
X120070476Y-98685952D01*
X120118095Y-98733571D01*
X120165714Y-98828809D01*
X120165714Y-99066904D01*
X120118095Y-99162142D01*
X120070476Y-99209761D01*
X119975238Y-99257380D01*
X119689523Y-99257380D01*
X119594285Y-99209761D01*
X119546666Y-99162142D01*
%TO.C,R2*%
X132548333Y-89097380D02*
X132215000Y-88621190D01*
X131976904Y-89097380D02*
X131976904Y-88097380D01*
X132357857Y-88097380D01*
X132453095Y-88145000D01*
X132500714Y-88192619D01*
X132548333Y-88287857D01*
X132548333Y-88430714D01*
X132500714Y-88525952D01*
X132453095Y-88573571D01*
X132357857Y-88621190D01*
X131976904Y-88621190D01*
X132929285Y-88192619D02*
X132976904Y-88145000D01*
X133072142Y-88097380D01*
X133310238Y-88097380D01*
X133405476Y-88145000D01*
X133453095Y-88192619D01*
X133500714Y-88287857D01*
X133500714Y-88383095D01*
X133453095Y-88525952D01*
X132881666Y-89097380D01*
X133500714Y-89097380D01*
%TO.C,J8*%
X152066666Y-72882380D02*
X152066666Y-73596666D01*
X152019047Y-73739523D01*
X151923809Y-73834761D01*
X151780952Y-73882380D01*
X151685714Y-73882380D01*
X152685714Y-73310952D02*
X152590476Y-73263333D01*
X152542857Y-73215714D01*
X152495238Y-73120476D01*
X152495238Y-73072857D01*
X152542857Y-72977619D01*
X152590476Y-72930000D01*
X152685714Y-72882380D01*
X152876190Y-72882380D01*
X152971428Y-72930000D01*
X153019047Y-72977619D01*
X153066666Y-73072857D01*
X153066666Y-73120476D01*
X153019047Y-73215714D01*
X152971428Y-73263333D01*
X152876190Y-73310952D01*
X152685714Y-73310952D01*
X152590476Y-73358571D01*
X152542857Y-73406190D01*
X152495238Y-73501428D01*
X152495238Y-73691904D01*
X152542857Y-73787142D01*
X152590476Y-73834761D01*
X152685714Y-73882380D01*
X152876190Y-73882380D01*
X152971428Y-73834761D01*
X153019047Y-73787142D01*
X153066666Y-73691904D01*
X153066666Y-73501428D01*
X153019047Y-73406190D01*
X152971428Y-73358571D01*
X152876190Y-73310952D01*
%TO.C,J3*%
X108276666Y-84967380D02*
X108276666Y-85681666D01*
X108229047Y-85824523D01*
X108133809Y-85919761D01*
X107990952Y-85967380D01*
X107895714Y-85967380D01*
X108657619Y-84967380D02*
X109276666Y-84967380D01*
X108943333Y-85348333D01*
X109086190Y-85348333D01*
X109181428Y-85395952D01*
X109229047Y-85443571D01*
X109276666Y-85538809D01*
X109276666Y-85776904D01*
X109229047Y-85872142D01*
X109181428Y-85919761D01*
X109086190Y-85967380D01*
X108800476Y-85967380D01*
X108705238Y-85919761D01*
X108657619Y-85872142D01*
%TO.C,H4*%
X104238095Y-116552380D02*
X104238095Y-115552380D01*
X104238095Y-116028571D02*
X104809523Y-116028571D01*
X104809523Y-116552380D02*
X104809523Y-115552380D01*
X105714285Y-115885714D02*
X105714285Y-116552380D01*
X105476190Y-115504761D02*
X105238095Y-116219047D01*
X105857142Y-116219047D01*
%TO.C,H3*%
X154238095Y-116552380D02*
X154238095Y-115552380D01*
X154238095Y-116028571D02*
X154809523Y-116028571D01*
X154809523Y-116552380D02*
X154809523Y-115552380D01*
X155190476Y-115552380D02*
X155809523Y-115552380D01*
X155476190Y-115933333D01*
X155619047Y-115933333D01*
X155714285Y-115980952D01*
X155761904Y-116028571D01*
X155809523Y-116123809D01*
X155809523Y-116361904D01*
X155761904Y-116457142D01*
X155714285Y-116504761D01*
X155619047Y-116552380D01*
X155333333Y-116552380D01*
X155238095Y-116504761D01*
X155190476Y-116457142D01*
%TO.C,R4*%
X136087380Y-81446666D02*
X135611190Y-81780000D01*
X136087380Y-82018095D02*
X135087380Y-82018095D01*
X135087380Y-81637142D01*
X135135000Y-81541904D01*
X135182619Y-81494285D01*
X135277857Y-81446666D01*
X135420714Y-81446666D01*
X135515952Y-81494285D01*
X135563571Y-81541904D01*
X135611190Y-81637142D01*
X135611190Y-82018095D01*
X135420714Y-80589523D02*
X136087380Y-80589523D01*
X135039761Y-80827619D02*
X135754047Y-81065714D01*
X135754047Y-80446666D01*
%TO.C,R7*%
X150057380Y-92876666D02*
X149581190Y-93210000D01*
X150057380Y-93448095D02*
X149057380Y-93448095D01*
X149057380Y-93067142D01*
X149105000Y-92971904D01*
X149152619Y-92924285D01*
X149247857Y-92876666D01*
X149390714Y-92876666D01*
X149485952Y-92924285D01*
X149533571Y-92971904D01*
X149581190Y-93067142D01*
X149581190Y-93448095D01*
X149057380Y-92543333D02*
X149057380Y-91876666D01*
X150057380Y-92305238D01*
%TO.C,R1*%
X123023333Y-80842380D02*
X122690000Y-80366190D01*
X122451904Y-80842380D02*
X122451904Y-79842380D01*
X122832857Y-79842380D01*
X122928095Y-79890000D01*
X122975714Y-79937619D01*
X123023333Y-80032857D01*
X123023333Y-80175714D01*
X122975714Y-80270952D01*
X122928095Y-80318571D01*
X122832857Y-80366190D01*
X122451904Y-80366190D01*
X123975714Y-80842380D02*
X123404285Y-80842380D01*
X123690000Y-80842380D02*
X123690000Y-79842380D01*
X123594761Y-79985238D01*
X123499523Y-80080476D01*
X123404285Y-80128095D01*
%TO.C,J11*%
X107800476Y-93867380D02*
X107800476Y-94581666D01*
X107752857Y-94724523D01*
X107657619Y-94819761D01*
X107514761Y-94867380D01*
X107419523Y-94867380D01*
X108800476Y-94867380D02*
X108229047Y-94867380D01*
X108514761Y-94867380D02*
X108514761Y-93867380D01*
X108419523Y-94010238D01*
X108324285Y-94105476D01*
X108229047Y-94153095D01*
X109752857Y-94867380D02*
X109181428Y-94867380D01*
X109467142Y-94867380D02*
X109467142Y-93867380D01*
X109371904Y-94010238D01*
X109276666Y-94105476D01*
X109181428Y-94153095D01*
D11*
%TO.C,Q2*%
X122275000Y-108265000D02*
X122275000Y-106415000D01*
X125325000Y-108265000D02*
X124325000Y-108265000D01*
X125335000Y-108245000D02*
X125335000Y-105815000D01*
X123325000Y-108265000D02*
X122275000Y-108265000D01*
%TO.C,Q1*%
X129855000Y-81560000D02*
X128005000Y-81560000D01*
X129855000Y-78510000D02*
X129855000Y-79510000D01*
X129835000Y-78500000D02*
X127405000Y-78500000D01*
X129855000Y-80510000D02*
X129855000Y-81560000D01*
D14*
%TO.C,U3*%
X144445000Y-52940000D02*
X144445000Y-103890000D01*
X144445000Y-103890000D02*
X133376000Y-103890000D01*
X115935000Y-103890000D02*
X115935000Y-52940000D01*
X115935000Y-103890000D02*
X115935000Y-52940000D01*
X144445000Y-103890000D02*
X115935000Y-103890000D01*
X126665000Y-103890000D02*
X115935000Y-103890000D01*
X115935000Y-52940000D02*
X144445000Y-52940000D01*
X121385000Y-52940000D02*
X115935000Y-52940000D01*
X139075000Y-52940000D02*
X121385000Y-52940000D01*
X133376000Y-103890000D02*
X126665000Y-103890000D01*
X144445000Y-52940000D02*
X139075000Y-52940000D01*
X144445000Y-52940000D02*
X144445000Y-103890000D01*
D15*
X145115000Y-93930000D02*
G75*
G03*
X145115000Y-93930000I-100000J0D01*
G01*
D11*
%TO.C,J4*%
X130330000Y-122540000D02*
X131100000Y-122540000D01*
X127790000Y-121980000D02*
X128750000Y-121980000D01*
X131100000Y-116220000D02*
X131100000Y-122540000D01*
X125440000Y-121980000D02*
X126210000Y-121980000D01*
X125440000Y-116680000D02*
X131100000Y-116680000D01*
X125440000Y-116220000D02*
X131100000Y-116220000D01*
X127790000Y-122540000D02*
X128750000Y-122540000D01*
X125200000Y-122780000D02*
X125700000Y-122780000D01*
X130330000Y-121980000D02*
X131100000Y-121980000D01*
X125440000Y-122540000D02*
X126210000Y-122540000D01*
X125440000Y-116220000D02*
X125440000Y-122540000D01*
X125200000Y-122040000D02*
X125200000Y-122780000D01*
%TO.C,D5*%
X114045000Y-87405000D02*
X110745000Y-87405000D01*
X110745000Y-87405000D02*
X110745000Y-92805000D01*
X114045000Y-87405000D02*
X114045000Y-92805000D01*
%TO.C,U2*%
X139580000Y-109165000D02*
X139580000Y-114365000D01*
X144880000Y-114365000D02*
X144880000Y-109165000D01*
X139580000Y-114365000D02*
X141230000Y-114365000D01*
X144880000Y-109165000D02*
X139580000Y-109165000D01*
X143230000Y-114365000D02*
X144880000Y-114365000D01*
X143230000Y-114365000D02*
G75*
G03*
X141230000Y-114365000I-1000000J0D01*
G01*
%TO.C,R6*%
X137695000Y-106452936D02*
X137695000Y-106907064D01*
X139165000Y-106452936D02*
X139165000Y-106907064D01*
%TO.C,J2*%
X153730000Y-90170000D02*
X153730000Y-97850000D01*
X153730000Y-87570000D02*
X153730000Y-88900000D01*
X151070000Y-97850000D02*
X153730000Y-97850000D01*
X151070000Y-90170000D02*
X151070000Y-97850000D01*
X151070000Y-90170000D02*
X153730000Y-90170000D01*
X152400000Y-87570000D02*
X153730000Y-87570000D01*
%TO.C,D1*%
X134350000Y-98000000D02*
X134350000Y-90700000D01*
X134350000Y-90700000D02*
X132350000Y-90700000D01*
X132350000Y-90700000D02*
X132350000Y-98000000D01*
%TO.C,J1*%
X151070000Y-69910000D02*
X153730000Y-69910000D01*
X152400000Y-59630000D02*
X153730000Y-59630000D01*
X153730000Y-59630000D02*
X153730000Y-60960000D01*
X151070000Y-62230000D02*
X151070000Y-69910000D01*
X153730000Y-62230000D02*
X153730000Y-69910000D01*
X151070000Y-62230000D02*
X153730000Y-62230000D01*
%TO.C,J7*%
X107255000Y-78105000D02*
X109915000Y-78105000D01*
X107255000Y-78105000D02*
X107255000Y-83245000D01*
X109915000Y-75505000D02*
X109915000Y-76835000D01*
X109915000Y-78105000D02*
X109915000Y-83245000D01*
X107255000Y-83245000D02*
X109915000Y-83245000D01*
X108585000Y-75505000D02*
X109915000Y-75505000D01*
%TO.C,D3*%
X135995000Y-108220000D02*
X128695000Y-108220000D01*
X135995000Y-110220000D02*
X135995000Y-108220000D01*
X128695000Y-110220000D02*
X135995000Y-110220000D01*
%TO.C,U1*%
X128380000Y-85665000D02*
X123080000Y-85665000D01*
X123080000Y-90865000D02*
X124730000Y-90865000D01*
X123080000Y-85665000D02*
X123080000Y-90865000D01*
X126730000Y-90865000D02*
X128380000Y-90865000D01*
X128380000Y-90865000D02*
X128380000Y-85665000D01*
X126730000Y-90865000D02*
G75*
G03*
X124730000Y-90865000I-1000000J0D01*
G01*
%TO.C,D2*%
X129130000Y-97535000D02*
X123730000Y-97535000D01*
X129130000Y-94235000D02*
X123730000Y-94235000D01*
X129130000Y-97535000D02*
X129130000Y-94235000D01*
%TO.C,J9*%
X107255000Y-63336000D02*
X107255000Y-68476000D01*
X107255000Y-63336000D02*
X109915000Y-63336000D01*
X109915000Y-63336000D02*
X109915000Y-68476000D01*
X108585000Y-60736000D02*
X109915000Y-60736000D01*
X107255000Y-68476000D02*
X109915000Y-68476000D01*
X109915000Y-60736000D02*
X109915000Y-62066000D01*
%TO.C,R5*%
X122962936Y-84555000D02*
X123417064Y-84555000D01*
X122962936Y-83085000D02*
X123417064Y-83085000D01*
%TO.C,D4*%
X134940000Y-111380000D02*
X129540000Y-111380000D01*
X134940000Y-114680000D02*
X134940000Y-111380000D01*
X134940000Y-114680000D02*
X129540000Y-114680000D01*
%TO.C,R8*%
X112295000Y-96650436D02*
X112295000Y-97104564D01*
X113765000Y-96650436D02*
X113765000Y-97104564D01*
%TO.C,R3*%
X119607064Y-97890000D02*
X119152936Y-97890000D01*
X119607064Y-96420000D02*
X119152936Y-96420000D01*
%TO.C,R2*%
X132942064Y-86260000D02*
X132487936Y-86260000D01*
X132942064Y-87730000D02*
X132487936Y-87730000D01*
%TO.C,J8*%
X151070000Y-77470000D02*
X151070000Y-82610000D01*
X151070000Y-77470000D02*
X153730000Y-77470000D01*
X152400000Y-74870000D02*
X153730000Y-74870000D01*
X153730000Y-74870000D02*
X153730000Y-76200000D01*
X151070000Y-82610000D02*
X153730000Y-82610000D01*
X153730000Y-77470000D02*
X153730000Y-82610000D01*
%TO.C,J3*%
X107280000Y-89555000D02*
X109940000Y-89555000D01*
X108610000Y-86955000D02*
X109940000Y-86955000D01*
X109940000Y-86955000D02*
X109940000Y-88285000D01*
X109940000Y-89555000D02*
X109940000Y-92155000D01*
X107280000Y-92155000D02*
X109940000Y-92155000D01*
X107280000Y-89555000D02*
X107280000Y-92155000D01*
%TO.C,R4*%
X133250000Y-81052936D02*
X133250000Y-81507064D01*
X134720000Y-81052936D02*
X134720000Y-81507064D01*
%TO.C,R7*%
X147220000Y-92482936D02*
X147220000Y-92937064D01*
X148690000Y-92482936D02*
X148690000Y-92937064D01*
%TO.C,R1*%
X123417064Y-78005000D02*
X122962936Y-78005000D01*
X123417064Y-79475000D02*
X122962936Y-79475000D01*
%TO.C,J11*%
X109940000Y-95855000D02*
X109940000Y-97185000D01*
X108610000Y-95855000D02*
X109940000Y-95855000D01*
X107280000Y-108675000D02*
X109940000Y-108675000D01*
X107280000Y-98455000D02*
X107280000Y-108675000D01*
X107280000Y-98455000D02*
X109940000Y-98455000D01*
X109940000Y-98455000D02*
X109940000Y-108675000D01*
%TD*%
M02*
