%TF.GenerationSoftware,KiCad,Pcbnew,(6.0.7)*%
%TF.CreationDate,2022-08-26T02:08:34+02:00*%
%TF.ProjectId,airpcb_smd,61697270-6362-45f7-936d-642e6b696361,rev?*%
%TF.SameCoordinates,Original*%
%TF.FileFunction,Drillmap*%
%TF.FilePolarity,Positive*%
%FSLAX45Y45*%
G04 Gerber Fmt 4.5, Leading zero omitted, Abs format (unit mm)*
G04 Created by KiCad (PCBNEW (6.0.7)) date 2022-08-26 02:08:34*
%MOMM*%
%LPD*%
G01*
G04 APERTURE LIST*
%ADD10C,0.050000*%
%ADD11C,0.200000*%
%ADD12C,0.080000*%
%ADD13C,0.100000*%
%ADD14C,0.102000*%
%ADD15C,0.110000*%
%ADD16C,0.150000*%
%ADD17C,0.220000*%
G04 APERTURE END LIST*
D10*
X10300000Y-5000000D02*
G75*
G03*
X10000000Y-5300000I0J-300000D01*
G01*
X10300000Y-5000000D02*
X15700000Y-5000000D01*
X10000000Y-12100000D02*
G75*
G03*
X10300000Y-12400000I300000J0D01*
G01*
X16000000Y-5300000D02*
G75*
G03*
X15700000Y-5000000I-300000J0D01*
G01*
X16000000Y-5300000D02*
X16000000Y-12100000D01*
X10300000Y-12400000D02*
X15700000Y-12400000D01*
X10000000Y-5300000D02*
X10000000Y-12100000D01*
X15700000Y-12400000D02*
G75*
G03*
X16000000Y-12100000I0J300000D01*
G01*
D11*
D12*
X11390000Y-10310500D02*
X11470000Y-10390500D01*
X11470000Y-10310500D02*
X11390000Y-10390500D01*
X12533000Y-11263000D02*
X12613000Y-11343000D01*
X12613000Y-11263000D02*
X12533000Y-11343000D01*
X13485500Y-8405500D02*
X13565500Y-8485500D01*
X13565500Y-8405500D02*
X13485500Y-8485500D01*
X13549000Y-8850000D02*
X13629000Y-8930000D01*
X13629000Y-8850000D02*
X13549000Y-8930000D01*
X12232000Y-8699500D02*
G75*
G03*
X12232000Y-8699500I-40000J0D01*
G01*
X12232000Y-8953500D02*
G75*
G03*
X12232000Y-8953500I-40000J0D01*
G01*
X12994000Y-8699500D02*
G75*
G03*
X12994000Y-8699500I-40000J0D01*
G01*
X12994000Y-8953500D02*
G75*
G03*
X12994000Y-8953500I-40000J0D01*
G01*
X13882000Y-11049500D02*
G75*
G03*
X13882000Y-11049500I-40000J0D01*
G01*
X13882000Y-11303500D02*
G75*
G03*
X13882000Y-11303500I-40000J0D01*
G01*
X14644000Y-11049500D02*
G75*
G03*
X14644000Y-11049500I-40000J0D01*
G01*
X14644000Y-11303500D02*
G75*
G03*
X14644000Y-11303500I-40000J0D01*
G01*
D13*
X10858500Y-6156600D02*
X10858500Y-6256600D01*
X10808500Y-6206600D02*
X10908500Y-6206600D01*
X10858500Y-6410600D02*
X10858500Y-6510600D01*
X10808500Y-6460600D02*
X10908500Y-6460600D01*
X10858500Y-6664600D02*
X10858500Y-6764600D01*
X10808500Y-6714600D02*
X10908500Y-6714600D01*
X10858500Y-7633500D02*
X10858500Y-7733500D01*
X10808500Y-7683500D02*
X10908500Y-7683500D01*
X10858500Y-7887500D02*
X10858500Y-7987500D01*
X10808500Y-7937500D02*
X10908500Y-7937500D01*
X10858500Y-8141500D02*
X10858500Y-8241500D01*
X10808500Y-8191500D02*
X10908500Y-8191500D01*
X10861000Y-8778500D02*
X10861000Y-8878500D01*
X10811000Y-8828500D02*
X10911000Y-8828500D01*
X10861000Y-9032500D02*
X10861000Y-9132500D01*
X10811000Y-9082500D02*
X10911000Y-9082500D01*
X10861000Y-9668500D02*
X10861000Y-9768500D01*
X10811000Y-9718500D02*
X10911000Y-9718500D01*
X10861000Y-9922500D02*
X10861000Y-10022500D01*
X10811000Y-9972500D02*
X10911000Y-9972500D01*
X10861000Y-10176500D02*
X10861000Y-10276500D01*
X10811000Y-10226500D02*
X10911000Y-10226500D01*
X10861000Y-10430500D02*
X10861000Y-10530500D01*
X10811000Y-10480500D02*
X10911000Y-10480500D01*
X10861000Y-10684500D02*
X10861000Y-10784500D01*
X10811000Y-10734500D02*
X10911000Y-10734500D01*
X15240000Y-6046000D02*
X15240000Y-6146000D01*
X15190000Y-6096000D02*
X15290000Y-6096000D01*
X15240000Y-6300000D02*
X15240000Y-6400000D01*
X15190000Y-6350000D02*
X15290000Y-6350000D01*
X15240000Y-6554000D02*
X15240000Y-6654000D01*
X15190000Y-6604000D02*
X15290000Y-6604000D01*
X15240000Y-6808000D02*
X15240000Y-6908000D01*
X15190000Y-6858000D02*
X15290000Y-6858000D01*
X15240000Y-7570000D02*
X15240000Y-7670000D01*
X15190000Y-7620000D02*
X15290000Y-7620000D01*
X15240000Y-7824000D02*
X15240000Y-7924000D01*
X15190000Y-7874000D02*
X15290000Y-7874000D01*
X15240000Y-8078000D02*
X15240000Y-8178000D01*
X15190000Y-8128000D02*
X15290000Y-8128000D01*
X15240000Y-8840000D02*
X15240000Y-8940000D01*
X15190000Y-8890000D02*
X15290000Y-8890000D01*
X15240000Y-9094000D02*
X15240000Y-9194000D01*
X15190000Y-9144000D02*
X15290000Y-9144000D01*
X15240000Y-9348000D02*
X15240000Y-9448000D01*
X15190000Y-9398000D02*
X15290000Y-9398000D01*
X15240000Y-9602000D02*
X15240000Y-9702000D01*
X15190000Y-9652000D02*
X15290000Y-9652000D01*
D14*
X11782563Y-5873063D02*
X11782563Y-5800937D01*
X11710437Y-5800937D01*
X11710437Y-5873063D01*
X11782563Y-5873063D01*
X11782563Y-6127063D02*
X11782563Y-6054937D01*
X11710437Y-6054937D01*
X11710437Y-6127063D01*
X11782563Y-6127063D01*
X11782563Y-6381063D02*
X11782563Y-6308937D01*
X11710437Y-6308937D01*
X11710437Y-6381063D01*
X11782563Y-6381063D01*
X11782563Y-6635063D02*
X11782563Y-6562937D01*
X11710437Y-6562937D01*
X11710437Y-6635063D01*
X11782563Y-6635063D01*
X11782563Y-6889063D02*
X11782563Y-6816937D01*
X11710437Y-6816937D01*
X11710437Y-6889063D01*
X11782563Y-6889063D01*
X11782563Y-7143063D02*
X11782563Y-7070937D01*
X11710437Y-7070937D01*
X11710437Y-7143063D01*
X11782563Y-7143063D01*
X11782563Y-7397063D02*
X11782563Y-7324937D01*
X11710437Y-7324937D01*
X11710437Y-7397063D01*
X11782563Y-7397063D01*
X11782563Y-7651063D02*
X11782563Y-7578937D01*
X11710437Y-7578937D01*
X11710437Y-7651063D01*
X11782563Y-7651063D01*
X11782563Y-7905063D02*
X11782563Y-7832937D01*
X11710437Y-7832937D01*
X11710437Y-7905063D01*
X11782563Y-7905063D01*
X11782563Y-8159063D02*
X11782563Y-8086937D01*
X11710437Y-8086937D01*
X11710437Y-8159063D01*
X11782563Y-8159063D01*
X11782563Y-8413063D02*
X11782563Y-8340937D01*
X11710437Y-8340937D01*
X11710437Y-8413063D01*
X11782563Y-8413063D01*
X11782563Y-8667063D02*
X11782563Y-8594937D01*
X11710437Y-8594937D01*
X11710437Y-8667063D01*
X11782563Y-8667063D01*
X11782563Y-8921063D02*
X11782563Y-8848937D01*
X11710437Y-8848937D01*
X11710437Y-8921063D01*
X11782563Y-8921063D01*
X11782563Y-9175063D02*
X11782563Y-9102937D01*
X11710437Y-9102937D01*
X11710437Y-9175063D01*
X11782563Y-9175063D01*
X11782563Y-9429063D02*
X11782563Y-9356937D01*
X11710437Y-9356937D01*
X11710437Y-9429063D01*
X11782563Y-9429063D01*
X14322563Y-5873063D02*
X14322563Y-5800937D01*
X14250437Y-5800937D01*
X14250437Y-5873063D01*
X14322563Y-5873063D01*
X14322563Y-6127063D02*
X14322563Y-6054937D01*
X14250437Y-6054937D01*
X14250437Y-6127063D01*
X14322563Y-6127063D01*
X14322563Y-6381063D02*
X14322563Y-6308937D01*
X14250437Y-6308937D01*
X14250437Y-6381063D01*
X14322563Y-6381063D01*
X14322563Y-6635063D02*
X14322563Y-6562937D01*
X14250437Y-6562937D01*
X14250437Y-6635063D01*
X14322563Y-6635063D01*
X14322563Y-6889063D02*
X14322563Y-6816937D01*
X14250437Y-6816937D01*
X14250437Y-6889063D01*
X14322563Y-6889063D01*
X14322563Y-7143063D02*
X14322563Y-7070937D01*
X14250437Y-7070937D01*
X14250437Y-7143063D01*
X14322563Y-7143063D01*
X14322563Y-7397063D02*
X14322563Y-7324937D01*
X14250437Y-7324937D01*
X14250437Y-7397063D01*
X14322563Y-7397063D01*
X14322563Y-7651063D02*
X14322563Y-7578937D01*
X14250437Y-7578937D01*
X14250437Y-7651063D01*
X14322563Y-7651063D01*
X14322563Y-7905063D02*
X14322563Y-7832937D01*
X14250437Y-7832937D01*
X14250437Y-7905063D01*
X14322563Y-7905063D01*
X14322563Y-8159063D02*
X14322563Y-8086937D01*
X14250437Y-8086937D01*
X14250437Y-8159063D01*
X14322563Y-8159063D01*
X14322563Y-8413063D02*
X14322563Y-8340937D01*
X14250437Y-8340937D01*
X14250437Y-8413063D01*
X14322563Y-8413063D01*
X14322563Y-8667063D02*
X14322563Y-8594937D01*
X14250437Y-8594937D01*
X14250437Y-8667063D01*
X14322563Y-8667063D01*
X14322563Y-8921063D02*
X14322563Y-8848937D01*
X14250437Y-8848937D01*
X14250437Y-8921063D01*
X14322563Y-8921063D01*
X14322563Y-9175063D02*
X14322563Y-9102937D01*
X14250437Y-9102937D01*
X14250437Y-9175063D01*
X14322563Y-9175063D01*
X14322563Y-9429063D02*
X14322563Y-9356937D01*
X14250437Y-9356937D01*
X14250437Y-9429063D01*
X14322563Y-9429063D01*
D15*
X12700000Y-11993000D02*
X12755000Y-11938000D01*
X12700000Y-11883000D01*
X12645000Y-11938000D01*
X12700000Y-11993000D01*
X12954000Y-11993000D02*
X13009000Y-11938000D01*
X12954000Y-11883000D01*
X12899000Y-11938000D01*
X12954000Y-11993000D01*
D16*
X11228000Y-7672000D02*
X11378000Y-7822000D01*
X11378000Y-7672000D02*
X11228000Y-7822000D01*
X11378000Y-7747000D02*
G75*
G03*
X11378000Y-7747000I-75000J0D01*
G01*
X11990000Y-8116500D02*
X12140000Y-8266500D01*
X12140000Y-8116500D02*
X11990000Y-8266500D01*
X12140000Y-8191500D02*
G75*
G03*
X12140000Y-8191500I-75000J0D01*
G01*
X12879000Y-8219750D02*
X13029000Y-8369750D01*
X13029000Y-8219750D02*
X12879000Y-8369750D01*
X13029000Y-8294750D02*
G75*
G03*
X13029000Y-8294750I-75000J0D01*
G01*
D17*
X10390000Y-5290000D02*
X10610000Y-5510000D01*
X10610000Y-5290000D02*
X10390000Y-5510000D01*
X10500000Y-5290000D02*
X10500000Y-5510000D01*
X10390000Y-5400000D02*
X10610000Y-5400000D01*
X10390000Y-11790000D02*
X10610000Y-12010000D01*
X10610000Y-11790000D02*
X10390000Y-12010000D01*
X10500000Y-11790000D02*
X10500000Y-12010000D01*
X10390000Y-11900000D02*
X10610000Y-11900000D01*
X15390000Y-5290000D02*
X15610000Y-5510000D01*
X15610000Y-5290000D02*
X15390000Y-5510000D01*
X15500000Y-5290000D02*
X15500000Y-5510000D01*
X15390000Y-5400000D02*
X15610000Y-5400000D01*
X15390000Y-11790000D02*
X15610000Y-12010000D01*
X15610000Y-11790000D02*
X15390000Y-12010000D01*
X15500000Y-11790000D02*
X15500000Y-12010000D01*
X15390000Y-11900000D02*
X15610000Y-11900000D01*
D11*
X10255119Y-12712976D02*
X10255119Y-12512976D01*
X10302738Y-12512976D01*
X10331310Y-12522500D01*
X10350357Y-12541548D01*
X10359881Y-12560595D01*
X10369405Y-12598690D01*
X10369405Y-12627262D01*
X10359881Y-12665357D01*
X10350357Y-12684405D01*
X10331310Y-12703452D01*
X10302738Y-12712976D01*
X10255119Y-12712976D01*
X10455119Y-12712976D02*
X10455119Y-12579643D01*
X10455119Y-12617738D02*
X10464643Y-12598690D01*
X10474167Y-12589167D01*
X10493214Y-12579643D01*
X10512262Y-12579643D01*
X10578929Y-12712976D02*
X10578929Y-12579643D01*
X10578929Y-12512976D02*
X10569405Y-12522500D01*
X10578929Y-12532024D01*
X10588452Y-12522500D01*
X10578929Y-12512976D01*
X10578929Y-12532024D01*
X10702738Y-12712976D02*
X10683690Y-12703452D01*
X10674167Y-12684405D01*
X10674167Y-12512976D01*
X10807500Y-12712976D02*
X10788452Y-12703452D01*
X10778929Y-12684405D01*
X10778929Y-12512976D01*
X11036071Y-12712976D02*
X11036071Y-12512976D01*
X11102738Y-12655833D01*
X11169405Y-12512976D01*
X11169405Y-12712976D01*
X11350357Y-12712976D02*
X11350357Y-12608214D01*
X11340833Y-12589167D01*
X11321786Y-12579643D01*
X11283690Y-12579643D01*
X11264643Y-12589167D01*
X11350357Y-12703452D02*
X11331309Y-12712976D01*
X11283690Y-12712976D01*
X11264643Y-12703452D01*
X11255119Y-12684405D01*
X11255119Y-12665357D01*
X11264643Y-12646309D01*
X11283690Y-12636786D01*
X11331309Y-12636786D01*
X11350357Y-12627262D01*
X11445595Y-12579643D02*
X11445595Y-12779643D01*
X11445595Y-12589167D02*
X11464643Y-12579643D01*
X11502738Y-12579643D01*
X11521786Y-12589167D01*
X11531309Y-12598690D01*
X11540833Y-12617738D01*
X11540833Y-12674881D01*
X11531309Y-12693928D01*
X11521786Y-12703452D01*
X11502738Y-12712976D01*
X11464643Y-12712976D01*
X11445595Y-12703452D01*
X11626548Y-12693928D02*
X11636071Y-12703452D01*
X11626548Y-12712976D01*
X11617024Y-12703452D01*
X11626548Y-12693928D01*
X11626548Y-12712976D01*
X11626548Y-12589167D02*
X11636071Y-12598690D01*
X11626548Y-12608214D01*
X11617024Y-12598690D01*
X11626548Y-12589167D01*
X11626548Y-12608214D01*
D12*
X9917500Y-13002500D02*
X9997500Y-13082500D01*
X9997500Y-13002500D02*
X9917500Y-13082500D01*
D11*
X10293214Y-12932976D02*
X10312262Y-12932976D01*
X10331310Y-12942500D01*
X10340833Y-12952024D01*
X10350357Y-12971071D01*
X10359881Y-13009167D01*
X10359881Y-13056786D01*
X10350357Y-13094881D01*
X10340833Y-13113928D01*
X10331310Y-13123452D01*
X10312262Y-13132976D01*
X10293214Y-13132976D01*
X10274167Y-13123452D01*
X10264643Y-13113928D01*
X10255119Y-13094881D01*
X10245595Y-13056786D01*
X10245595Y-13009167D01*
X10255119Y-12971071D01*
X10264643Y-12952024D01*
X10274167Y-12942500D01*
X10293214Y-12932976D01*
X10445595Y-13113928D02*
X10455119Y-13123452D01*
X10445595Y-13132976D01*
X10436071Y-13123452D01*
X10445595Y-13113928D01*
X10445595Y-13132976D01*
X10569405Y-13018690D02*
X10550357Y-13009167D01*
X10540833Y-12999643D01*
X10531310Y-12980595D01*
X10531310Y-12971071D01*
X10540833Y-12952024D01*
X10550357Y-12942500D01*
X10569405Y-12932976D01*
X10607500Y-12932976D01*
X10626548Y-12942500D01*
X10636071Y-12952024D01*
X10645595Y-12971071D01*
X10645595Y-12980595D01*
X10636071Y-12999643D01*
X10626548Y-13009167D01*
X10607500Y-13018690D01*
X10569405Y-13018690D01*
X10550357Y-13028214D01*
X10540833Y-13037738D01*
X10531310Y-13056786D01*
X10531310Y-13094881D01*
X10540833Y-13113928D01*
X10550357Y-13123452D01*
X10569405Y-13132976D01*
X10607500Y-13132976D01*
X10626548Y-13123452D01*
X10636071Y-13113928D01*
X10645595Y-13094881D01*
X10645595Y-13056786D01*
X10636071Y-13037738D01*
X10626548Y-13028214D01*
X10607500Y-13018690D01*
X10769405Y-12932976D02*
X10788452Y-12932976D01*
X10807500Y-12942500D01*
X10817024Y-12952024D01*
X10826548Y-12971071D01*
X10836071Y-13009167D01*
X10836071Y-13056786D01*
X10826548Y-13094881D01*
X10817024Y-13113928D01*
X10807500Y-13123452D01*
X10788452Y-13132976D01*
X10769405Y-13132976D01*
X10750357Y-13123452D01*
X10740833Y-13113928D01*
X10731310Y-13094881D01*
X10721786Y-13056786D01*
X10721786Y-13009167D01*
X10731310Y-12971071D01*
X10740833Y-12952024D01*
X10750357Y-12942500D01*
X10769405Y-12932976D01*
X10959881Y-12932976D02*
X10978929Y-12932976D01*
X10997976Y-12942500D01*
X11007500Y-12952024D01*
X11017024Y-12971071D01*
X11026548Y-13009167D01*
X11026548Y-13056786D01*
X11017024Y-13094881D01*
X11007500Y-13113928D01*
X10997976Y-13123452D01*
X10978929Y-13132976D01*
X10959881Y-13132976D01*
X10940833Y-13123452D01*
X10931310Y-13113928D01*
X10921786Y-13094881D01*
X10912262Y-13056786D01*
X10912262Y-13009167D01*
X10921786Y-12971071D01*
X10931310Y-12952024D01*
X10940833Y-12942500D01*
X10959881Y-12932976D01*
X11112262Y-13132976D02*
X11112262Y-12999643D01*
X11112262Y-13018690D02*
X11121786Y-13009167D01*
X11140833Y-12999643D01*
X11169405Y-12999643D01*
X11188452Y-13009167D01*
X11197976Y-13028214D01*
X11197976Y-13132976D01*
X11197976Y-13028214D02*
X11207500Y-13009167D01*
X11226548Y-12999643D01*
X11255119Y-12999643D01*
X11274167Y-13009167D01*
X11283690Y-13028214D01*
X11283690Y-13132976D01*
X11378928Y-13132976D02*
X11378928Y-12999643D01*
X11378928Y-13018690D02*
X11388452Y-13009167D01*
X11407500Y-12999643D01*
X11436071Y-12999643D01*
X11455119Y-13009167D01*
X11464643Y-13028214D01*
X11464643Y-13132976D01*
X11464643Y-13028214D02*
X11474167Y-13009167D01*
X11493214Y-12999643D01*
X11521786Y-12999643D01*
X11540833Y-13009167D01*
X11550357Y-13028214D01*
X11550357Y-13132976D01*
X11940833Y-12923452D02*
X11769405Y-13180595D01*
X12197976Y-12932976D02*
X12217024Y-12932976D01*
X12236071Y-12942500D01*
X12245595Y-12952024D01*
X12255119Y-12971071D01*
X12264643Y-13009167D01*
X12264643Y-13056786D01*
X12255119Y-13094881D01*
X12245595Y-13113928D01*
X12236071Y-13123452D01*
X12217024Y-13132976D01*
X12197976Y-13132976D01*
X12178928Y-13123452D01*
X12169405Y-13113928D01*
X12159881Y-13094881D01*
X12150357Y-13056786D01*
X12150357Y-13009167D01*
X12159881Y-12971071D01*
X12169405Y-12952024D01*
X12178928Y-12942500D01*
X12197976Y-12932976D01*
X12350357Y-13113928D02*
X12359881Y-13123452D01*
X12350357Y-13132976D01*
X12340833Y-13123452D01*
X12350357Y-13113928D01*
X12350357Y-13132976D01*
X12483690Y-12932976D02*
X12502738Y-12932976D01*
X12521786Y-12942500D01*
X12531309Y-12952024D01*
X12540833Y-12971071D01*
X12550357Y-13009167D01*
X12550357Y-13056786D01*
X12540833Y-13094881D01*
X12531309Y-13113928D01*
X12521786Y-13123452D01*
X12502738Y-13132976D01*
X12483690Y-13132976D01*
X12464643Y-13123452D01*
X12455119Y-13113928D01*
X12445595Y-13094881D01*
X12436071Y-13056786D01*
X12436071Y-13009167D01*
X12445595Y-12971071D01*
X12455119Y-12952024D01*
X12464643Y-12942500D01*
X12483690Y-12932976D01*
X12617024Y-12932976D02*
X12740833Y-12932976D01*
X12674167Y-13009167D01*
X12702738Y-13009167D01*
X12721786Y-13018690D01*
X12731309Y-13028214D01*
X12740833Y-13047262D01*
X12740833Y-13094881D01*
X12731309Y-13113928D01*
X12721786Y-13123452D01*
X12702738Y-13132976D01*
X12645595Y-13132976D01*
X12626548Y-13123452D01*
X12617024Y-13113928D01*
X12931309Y-13132976D02*
X12817024Y-13132976D01*
X12874167Y-13132976D02*
X12874167Y-12932976D01*
X12855119Y-12961548D01*
X12836071Y-12980595D01*
X12817024Y-12990119D01*
X13112262Y-12932976D02*
X13017024Y-12932976D01*
X13007500Y-13028214D01*
X13017024Y-13018690D01*
X13036071Y-13009167D01*
X13083690Y-13009167D01*
X13102738Y-13018690D01*
X13112262Y-13028214D01*
X13121786Y-13047262D01*
X13121786Y-13094881D01*
X13112262Y-13113928D01*
X13102738Y-13123452D01*
X13083690Y-13132976D01*
X13036071Y-13132976D01*
X13017024Y-13123452D01*
X13007500Y-13113928D01*
X13197976Y-12932976D02*
X13197976Y-12971071D01*
X13274167Y-12932976D02*
X13274167Y-12971071D01*
X13569405Y-13209167D02*
X13559881Y-13199643D01*
X13540833Y-13171071D01*
X13531309Y-13152024D01*
X13521786Y-13123452D01*
X13512262Y-13075833D01*
X13512262Y-13037738D01*
X13521786Y-12990119D01*
X13531309Y-12961548D01*
X13540833Y-12942500D01*
X13559881Y-12913928D01*
X13569405Y-12904405D01*
X13731309Y-12999643D02*
X13731309Y-13132976D01*
X13683690Y-12923452D02*
X13636071Y-13066309D01*
X13759881Y-13066309D01*
X13988452Y-13132976D02*
X13988452Y-12932976D01*
X14074167Y-13132976D02*
X14074167Y-13028214D01*
X14064643Y-13009167D01*
X14045595Y-12999643D01*
X14017024Y-12999643D01*
X13997976Y-13009167D01*
X13988452Y-13018690D01*
X14197976Y-13132976D02*
X14178928Y-13123452D01*
X14169405Y-13113928D01*
X14159881Y-13094881D01*
X14159881Y-13037738D01*
X14169405Y-13018690D01*
X14178928Y-13009167D01*
X14197976Y-12999643D01*
X14226548Y-12999643D01*
X14245595Y-13009167D01*
X14255119Y-13018690D01*
X14264643Y-13037738D01*
X14264643Y-13094881D01*
X14255119Y-13113928D01*
X14245595Y-13123452D01*
X14226548Y-13132976D01*
X14197976Y-13132976D01*
X14378928Y-13132976D02*
X14359881Y-13123452D01*
X14350357Y-13104405D01*
X14350357Y-12932976D01*
X14531309Y-13123452D02*
X14512262Y-13132976D01*
X14474167Y-13132976D01*
X14455119Y-13123452D01*
X14445595Y-13104405D01*
X14445595Y-13028214D01*
X14455119Y-13009167D01*
X14474167Y-12999643D01*
X14512262Y-12999643D01*
X14531309Y-13009167D01*
X14540833Y-13028214D01*
X14540833Y-13047262D01*
X14445595Y-13066309D01*
X14617024Y-13123452D02*
X14636071Y-13132976D01*
X14674167Y-13132976D01*
X14693214Y-13123452D01*
X14702738Y-13104405D01*
X14702738Y-13094881D01*
X14693214Y-13075833D01*
X14674167Y-13066309D01*
X14645595Y-13066309D01*
X14626548Y-13056786D01*
X14617024Y-13037738D01*
X14617024Y-13028214D01*
X14626548Y-13009167D01*
X14645595Y-12999643D01*
X14674167Y-12999643D01*
X14693214Y-13009167D01*
X14769405Y-13209167D02*
X14778928Y-13199643D01*
X14797976Y-13171071D01*
X14807500Y-13152024D01*
X14817024Y-13123452D01*
X14826548Y-13075833D01*
X14826548Y-13037738D01*
X14817024Y-12990119D01*
X14807500Y-12961548D01*
X14797976Y-12942500D01*
X14778928Y-12913928D01*
X14769405Y-12904405D01*
D12*
X9997500Y-13306500D02*
G75*
G03*
X9997500Y-13306500I-40000J0D01*
G01*
D11*
X10293214Y-13196976D02*
X10312262Y-13196976D01*
X10331310Y-13206500D01*
X10340833Y-13216024D01*
X10350357Y-13235071D01*
X10359881Y-13273167D01*
X10359881Y-13320786D01*
X10350357Y-13358881D01*
X10340833Y-13377928D01*
X10331310Y-13387452D01*
X10312262Y-13396976D01*
X10293214Y-13396976D01*
X10274167Y-13387452D01*
X10264643Y-13377928D01*
X10255119Y-13358881D01*
X10245595Y-13320786D01*
X10245595Y-13273167D01*
X10255119Y-13235071D01*
X10264643Y-13216024D01*
X10274167Y-13206500D01*
X10293214Y-13196976D01*
X10445595Y-13377928D02*
X10455119Y-13387452D01*
X10445595Y-13396976D01*
X10436071Y-13387452D01*
X10445595Y-13377928D01*
X10445595Y-13396976D01*
X10569405Y-13282690D02*
X10550357Y-13273167D01*
X10540833Y-13263643D01*
X10531310Y-13244595D01*
X10531310Y-13235071D01*
X10540833Y-13216024D01*
X10550357Y-13206500D01*
X10569405Y-13196976D01*
X10607500Y-13196976D01*
X10626548Y-13206500D01*
X10636071Y-13216024D01*
X10645595Y-13235071D01*
X10645595Y-13244595D01*
X10636071Y-13263643D01*
X10626548Y-13273167D01*
X10607500Y-13282690D01*
X10569405Y-13282690D01*
X10550357Y-13292214D01*
X10540833Y-13301738D01*
X10531310Y-13320786D01*
X10531310Y-13358881D01*
X10540833Y-13377928D01*
X10550357Y-13387452D01*
X10569405Y-13396976D01*
X10607500Y-13396976D01*
X10626548Y-13387452D01*
X10636071Y-13377928D01*
X10645595Y-13358881D01*
X10645595Y-13320786D01*
X10636071Y-13301738D01*
X10626548Y-13292214D01*
X10607500Y-13282690D01*
X10769405Y-13196976D02*
X10788452Y-13196976D01*
X10807500Y-13206500D01*
X10817024Y-13216024D01*
X10826548Y-13235071D01*
X10836071Y-13273167D01*
X10836071Y-13320786D01*
X10826548Y-13358881D01*
X10817024Y-13377928D01*
X10807500Y-13387452D01*
X10788452Y-13396976D01*
X10769405Y-13396976D01*
X10750357Y-13387452D01*
X10740833Y-13377928D01*
X10731310Y-13358881D01*
X10721786Y-13320786D01*
X10721786Y-13273167D01*
X10731310Y-13235071D01*
X10740833Y-13216024D01*
X10750357Y-13206500D01*
X10769405Y-13196976D01*
X10959881Y-13196976D02*
X10978929Y-13196976D01*
X10997976Y-13206500D01*
X11007500Y-13216024D01*
X11017024Y-13235071D01*
X11026548Y-13273167D01*
X11026548Y-13320786D01*
X11017024Y-13358881D01*
X11007500Y-13377928D01*
X10997976Y-13387452D01*
X10978929Y-13396976D01*
X10959881Y-13396976D01*
X10940833Y-13387452D01*
X10931310Y-13377928D01*
X10921786Y-13358881D01*
X10912262Y-13320786D01*
X10912262Y-13273167D01*
X10921786Y-13235071D01*
X10931310Y-13216024D01*
X10940833Y-13206500D01*
X10959881Y-13196976D01*
X11112262Y-13396976D02*
X11112262Y-13263643D01*
X11112262Y-13282690D02*
X11121786Y-13273167D01*
X11140833Y-13263643D01*
X11169405Y-13263643D01*
X11188452Y-13273167D01*
X11197976Y-13292214D01*
X11197976Y-13396976D01*
X11197976Y-13292214D02*
X11207500Y-13273167D01*
X11226548Y-13263643D01*
X11255119Y-13263643D01*
X11274167Y-13273167D01*
X11283690Y-13292214D01*
X11283690Y-13396976D01*
X11378928Y-13396976D02*
X11378928Y-13263643D01*
X11378928Y-13282690D02*
X11388452Y-13273167D01*
X11407500Y-13263643D01*
X11436071Y-13263643D01*
X11455119Y-13273167D01*
X11464643Y-13292214D01*
X11464643Y-13396976D01*
X11464643Y-13292214D02*
X11474167Y-13273167D01*
X11493214Y-13263643D01*
X11521786Y-13263643D01*
X11540833Y-13273167D01*
X11550357Y-13292214D01*
X11550357Y-13396976D01*
X11940833Y-13187452D02*
X11769405Y-13444595D01*
X12197976Y-13196976D02*
X12217024Y-13196976D01*
X12236071Y-13206500D01*
X12245595Y-13216024D01*
X12255119Y-13235071D01*
X12264643Y-13273167D01*
X12264643Y-13320786D01*
X12255119Y-13358881D01*
X12245595Y-13377928D01*
X12236071Y-13387452D01*
X12217024Y-13396976D01*
X12197976Y-13396976D01*
X12178928Y-13387452D01*
X12169405Y-13377928D01*
X12159881Y-13358881D01*
X12150357Y-13320786D01*
X12150357Y-13273167D01*
X12159881Y-13235071D01*
X12169405Y-13216024D01*
X12178928Y-13206500D01*
X12197976Y-13196976D01*
X12350357Y-13377928D02*
X12359881Y-13387452D01*
X12350357Y-13396976D01*
X12340833Y-13387452D01*
X12350357Y-13377928D01*
X12350357Y-13396976D01*
X12483690Y-13196976D02*
X12502738Y-13196976D01*
X12521786Y-13206500D01*
X12531309Y-13216024D01*
X12540833Y-13235071D01*
X12550357Y-13273167D01*
X12550357Y-13320786D01*
X12540833Y-13358881D01*
X12531309Y-13377928D01*
X12521786Y-13387452D01*
X12502738Y-13396976D01*
X12483690Y-13396976D01*
X12464643Y-13387452D01*
X12455119Y-13377928D01*
X12445595Y-13358881D01*
X12436071Y-13320786D01*
X12436071Y-13273167D01*
X12445595Y-13235071D01*
X12455119Y-13216024D01*
X12464643Y-13206500D01*
X12483690Y-13196976D01*
X12617024Y-13196976D02*
X12740833Y-13196976D01*
X12674167Y-13273167D01*
X12702738Y-13273167D01*
X12721786Y-13282690D01*
X12731309Y-13292214D01*
X12740833Y-13311262D01*
X12740833Y-13358881D01*
X12731309Y-13377928D01*
X12721786Y-13387452D01*
X12702738Y-13396976D01*
X12645595Y-13396976D01*
X12626548Y-13387452D01*
X12617024Y-13377928D01*
X12931309Y-13396976D02*
X12817024Y-13396976D01*
X12874167Y-13396976D02*
X12874167Y-13196976D01*
X12855119Y-13225548D01*
X12836071Y-13244595D01*
X12817024Y-13254119D01*
X13112262Y-13196976D02*
X13017024Y-13196976D01*
X13007500Y-13292214D01*
X13017024Y-13282690D01*
X13036071Y-13273167D01*
X13083690Y-13273167D01*
X13102738Y-13282690D01*
X13112262Y-13292214D01*
X13121786Y-13311262D01*
X13121786Y-13358881D01*
X13112262Y-13377928D01*
X13102738Y-13387452D01*
X13083690Y-13396976D01*
X13036071Y-13396976D01*
X13017024Y-13387452D01*
X13007500Y-13377928D01*
X13197976Y-13196976D02*
X13197976Y-13235071D01*
X13274167Y-13196976D02*
X13274167Y-13235071D01*
X13569405Y-13473167D02*
X13559881Y-13463643D01*
X13540833Y-13435071D01*
X13531309Y-13416024D01*
X13521786Y-13387452D01*
X13512262Y-13339833D01*
X13512262Y-13301738D01*
X13521786Y-13254119D01*
X13531309Y-13225548D01*
X13540833Y-13206500D01*
X13559881Y-13177928D01*
X13569405Y-13168405D01*
X13674167Y-13282690D02*
X13655119Y-13273167D01*
X13645595Y-13263643D01*
X13636071Y-13244595D01*
X13636071Y-13235071D01*
X13645595Y-13216024D01*
X13655119Y-13206500D01*
X13674167Y-13196976D01*
X13712262Y-13196976D01*
X13731309Y-13206500D01*
X13740833Y-13216024D01*
X13750357Y-13235071D01*
X13750357Y-13244595D01*
X13740833Y-13263643D01*
X13731309Y-13273167D01*
X13712262Y-13282690D01*
X13674167Y-13282690D01*
X13655119Y-13292214D01*
X13645595Y-13301738D01*
X13636071Y-13320786D01*
X13636071Y-13358881D01*
X13645595Y-13377928D01*
X13655119Y-13387452D01*
X13674167Y-13396976D01*
X13712262Y-13396976D01*
X13731309Y-13387452D01*
X13740833Y-13377928D01*
X13750357Y-13358881D01*
X13750357Y-13320786D01*
X13740833Y-13301738D01*
X13731309Y-13292214D01*
X13712262Y-13282690D01*
X13988452Y-13396976D02*
X13988452Y-13196976D01*
X14074167Y-13396976D02*
X14074167Y-13292214D01*
X14064643Y-13273167D01*
X14045595Y-13263643D01*
X14017024Y-13263643D01*
X13997976Y-13273167D01*
X13988452Y-13282690D01*
X14197976Y-13396976D02*
X14178928Y-13387452D01*
X14169405Y-13377928D01*
X14159881Y-13358881D01*
X14159881Y-13301738D01*
X14169405Y-13282690D01*
X14178928Y-13273167D01*
X14197976Y-13263643D01*
X14226548Y-13263643D01*
X14245595Y-13273167D01*
X14255119Y-13282690D01*
X14264643Y-13301738D01*
X14264643Y-13358881D01*
X14255119Y-13377928D01*
X14245595Y-13387452D01*
X14226548Y-13396976D01*
X14197976Y-13396976D01*
X14378928Y-13396976D02*
X14359881Y-13387452D01*
X14350357Y-13368405D01*
X14350357Y-13196976D01*
X14531309Y-13387452D02*
X14512262Y-13396976D01*
X14474167Y-13396976D01*
X14455119Y-13387452D01*
X14445595Y-13368405D01*
X14445595Y-13292214D01*
X14455119Y-13273167D01*
X14474167Y-13263643D01*
X14512262Y-13263643D01*
X14531309Y-13273167D01*
X14540833Y-13292214D01*
X14540833Y-13311262D01*
X14445595Y-13330309D01*
X14617024Y-13387452D02*
X14636071Y-13396976D01*
X14674167Y-13396976D01*
X14693214Y-13387452D01*
X14702738Y-13368405D01*
X14702738Y-13358881D01*
X14693214Y-13339833D01*
X14674167Y-13330309D01*
X14645595Y-13330309D01*
X14626548Y-13320786D01*
X14617024Y-13301738D01*
X14617024Y-13292214D01*
X14626548Y-13273167D01*
X14645595Y-13263643D01*
X14674167Y-13263643D01*
X14693214Y-13273167D01*
X14769405Y-13473167D02*
X14778928Y-13463643D01*
X14797976Y-13435071D01*
X14807500Y-13416024D01*
X14817024Y-13387452D01*
X14826548Y-13339833D01*
X14826548Y-13301738D01*
X14817024Y-13254119D01*
X14807500Y-13225548D01*
X14797976Y-13206500D01*
X14778928Y-13177928D01*
X14769405Y-13168405D01*
D13*
X9947500Y-13520500D02*
X9947500Y-13620500D01*
X9897500Y-13570500D02*
X9997500Y-13570500D01*
D11*
X10359881Y-13660976D02*
X10245595Y-13660976D01*
X10302738Y-13660976D02*
X10302738Y-13460976D01*
X10283690Y-13489548D01*
X10264643Y-13508595D01*
X10245595Y-13518119D01*
X10445595Y-13641928D02*
X10455119Y-13651452D01*
X10445595Y-13660976D01*
X10436071Y-13651452D01*
X10445595Y-13641928D01*
X10445595Y-13660976D01*
X10578929Y-13460976D02*
X10597976Y-13460976D01*
X10617024Y-13470500D01*
X10626548Y-13480024D01*
X10636071Y-13499071D01*
X10645595Y-13537167D01*
X10645595Y-13584786D01*
X10636071Y-13622881D01*
X10626548Y-13641928D01*
X10617024Y-13651452D01*
X10597976Y-13660976D01*
X10578929Y-13660976D01*
X10559881Y-13651452D01*
X10550357Y-13641928D01*
X10540833Y-13622881D01*
X10531310Y-13584786D01*
X10531310Y-13537167D01*
X10540833Y-13499071D01*
X10550357Y-13480024D01*
X10559881Y-13470500D01*
X10578929Y-13460976D01*
X10769405Y-13460976D02*
X10788452Y-13460976D01*
X10807500Y-13470500D01*
X10817024Y-13480024D01*
X10826548Y-13499071D01*
X10836071Y-13537167D01*
X10836071Y-13584786D01*
X10826548Y-13622881D01*
X10817024Y-13641928D01*
X10807500Y-13651452D01*
X10788452Y-13660976D01*
X10769405Y-13660976D01*
X10750357Y-13651452D01*
X10740833Y-13641928D01*
X10731310Y-13622881D01*
X10721786Y-13584786D01*
X10721786Y-13537167D01*
X10731310Y-13499071D01*
X10740833Y-13480024D01*
X10750357Y-13470500D01*
X10769405Y-13460976D01*
X10959881Y-13460976D02*
X10978929Y-13460976D01*
X10997976Y-13470500D01*
X11007500Y-13480024D01*
X11017024Y-13499071D01*
X11026548Y-13537167D01*
X11026548Y-13584786D01*
X11017024Y-13622881D01*
X11007500Y-13641928D01*
X10997976Y-13651452D01*
X10978929Y-13660976D01*
X10959881Y-13660976D01*
X10940833Y-13651452D01*
X10931310Y-13641928D01*
X10921786Y-13622881D01*
X10912262Y-13584786D01*
X10912262Y-13537167D01*
X10921786Y-13499071D01*
X10931310Y-13480024D01*
X10940833Y-13470500D01*
X10959881Y-13460976D01*
X11112262Y-13660976D02*
X11112262Y-13527643D01*
X11112262Y-13546690D02*
X11121786Y-13537167D01*
X11140833Y-13527643D01*
X11169405Y-13527643D01*
X11188452Y-13537167D01*
X11197976Y-13556214D01*
X11197976Y-13660976D01*
X11197976Y-13556214D02*
X11207500Y-13537167D01*
X11226548Y-13527643D01*
X11255119Y-13527643D01*
X11274167Y-13537167D01*
X11283690Y-13556214D01*
X11283690Y-13660976D01*
X11378928Y-13660976D02*
X11378928Y-13527643D01*
X11378928Y-13546690D02*
X11388452Y-13537167D01*
X11407500Y-13527643D01*
X11436071Y-13527643D01*
X11455119Y-13537167D01*
X11464643Y-13556214D01*
X11464643Y-13660976D01*
X11464643Y-13556214D02*
X11474167Y-13537167D01*
X11493214Y-13527643D01*
X11521786Y-13527643D01*
X11540833Y-13537167D01*
X11550357Y-13556214D01*
X11550357Y-13660976D01*
X11940833Y-13451452D02*
X11769405Y-13708595D01*
X12197976Y-13460976D02*
X12217024Y-13460976D01*
X12236071Y-13470500D01*
X12245595Y-13480024D01*
X12255119Y-13499071D01*
X12264643Y-13537167D01*
X12264643Y-13584786D01*
X12255119Y-13622881D01*
X12245595Y-13641928D01*
X12236071Y-13651452D01*
X12217024Y-13660976D01*
X12197976Y-13660976D01*
X12178928Y-13651452D01*
X12169405Y-13641928D01*
X12159881Y-13622881D01*
X12150357Y-13584786D01*
X12150357Y-13537167D01*
X12159881Y-13499071D01*
X12169405Y-13480024D01*
X12178928Y-13470500D01*
X12197976Y-13460976D01*
X12350357Y-13641928D02*
X12359881Y-13651452D01*
X12350357Y-13660976D01*
X12340833Y-13651452D01*
X12350357Y-13641928D01*
X12350357Y-13660976D01*
X12483690Y-13460976D02*
X12502738Y-13460976D01*
X12521786Y-13470500D01*
X12531309Y-13480024D01*
X12540833Y-13499071D01*
X12550357Y-13537167D01*
X12550357Y-13584786D01*
X12540833Y-13622881D01*
X12531309Y-13641928D01*
X12521786Y-13651452D01*
X12502738Y-13660976D01*
X12483690Y-13660976D01*
X12464643Y-13651452D01*
X12455119Y-13641928D01*
X12445595Y-13622881D01*
X12436071Y-13584786D01*
X12436071Y-13537167D01*
X12445595Y-13499071D01*
X12455119Y-13480024D01*
X12464643Y-13470500D01*
X12483690Y-13460976D01*
X12617024Y-13460976D02*
X12740833Y-13460976D01*
X12674167Y-13537167D01*
X12702738Y-13537167D01*
X12721786Y-13546690D01*
X12731309Y-13556214D01*
X12740833Y-13575262D01*
X12740833Y-13622881D01*
X12731309Y-13641928D01*
X12721786Y-13651452D01*
X12702738Y-13660976D01*
X12645595Y-13660976D01*
X12626548Y-13651452D01*
X12617024Y-13641928D01*
X12836071Y-13660976D02*
X12874167Y-13660976D01*
X12893214Y-13651452D01*
X12902738Y-13641928D01*
X12921786Y-13613357D01*
X12931309Y-13575262D01*
X12931309Y-13499071D01*
X12921786Y-13480024D01*
X12912262Y-13470500D01*
X12893214Y-13460976D01*
X12855119Y-13460976D01*
X12836071Y-13470500D01*
X12826548Y-13480024D01*
X12817024Y-13499071D01*
X12817024Y-13546690D01*
X12826548Y-13565738D01*
X12836071Y-13575262D01*
X12855119Y-13584786D01*
X12893214Y-13584786D01*
X12912262Y-13575262D01*
X12921786Y-13565738D01*
X12931309Y-13546690D01*
X13102738Y-13527643D02*
X13102738Y-13660976D01*
X13055119Y-13451452D02*
X13007500Y-13594309D01*
X13131309Y-13594309D01*
X13197976Y-13460976D02*
X13197976Y-13499071D01*
X13274167Y-13460976D02*
X13274167Y-13499071D01*
X13569405Y-13737167D02*
X13559881Y-13727643D01*
X13540833Y-13699071D01*
X13531309Y-13680024D01*
X13521786Y-13651452D01*
X13512262Y-13603833D01*
X13512262Y-13565738D01*
X13521786Y-13518119D01*
X13531309Y-13489548D01*
X13540833Y-13470500D01*
X13559881Y-13441928D01*
X13569405Y-13432405D01*
X13636071Y-13480024D02*
X13645595Y-13470500D01*
X13664643Y-13460976D01*
X13712262Y-13460976D01*
X13731309Y-13470500D01*
X13740833Y-13480024D01*
X13750357Y-13499071D01*
X13750357Y-13518119D01*
X13740833Y-13546690D01*
X13626548Y-13660976D01*
X13750357Y-13660976D01*
X13921786Y-13527643D02*
X13921786Y-13660976D01*
X13874167Y-13451452D02*
X13826548Y-13594309D01*
X13950357Y-13594309D01*
X14178928Y-13660976D02*
X14178928Y-13460976D01*
X14264643Y-13660976D02*
X14264643Y-13556214D01*
X14255119Y-13537167D01*
X14236071Y-13527643D01*
X14207500Y-13527643D01*
X14188452Y-13537167D01*
X14178928Y-13546690D01*
X14388452Y-13660976D02*
X14369405Y-13651452D01*
X14359881Y-13641928D01*
X14350357Y-13622881D01*
X14350357Y-13565738D01*
X14359881Y-13546690D01*
X14369405Y-13537167D01*
X14388452Y-13527643D01*
X14417024Y-13527643D01*
X14436071Y-13537167D01*
X14445595Y-13546690D01*
X14455119Y-13565738D01*
X14455119Y-13622881D01*
X14445595Y-13641928D01*
X14436071Y-13651452D01*
X14417024Y-13660976D01*
X14388452Y-13660976D01*
X14569405Y-13660976D02*
X14550357Y-13651452D01*
X14540833Y-13632405D01*
X14540833Y-13460976D01*
X14721786Y-13651452D02*
X14702738Y-13660976D01*
X14664643Y-13660976D01*
X14645595Y-13651452D01*
X14636071Y-13632405D01*
X14636071Y-13556214D01*
X14645595Y-13537167D01*
X14664643Y-13527643D01*
X14702738Y-13527643D01*
X14721786Y-13537167D01*
X14731309Y-13556214D01*
X14731309Y-13575262D01*
X14636071Y-13594309D01*
X14807500Y-13651452D02*
X14826548Y-13660976D01*
X14864643Y-13660976D01*
X14883690Y-13651452D01*
X14893214Y-13632405D01*
X14893214Y-13622881D01*
X14883690Y-13603833D01*
X14864643Y-13594309D01*
X14836071Y-13594309D01*
X14817024Y-13584786D01*
X14807500Y-13565738D01*
X14807500Y-13556214D01*
X14817024Y-13537167D01*
X14836071Y-13527643D01*
X14864643Y-13527643D01*
X14883690Y-13537167D01*
X14959881Y-13737167D02*
X14969405Y-13727643D01*
X14988452Y-13699071D01*
X14997976Y-13680024D01*
X15007500Y-13651452D01*
X15017024Y-13603833D01*
X15017024Y-13565738D01*
X15007500Y-13518119D01*
X14997976Y-13489548D01*
X14988452Y-13470500D01*
X14969405Y-13441928D01*
X14959881Y-13432405D01*
D14*
X9982563Y-13870563D02*
X9982563Y-13798437D01*
X9910437Y-13798437D01*
X9910437Y-13870563D01*
X9982563Y-13870563D01*
D11*
X10359881Y-13924976D02*
X10245595Y-13924976D01*
X10302738Y-13924976D02*
X10302738Y-13724976D01*
X10283690Y-13753548D01*
X10264643Y-13772595D01*
X10245595Y-13782119D01*
X10445595Y-13905928D02*
X10455119Y-13915452D01*
X10445595Y-13924976D01*
X10436071Y-13915452D01*
X10445595Y-13905928D01*
X10445595Y-13924976D01*
X10578929Y-13724976D02*
X10597976Y-13724976D01*
X10617024Y-13734500D01*
X10626548Y-13744024D01*
X10636071Y-13763071D01*
X10645595Y-13801167D01*
X10645595Y-13848786D01*
X10636071Y-13886881D01*
X10626548Y-13905928D01*
X10617024Y-13915452D01*
X10597976Y-13924976D01*
X10578929Y-13924976D01*
X10559881Y-13915452D01*
X10550357Y-13905928D01*
X10540833Y-13886881D01*
X10531310Y-13848786D01*
X10531310Y-13801167D01*
X10540833Y-13763071D01*
X10550357Y-13744024D01*
X10559881Y-13734500D01*
X10578929Y-13724976D01*
X10721786Y-13744024D02*
X10731310Y-13734500D01*
X10750357Y-13724976D01*
X10797976Y-13724976D01*
X10817024Y-13734500D01*
X10826548Y-13744024D01*
X10836071Y-13763071D01*
X10836071Y-13782119D01*
X10826548Y-13810690D01*
X10712262Y-13924976D01*
X10836071Y-13924976D01*
X10959881Y-13724976D02*
X10978929Y-13724976D01*
X10997976Y-13734500D01*
X11007500Y-13744024D01*
X11017024Y-13763071D01*
X11026548Y-13801167D01*
X11026548Y-13848786D01*
X11017024Y-13886881D01*
X11007500Y-13905928D01*
X10997976Y-13915452D01*
X10978929Y-13924976D01*
X10959881Y-13924976D01*
X10940833Y-13915452D01*
X10931310Y-13905928D01*
X10921786Y-13886881D01*
X10912262Y-13848786D01*
X10912262Y-13801167D01*
X10921786Y-13763071D01*
X10931310Y-13744024D01*
X10940833Y-13734500D01*
X10959881Y-13724976D01*
X11112262Y-13924976D02*
X11112262Y-13791643D01*
X11112262Y-13810690D02*
X11121786Y-13801167D01*
X11140833Y-13791643D01*
X11169405Y-13791643D01*
X11188452Y-13801167D01*
X11197976Y-13820214D01*
X11197976Y-13924976D01*
X11197976Y-13820214D02*
X11207500Y-13801167D01*
X11226548Y-13791643D01*
X11255119Y-13791643D01*
X11274167Y-13801167D01*
X11283690Y-13820214D01*
X11283690Y-13924976D01*
X11378928Y-13924976D02*
X11378928Y-13791643D01*
X11378928Y-13810690D02*
X11388452Y-13801167D01*
X11407500Y-13791643D01*
X11436071Y-13791643D01*
X11455119Y-13801167D01*
X11464643Y-13820214D01*
X11464643Y-13924976D01*
X11464643Y-13820214D02*
X11474167Y-13801167D01*
X11493214Y-13791643D01*
X11521786Y-13791643D01*
X11540833Y-13801167D01*
X11550357Y-13820214D01*
X11550357Y-13924976D01*
X11940833Y-13715452D02*
X11769405Y-13972595D01*
X12197976Y-13724976D02*
X12217024Y-13724976D01*
X12236071Y-13734500D01*
X12245595Y-13744024D01*
X12255119Y-13763071D01*
X12264643Y-13801167D01*
X12264643Y-13848786D01*
X12255119Y-13886881D01*
X12245595Y-13905928D01*
X12236071Y-13915452D01*
X12217024Y-13924976D01*
X12197976Y-13924976D01*
X12178928Y-13915452D01*
X12169405Y-13905928D01*
X12159881Y-13886881D01*
X12150357Y-13848786D01*
X12150357Y-13801167D01*
X12159881Y-13763071D01*
X12169405Y-13744024D01*
X12178928Y-13734500D01*
X12197976Y-13724976D01*
X12350357Y-13905928D02*
X12359881Y-13915452D01*
X12350357Y-13924976D01*
X12340833Y-13915452D01*
X12350357Y-13905928D01*
X12350357Y-13924976D01*
X12483690Y-13724976D02*
X12502738Y-13724976D01*
X12521786Y-13734500D01*
X12531309Y-13744024D01*
X12540833Y-13763071D01*
X12550357Y-13801167D01*
X12550357Y-13848786D01*
X12540833Y-13886881D01*
X12531309Y-13905928D01*
X12521786Y-13915452D01*
X12502738Y-13924976D01*
X12483690Y-13924976D01*
X12464643Y-13915452D01*
X12455119Y-13905928D01*
X12445595Y-13886881D01*
X12436071Y-13848786D01*
X12436071Y-13801167D01*
X12445595Y-13763071D01*
X12455119Y-13744024D01*
X12464643Y-13734500D01*
X12483690Y-13724976D01*
X12721786Y-13791643D02*
X12721786Y-13924976D01*
X12674167Y-13715452D02*
X12626548Y-13858309D01*
X12750357Y-13858309D01*
X12864643Y-13724976D02*
X12883690Y-13724976D01*
X12902738Y-13734500D01*
X12912262Y-13744024D01*
X12921786Y-13763071D01*
X12931309Y-13801167D01*
X12931309Y-13848786D01*
X12921786Y-13886881D01*
X12912262Y-13905928D01*
X12902738Y-13915452D01*
X12883690Y-13924976D01*
X12864643Y-13924976D01*
X12845595Y-13915452D01*
X12836071Y-13905928D01*
X12826548Y-13886881D01*
X12817024Y-13848786D01*
X12817024Y-13801167D01*
X12826548Y-13763071D01*
X12836071Y-13744024D01*
X12845595Y-13734500D01*
X12864643Y-13724976D01*
X13007500Y-13744024D02*
X13017024Y-13734500D01*
X13036071Y-13724976D01*
X13083690Y-13724976D01*
X13102738Y-13734500D01*
X13112262Y-13744024D01*
X13121786Y-13763071D01*
X13121786Y-13782119D01*
X13112262Y-13810690D01*
X12997976Y-13924976D01*
X13121786Y-13924976D01*
X13197976Y-13724976D02*
X13197976Y-13763071D01*
X13274167Y-13724976D02*
X13274167Y-13763071D01*
X13569405Y-14001167D02*
X13559881Y-13991643D01*
X13540833Y-13963071D01*
X13531309Y-13944024D01*
X13521786Y-13915452D01*
X13512262Y-13867833D01*
X13512262Y-13829738D01*
X13521786Y-13782119D01*
X13531309Y-13753548D01*
X13540833Y-13734500D01*
X13559881Y-13705928D01*
X13569405Y-13696405D01*
X13626548Y-13724976D02*
X13750357Y-13724976D01*
X13683690Y-13801167D01*
X13712262Y-13801167D01*
X13731309Y-13810690D01*
X13740833Y-13820214D01*
X13750357Y-13839262D01*
X13750357Y-13886881D01*
X13740833Y-13905928D01*
X13731309Y-13915452D01*
X13712262Y-13924976D01*
X13655119Y-13924976D01*
X13636071Y-13915452D01*
X13626548Y-13905928D01*
X13874167Y-13724976D02*
X13893214Y-13724976D01*
X13912262Y-13734500D01*
X13921786Y-13744024D01*
X13931309Y-13763071D01*
X13940833Y-13801167D01*
X13940833Y-13848786D01*
X13931309Y-13886881D01*
X13921786Y-13905928D01*
X13912262Y-13915452D01*
X13893214Y-13924976D01*
X13874167Y-13924976D01*
X13855119Y-13915452D01*
X13845595Y-13905928D01*
X13836071Y-13886881D01*
X13826548Y-13848786D01*
X13826548Y-13801167D01*
X13836071Y-13763071D01*
X13845595Y-13744024D01*
X13855119Y-13734500D01*
X13874167Y-13724976D01*
X14178928Y-13924976D02*
X14178928Y-13724976D01*
X14264643Y-13924976D02*
X14264643Y-13820214D01*
X14255119Y-13801167D01*
X14236071Y-13791643D01*
X14207500Y-13791643D01*
X14188452Y-13801167D01*
X14178928Y-13810690D01*
X14388452Y-13924976D02*
X14369405Y-13915452D01*
X14359881Y-13905928D01*
X14350357Y-13886881D01*
X14350357Y-13829738D01*
X14359881Y-13810690D01*
X14369405Y-13801167D01*
X14388452Y-13791643D01*
X14417024Y-13791643D01*
X14436071Y-13801167D01*
X14445595Y-13810690D01*
X14455119Y-13829738D01*
X14455119Y-13886881D01*
X14445595Y-13905928D01*
X14436071Y-13915452D01*
X14417024Y-13924976D01*
X14388452Y-13924976D01*
X14569405Y-13924976D02*
X14550357Y-13915452D01*
X14540833Y-13896405D01*
X14540833Y-13724976D01*
X14721786Y-13915452D02*
X14702738Y-13924976D01*
X14664643Y-13924976D01*
X14645595Y-13915452D01*
X14636071Y-13896405D01*
X14636071Y-13820214D01*
X14645595Y-13801167D01*
X14664643Y-13791643D01*
X14702738Y-13791643D01*
X14721786Y-13801167D01*
X14731309Y-13820214D01*
X14731309Y-13839262D01*
X14636071Y-13858309D01*
X14807500Y-13915452D02*
X14826548Y-13924976D01*
X14864643Y-13924976D01*
X14883690Y-13915452D01*
X14893214Y-13896405D01*
X14893214Y-13886881D01*
X14883690Y-13867833D01*
X14864643Y-13858309D01*
X14836071Y-13858309D01*
X14817024Y-13848786D01*
X14807500Y-13829738D01*
X14807500Y-13820214D01*
X14817024Y-13801167D01*
X14836071Y-13791643D01*
X14864643Y-13791643D01*
X14883690Y-13801167D01*
X14959881Y-14001167D02*
X14969405Y-13991643D01*
X14988452Y-13963071D01*
X14997976Y-13944024D01*
X15007500Y-13915452D01*
X15017024Y-13867833D01*
X15017024Y-13829738D01*
X15007500Y-13782119D01*
X14997976Y-13753548D01*
X14988452Y-13734500D01*
X14969405Y-13705928D01*
X14959881Y-13696405D01*
D15*
X9942500Y-14153500D02*
X9997500Y-14098500D01*
X9942500Y-14043500D01*
X9887500Y-14098500D01*
X9942500Y-14153500D01*
D11*
X10359881Y-14188976D02*
X10245595Y-14188976D01*
X10302738Y-14188976D02*
X10302738Y-13988976D01*
X10283690Y-14017548D01*
X10264643Y-14036595D01*
X10245595Y-14046119D01*
X10445595Y-14169928D02*
X10455119Y-14179452D01*
X10445595Y-14188976D01*
X10436071Y-14179452D01*
X10445595Y-14169928D01*
X10445595Y-14188976D01*
X10645595Y-14188976D02*
X10531310Y-14188976D01*
X10588452Y-14188976D02*
X10588452Y-13988976D01*
X10569405Y-14017548D01*
X10550357Y-14036595D01*
X10531310Y-14046119D01*
X10769405Y-13988976D02*
X10788452Y-13988976D01*
X10807500Y-13998500D01*
X10817024Y-14008024D01*
X10826548Y-14027071D01*
X10836071Y-14065167D01*
X10836071Y-14112786D01*
X10826548Y-14150881D01*
X10817024Y-14169928D01*
X10807500Y-14179452D01*
X10788452Y-14188976D01*
X10769405Y-14188976D01*
X10750357Y-14179452D01*
X10740833Y-14169928D01*
X10731310Y-14150881D01*
X10721786Y-14112786D01*
X10721786Y-14065167D01*
X10731310Y-14027071D01*
X10740833Y-14008024D01*
X10750357Y-13998500D01*
X10769405Y-13988976D01*
X10959881Y-13988976D02*
X10978929Y-13988976D01*
X10997976Y-13998500D01*
X11007500Y-14008024D01*
X11017024Y-14027071D01*
X11026548Y-14065167D01*
X11026548Y-14112786D01*
X11017024Y-14150881D01*
X11007500Y-14169928D01*
X10997976Y-14179452D01*
X10978929Y-14188976D01*
X10959881Y-14188976D01*
X10940833Y-14179452D01*
X10931310Y-14169928D01*
X10921786Y-14150881D01*
X10912262Y-14112786D01*
X10912262Y-14065167D01*
X10921786Y-14027071D01*
X10931310Y-14008024D01*
X10940833Y-13998500D01*
X10959881Y-13988976D01*
X11112262Y-14188976D02*
X11112262Y-14055643D01*
X11112262Y-14074690D02*
X11121786Y-14065167D01*
X11140833Y-14055643D01*
X11169405Y-14055643D01*
X11188452Y-14065167D01*
X11197976Y-14084214D01*
X11197976Y-14188976D01*
X11197976Y-14084214D02*
X11207500Y-14065167D01*
X11226548Y-14055643D01*
X11255119Y-14055643D01*
X11274167Y-14065167D01*
X11283690Y-14084214D01*
X11283690Y-14188976D01*
X11378928Y-14188976D02*
X11378928Y-14055643D01*
X11378928Y-14074690D02*
X11388452Y-14065167D01*
X11407500Y-14055643D01*
X11436071Y-14055643D01*
X11455119Y-14065167D01*
X11464643Y-14084214D01*
X11464643Y-14188976D01*
X11464643Y-14084214D02*
X11474167Y-14065167D01*
X11493214Y-14055643D01*
X11521786Y-14055643D01*
X11540833Y-14065167D01*
X11550357Y-14084214D01*
X11550357Y-14188976D01*
X11940833Y-13979452D02*
X11769405Y-14236595D01*
X12197976Y-13988976D02*
X12217024Y-13988976D01*
X12236071Y-13998500D01*
X12245595Y-14008024D01*
X12255119Y-14027071D01*
X12264643Y-14065167D01*
X12264643Y-14112786D01*
X12255119Y-14150881D01*
X12245595Y-14169928D01*
X12236071Y-14179452D01*
X12217024Y-14188976D01*
X12197976Y-14188976D01*
X12178928Y-14179452D01*
X12169405Y-14169928D01*
X12159881Y-14150881D01*
X12150357Y-14112786D01*
X12150357Y-14065167D01*
X12159881Y-14027071D01*
X12169405Y-14008024D01*
X12178928Y-13998500D01*
X12197976Y-13988976D01*
X12350357Y-14169928D02*
X12359881Y-14179452D01*
X12350357Y-14188976D01*
X12340833Y-14179452D01*
X12350357Y-14169928D01*
X12350357Y-14188976D01*
X12483690Y-13988976D02*
X12502738Y-13988976D01*
X12521786Y-13998500D01*
X12531309Y-14008024D01*
X12540833Y-14027071D01*
X12550357Y-14065167D01*
X12550357Y-14112786D01*
X12540833Y-14150881D01*
X12531309Y-14169928D01*
X12521786Y-14179452D01*
X12502738Y-14188976D01*
X12483690Y-14188976D01*
X12464643Y-14179452D01*
X12455119Y-14169928D01*
X12445595Y-14150881D01*
X12436071Y-14112786D01*
X12436071Y-14065167D01*
X12445595Y-14027071D01*
X12455119Y-14008024D01*
X12464643Y-13998500D01*
X12483690Y-13988976D01*
X12721786Y-14055643D02*
X12721786Y-14188976D01*
X12674167Y-13979452D02*
X12626548Y-14122309D01*
X12750357Y-14122309D01*
X12807500Y-13988976D02*
X12931309Y-13988976D01*
X12864643Y-14065167D01*
X12893214Y-14065167D01*
X12912262Y-14074690D01*
X12921786Y-14084214D01*
X12931309Y-14103262D01*
X12931309Y-14150881D01*
X12921786Y-14169928D01*
X12912262Y-14179452D01*
X12893214Y-14188976D01*
X12836071Y-14188976D01*
X12817024Y-14179452D01*
X12807500Y-14169928D01*
X12997976Y-13988976D02*
X13121786Y-13988976D01*
X13055119Y-14065167D01*
X13083690Y-14065167D01*
X13102738Y-14074690D01*
X13112262Y-14084214D01*
X13121786Y-14103262D01*
X13121786Y-14150881D01*
X13112262Y-14169928D01*
X13102738Y-14179452D01*
X13083690Y-14188976D01*
X13026548Y-14188976D01*
X13007500Y-14179452D01*
X12997976Y-14169928D01*
X13197976Y-13988976D02*
X13197976Y-14027071D01*
X13274167Y-13988976D02*
X13274167Y-14027071D01*
X13569405Y-14265167D02*
X13559881Y-14255643D01*
X13540833Y-14227071D01*
X13531309Y-14208024D01*
X13521786Y-14179452D01*
X13512262Y-14131833D01*
X13512262Y-14093738D01*
X13521786Y-14046119D01*
X13531309Y-14017548D01*
X13540833Y-13998500D01*
X13559881Y-13969928D01*
X13569405Y-13960405D01*
X13636071Y-14008024D02*
X13645595Y-13998500D01*
X13664643Y-13988976D01*
X13712262Y-13988976D01*
X13731309Y-13998500D01*
X13740833Y-14008024D01*
X13750357Y-14027071D01*
X13750357Y-14046119D01*
X13740833Y-14074690D01*
X13626548Y-14188976D01*
X13750357Y-14188976D01*
X13988452Y-14188976D02*
X13988452Y-13988976D01*
X14074167Y-14188976D02*
X14074167Y-14084214D01*
X14064643Y-14065167D01*
X14045595Y-14055643D01*
X14017024Y-14055643D01*
X13997976Y-14065167D01*
X13988452Y-14074690D01*
X14197976Y-14188976D02*
X14178928Y-14179452D01*
X14169405Y-14169928D01*
X14159881Y-14150881D01*
X14159881Y-14093738D01*
X14169405Y-14074690D01*
X14178928Y-14065167D01*
X14197976Y-14055643D01*
X14226548Y-14055643D01*
X14245595Y-14065167D01*
X14255119Y-14074690D01*
X14264643Y-14093738D01*
X14264643Y-14150881D01*
X14255119Y-14169928D01*
X14245595Y-14179452D01*
X14226548Y-14188976D01*
X14197976Y-14188976D01*
X14378928Y-14188976D02*
X14359881Y-14179452D01*
X14350357Y-14160405D01*
X14350357Y-13988976D01*
X14531309Y-14179452D02*
X14512262Y-14188976D01*
X14474167Y-14188976D01*
X14455119Y-14179452D01*
X14445595Y-14160405D01*
X14445595Y-14084214D01*
X14455119Y-14065167D01*
X14474167Y-14055643D01*
X14512262Y-14055643D01*
X14531309Y-14065167D01*
X14540833Y-14084214D01*
X14540833Y-14103262D01*
X14445595Y-14122309D01*
X14617024Y-14179452D02*
X14636071Y-14188976D01*
X14674167Y-14188976D01*
X14693214Y-14179452D01*
X14702738Y-14160405D01*
X14702738Y-14150881D01*
X14693214Y-14131833D01*
X14674167Y-14122309D01*
X14645595Y-14122309D01*
X14626548Y-14112786D01*
X14617024Y-14093738D01*
X14617024Y-14084214D01*
X14626548Y-14065167D01*
X14645595Y-14055643D01*
X14674167Y-14055643D01*
X14693214Y-14065167D01*
X14769405Y-14265167D02*
X14778928Y-14255643D01*
X14797976Y-14227071D01*
X14807500Y-14208024D01*
X14817024Y-14179452D01*
X14826548Y-14131833D01*
X14826548Y-14093738D01*
X14817024Y-14046119D01*
X14807500Y-14017548D01*
X14797976Y-13998500D01*
X14778928Y-13969928D01*
X14769405Y-13960405D01*
D16*
X9847500Y-14287500D02*
X9997500Y-14437500D01*
X9997500Y-14287500D02*
X9847500Y-14437500D01*
X9997500Y-14362500D02*
G75*
G03*
X9997500Y-14362500I-75000J0D01*
G01*
D11*
X10359881Y-14452976D02*
X10245595Y-14452976D01*
X10302738Y-14452976D02*
X10302738Y-14252976D01*
X10283690Y-14281548D01*
X10264643Y-14300595D01*
X10245595Y-14310119D01*
X10445595Y-14433928D02*
X10455119Y-14443452D01*
X10445595Y-14452976D01*
X10436071Y-14443452D01*
X10445595Y-14433928D01*
X10445595Y-14452976D01*
X10636071Y-14252976D02*
X10540833Y-14252976D01*
X10531310Y-14348214D01*
X10540833Y-14338690D01*
X10559881Y-14329167D01*
X10607500Y-14329167D01*
X10626548Y-14338690D01*
X10636071Y-14348214D01*
X10645595Y-14367262D01*
X10645595Y-14414881D01*
X10636071Y-14433928D01*
X10626548Y-14443452D01*
X10607500Y-14452976D01*
X10559881Y-14452976D01*
X10540833Y-14443452D01*
X10531310Y-14433928D01*
X10769405Y-14252976D02*
X10788452Y-14252976D01*
X10807500Y-14262500D01*
X10817024Y-14272024D01*
X10826548Y-14291071D01*
X10836071Y-14329167D01*
X10836071Y-14376786D01*
X10826548Y-14414881D01*
X10817024Y-14433928D01*
X10807500Y-14443452D01*
X10788452Y-14452976D01*
X10769405Y-14452976D01*
X10750357Y-14443452D01*
X10740833Y-14433928D01*
X10731310Y-14414881D01*
X10721786Y-14376786D01*
X10721786Y-14329167D01*
X10731310Y-14291071D01*
X10740833Y-14272024D01*
X10750357Y-14262500D01*
X10769405Y-14252976D01*
X10959881Y-14252976D02*
X10978929Y-14252976D01*
X10997976Y-14262500D01*
X11007500Y-14272024D01*
X11017024Y-14291071D01*
X11026548Y-14329167D01*
X11026548Y-14376786D01*
X11017024Y-14414881D01*
X11007500Y-14433928D01*
X10997976Y-14443452D01*
X10978929Y-14452976D01*
X10959881Y-14452976D01*
X10940833Y-14443452D01*
X10931310Y-14433928D01*
X10921786Y-14414881D01*
X10912262Y-14376786D01*
X10912262Y-14329167D01*
X10921786Y-14291071D01*
X10931310Y-14272024D01*
X10940833Y-14262500D01*
X10959881Y-14252976D01*
X11112262Y-14452976D02*
X11112262Y-14319643D01*
X11112262Y-14338690D02*
X11121786Y-14329167D01*
X11140833Y-14319643D01*
X11169405Y-14319643D01*
X11188452Y-14329167D01*
X11197976Y-14348214D01*
X11197976Y-14452976D01*
X11197976Y-14348214D02*
X11207500Y-14329167D01*
X11226548Y-14319643D01*
X11255119Y-14319643D01*
X11274167Y-14329167D01*
X11283690Y-14348214D01*
X11283690Y-14452976D01*
X11378928Y-14452976D02*
X11378928Y-14319643D01*
X11378928Y-14338690D02*
X11388452Y-14329167D01*
X11407500Y-14319643D01*
X11436071Y-14319643D01*
X11455119Y-14329167D01*
X11464643Y-14348214D01*
X11464643Y-14452976D01*
X11464643Y-14348214D02*
X11474167Y-14329167D01*
X11493214Y-14319643D01*
X11521786Y-14319643D01*
X11540833Y-14329167D01*
X11550357Y-14348214D01*
X11550357Y-14452976D01*
X11940833Y-14243452D02*
X11769405Y-14500595D01*
X12197976Y-14252976D02*
X12217024Y-14252976D01*
X12236071Y-14262500D01*
X12245595Y-14272024D01*
X12255119Y-14291071D01*
X12264643Y-14329167D01*
X12264643Y-14376786D01*
X12255119Y-14414881D01*
X12245595Y-14433928D01*
X12236071Y-14443452D01*
X12217024Y-14452976D01*
X12197976Y-14452976D01*
X12178928Y-14443452D01*
X12169405Y-14433928D01*
X12159881Y-14414881D01*
X12150357Y-14376786D01*
X12150357Y-14329167D01*
X12159881Y-14291071D01*
X12169405Y-14272024D01*
X12178928Y-14262500D01*
X12197976Y-14252976D01*
X12350357Y-14433928D02*
X12359881Y-14443452D01*
X12350357Y-14452976D01*
X12340833Y-14443452D01*
X12350357Y-14433928D01*
X12350357Y-14452976D01*
X12483690Y-14252976D02*
X12502738Y-14252976D01*
X12521786Y-14262500D01*
X12531309Y-14272024D01*
X12540833Y-14291071D01*
X12550357Y-14329167D01*
X12550357Y-14376786D01*
X12540833Y-14414881D01*
X12531309Y-14433928D01*
X12521786Y-14443452D01*
X12502738Y-14452976D01*
X12483690Y-14452976D01*
X12464643Y-14443452D01*
X12455119Y-14433928D01*
X12445595Y-14414881D01*
X12436071Y-14376786D01*
X12436071Y-14329167D01*
X12445595Y-14291071D01*
X12455119Y-14272024D01*
X12464643Y-14262500D01*
X12483690Y-14252976D01*
X12731309Y-14252976D02*
X12636071Y-14252976D01*
X12626548Y-14348214D01*
X12636071Y-14338690D01*
X12655119Y-14329167D01*
X12702738Y-14329167D01*
X12721786Y-14338690D01*
X12731309Y-14348214D01*
X12740833Y-14367262D01*
X12740833Y-14414881D01*
X12731309Y-14433928D01*
X12721786Y-14443452D01*
X12702738Y-14452976D01*
X12655119Y-14452976D01*
X12636071Y-14443452D01*
X12626548Y-14433928D01*
X12836071Y-14452976D02*
X12874167Y-14452976D01*
X12893214Y-14443452D01*
X12902738Y-14433928D01*
X12921786Y-14405357D01*
X12931309Y-14367262D01*
X12931309Y-14291071D01*
X12921786Y-14272024D01*
X12912262Y-14262500D01*
X12893214Y-14252976D01*
X12855119Y-14252976D01*
X12836071Y-14262500D01*
X12826548Y-14272024D01*
X12817024Y-14291071D01*
X12817024Y-14338690D01*
X12826548Y-14357738D01*
X12836071Y-14367262D01*
X12855119Y-14376786D01*
X12893214Y-14376786D01*
X12912262Y-14367262D01*
X12921786Y-14357738D01*
X12931309Y-14338690D01*
X13121786Y-14452976D02*
X13007500Y-14452976D01*
X13064643Y-14452976D02*
X13064643Y-14252976D01*
X13045595Y-14281548D01*
X13026548Y-14300595D01*
X13007500Y-14310119D01*
X13197976Y-14252976D02*
X13197976Y-14291071D01*
X13274167Y-14252976D02*
X13274167Y-14291071D01*
X13569405Y-14529167D02*
X13559881Y-14519643D01*
X13540833Y-14491071D01*
X13531309Y-14472024D01*
X13521786Y-14443452D01*
X13512262Y-14395833D01*
X13512262Y-14357738D01*
X13521786Y-14310119D01*
X13531309Y-14281548D01*
X13540833Y-14262500D01*
X13559881Y-14233928D01*
X13569405Y-14224405D01*
X13626548Y-14252976D02*
X13750357Y-14252976D01*
X13683690Y-14329167D01*
X13712262Y-14329167D01*
X13731309Y-14338690D01*
X13740833Y-14348214D01*
X13750357Y-14367262D01*
X13750357Y-14414881D01*
X13740833Y-14433928D01*
X13731309Y-14443452D01*
X13712262Y-14452976D01*
X13655119Y-14452976D01*
X13636071Y-14443452D01*
X13626548Y-14433928D01*
X13988452Y-14452976D02*
X13988452Y-14252976D01*
X14074167Y-14452976D02*
X14074167Y-14348214D01*
X14064643Y-14329167D01*
X14045595Y-14319643D01*
X14017024Y-14319643D01*
X13997976Y-14329167D01*
X13988452Y-14338690D01*
X14197976Y-14452976D02*
X14178928Y-14443452D01*
X14169405Y-14433928D01*
X14159881Y-14414881D01*
X14159881Y-14357738D01*
X14169405Y-14338690D01*
X14178928Y-14329167D01*
X14197976Y-14319643D01*
X14226548Y-14319643D01*
X14245595Y-14329167D01*
X14255119Y-14338690D01*
X14264643Y-14357738D01*
X14264643Y-14414881D01*
X14255119Y-14433928D01*
X14245595Y-14443452D01*
X14226548Y-14452976D01*
X14197976Y-14452976D01*
X14378928Y-14452976D02*
X14359881Y-14443452D01*
X14350357Y-14424405D01*
X14350357Y-14252976D01*
X14531309Y-14443452D02*
X14512262Y-14452976D01*
X14474167Y-14452976D01*
X14455119Y-14443452D01*
X14445595Y-14424405D01*
X14445595Y-14348214D01*
X14455119Y-14329167D01*
X14474167Y-14319643D01*
X14512262Y-14319643D01*
X14531309Y-14329167D01*
X14540833Y-14348214D01*
X14540833Y-14367262D01*
X14445595Y-14386309D01*
X14617024Y-14443452D02*
X14636071Y-14452976D01*
X14674167Y-14452976D01*
X14693214Y-14443452D01*
X14702738Y-14424405D01*
X14702738Y-14414881D01*
X14693214Y-14395833D01*
X14674167Y-14386309D01*
X14645595Y-14386309D01*
X14626548Y-14376786D01*
X14617024Y-14357738D01*
X14617024Y-14348214D01*
X14626548Y-14329167D01*
X14645595Y-14319643D01*
X14674167Y-14319643D01*
X14693214Y-14329167D01*
X14769405Y-14529167D02*
X14778928Y-14519643D01*
X14797976Y-14491071D01*
X14807500Y-14472024D01*
X14817024Y-14443452D01*
X14826548Y-14395833D01*
X14826548Y-14357738D01*
X14817024Y-14310119D01*
X14807500Y-14281548D01*
X14797976Y-14262500D01*
X14778928Y-14233928D01*
X14769405Y-14224405D01*
X9797500Y-14532500D02*
X9997500Y-14732500D01*
X9997500Y-14532500D02*
X9797500Y-14732500D01*
X9897500Y-14532500D02*
X9897500Y-14732500D01*
X9797500Y-14632500D02*
X9997500Y-14632500D01*
X10245595Y-14542024D02*
X10255119Y-14532500D01*
X10274167Y-14522976D01*
X10321786Y-14522976D01*
X10340833Y-14532500D01*
X10350357Y-14542024D01*
X10359881Y-14561071D01*
X10359881Y-14580119D01*
X10350357Y-14608690D01*
X10236071Y-14722976D01*
X10359881Y-14722976D01*
X10445595Y-14703928D02*
X10455119Y-14713452D01*
X10445595Y-14722976D01*
X10436071Y-14713452D01*
X10445595Y-14703928D01*
X10445595Y-14722976D01*
X10531310Y-14542024D02*
X10540833Y-14532500D01*
X10559881Y-14522976D01*
X10607500Y-14522976D01*
X10626548Y-14532500D01*
X10636071Y-14542024D01*
X10645595Y-14561071D01*
X10645595Y-14580119D01*
X10636071Y-14608690D01*
X10521786Y-14722976D01*
X10645595Y-14722976D01*
X10769405Y-14522976D02*
X10788452Y-14522976D01*
X10807500Y-14532500D01*
X10817024Y-14542024D01*
X10826548Y-14561071D01*
X10836071Y-14599167D01*
X10836071Y-14646786D01*
X10826548Y-14684881D01*
X10817024Y-14703928D01*
X10807500Y-14713452D01*
X10788452Y-14722976D01*
X10769405Y-14722976D01*
X10750357Y-14713452D01*
X10740833Y-14703928D01*
X10731310Y-14684881D01*
X10721786Y-14646786D01*
X10721786Y-14599167D01*
X10731310Y-14561071D01*
X10740833Y-14542024D01*
X10750357Y-14532500D01*
X10769405Y-14522976D01*
X10959881Y-14522976D02*
X10978929Y-14522976D01*
X10997976Y-14532500D01*
X11007500Y-14542024D01*
X11017024Y-14561071D01*
X11026548Y-14599167D01*
X11026548Y-14646786D01*
X11017024Y-14684881D01*
X11007500Y-14703928D01*
X10997976Y-14713452D01*
X10978929Y-14722976D01*
X10959881Y-14722976D01*
X10940833Y-14713452D01*
X10931310Y-14703928D01*
X10921786Y-14684881D01*
X10912262Y-14646786D01*
X10912262Y-14599167D01*
X10921786Y-14561071D01*
X10931310Y-14542024D01*
X10940833Y-14532500D01*
X10959881Y-14522976D01*
X11112262Y-14722976D02*
X11112262Y-14589643D01*
X11112262Y-14608690D02*
X11121786Y-14599167D01*
X11140833Y-14589643D01*
X11169405Y-14589643D01*
X11188452Y-14599167D01*
X11197976Y-14618214D01*
X11197976Y-14722976D01*
X11197976Y-14618214D02*
X11207500Y-14599167D01*
X11226548Y-14589643D01*
X11255119Y-14589643D01*
X11274167Y-14599167D01*
X11283690Y-14618214D01*
X11283690Y-14722976D01*
X11378928Y-14722976D02*
X11378928Y-14589643D01*
X11378928Y-14608690D02*
X11388452Y-14599167D01*
X11407500Y-14589643D01*
X11436071Y-14589643D01*
X11455119Y-14599167D01*
X11464643Y-14618214D01*
X11464643Y-14722976D01*
X11464643Y-14618214D02*
X11474167Y-14599167D01*
X11493214Y-14589643D01*
X11521786Y-14589643D01*
X11540833Y-14599167D01*
X11550357Y-14618214D01*
X11550357Y-14722976D01*
X11940833Y-14513452D02*
X11769405Y-14770595D01*
X12197976Y-14522976D02*
X12217024Y-14522976D01*
X12236071Y-14532500D01*
X12245595Y-14542024D01*
X12255119Y-14561071D01*
X12264643Y-14599167D01*
X12264643Y-14646786D01*
X12255119Y-14684881D01*
X12245595Y-14703928D01*
X12236071Y-14713452D01*
X12217024Y-14722976D01*
X12197976Y-14722976D01*
X12178928Y-14713452D01*
X12169405Y-14703928D01*
X12159881Y-14684881D01*
X12150357Y-14646786D01*
X12150357Y-14599167D01*
X12159881Y-14561071D01*
X12169405Y-14542024D01*
X12178928Y-14532500D01*
X12197976Y-14522976D01*
X12350357Y-14703928D02*
X12359881Y-14713452D01*
X12350357Y-14722976D01*
X12340833Y-14713452D01*
X12350357Y-14703928D01*
X12350357Y-14722976D01*
X12483690Y-14522976D02*
X12502738Y-14522976D01*
X12521786Y-14532500D01*
X12531309Y-14542024D01*
X12540833Y-14561071D01*
X12550357Y-14599167D01*
X12550357Y-14646786D01*
X12540833Y-14684881D01*
X12531309Y-14703928D01*
X12521786Y-14713452D01*
X12502738Y-14722976D01*
X12483690Y-14722976D01*
X12464643Y-14713452D01*
X12455119Y-14703928D01*
X12445595Y-14684881D01*
X12436071Y-14646786D01*
X12436071Y-14599167D01*
X12445595Y-14561071D01*
X12455119Y-14542024D01*
X12464643Y-14532500D01*
X12483690Y-14522976D01*
X12664643Y-14608690D02*
X12645595Y-14599167D01*
X12636071Y-14589643D01*
X12626548Y-14570595D01*
X12626548Y-14561071D01*
X12636071Y-14542024D01*
X12645595Y-14532500D01*
X12664643Y-14522976D01*
X12702738Y-14522976D01*
X12721786Y-14532500D01*
X12731309Y-14542024D01*
X12740833Y-14561071D01*
X12740833Y-14570595D01*
X12731309Y-14589643D01*
X12721786Y-14599167D01*
X12702738Y-14608690D01*
X12664643Y-14608690D01*
X12645595Y-14618214D01*
X12636071Y-14627738D01*
X12626548Y-14646786D01*
X12626548Y-14684881D01*
X12636071Y-14703928D01*
X12645595Y-14713452D01*
X12664643Y-14722976D01*
X12702738Y-14722976D01*
X12721786Y-14713452D01*
X12731309Y-14703928D01*
X12740833Y-14684881D01*
X12740833Y-14646786D01*
X12731309Y-14627738D01*
X12721786Y-14618214D01*
X12702738Y-14608690D01*
X12912262Y-14522976D02*
X12874167Y-14522976D01*
X12855119Y-14532500D01*
X12845595Y-14542024D01*
X12826548Y-14570595D01*
X12817024Y-14608690D01*
X12817024Y-14684881D01*
X12826548Y-14703928D01*
X12836071Y-14713452D01*
X12855119Y-14722976D01*
X12893214Y-14722976D01*
X12912262Y-14713452D01*
X12921786Y-14703928D01*
X12931309Y-14684881D01*
X12931309Y-14637262D01*
X12921786Y-14618214D01*
X12912262Y-14608690D01*
X12893214Y-14599167D01*
X12855119Y-14599167D01*
X12836071Y-14608690D01*
X12826548Y-14618214D01*
X12817024Y-14637262D01*
X13102738Y-14522976D02*
X13064643Y-14522976D01*
X13045595Y-14532500D01*
X13036071Y-14542024D01*
X13017024Y-14570595D01*
X13007500Y-14608690D01*
X13007500Y-14684881D01*
X13017024Y-14703928D01*
X13026548Y-14713452D01*
X13045595Y-14722976D01*
X13083690Y-14722976D01*
X13102738Y-14713452D01*
X13112262Y-14703928D01*
X13121786Y-14684881D01*
X13121786Y-14637262D01*
X13112262Y-14618214D01*
X13102738Y-14608690D01*
X13083690Y-14599167D01*
X13045595Y-14599167D01*
X13026548Y-14608690D01*
X13017024Y-14618214D01*
X13007500Y-14637262D01*
X13197976Y-14522976D02*
X13197976Y-14561071D01*
X13274167Y-14522976D02*
X13274167Y-14561071D01*
X13569405Y-14799167D02*
X13559881Y-14789643D01*
X13540833Y-14761071D01*
X13531309Y-14742024D01*
X13521786Y-14713452D01*
X13512262Y-14665833D01*
X13512262Y-14627738D01*
X13521786Y-14580119D01*
X13531309Y-14551548D01*
X13540833Y-14532500D01*
X13559881Y-14503928D01*
X13569405Y-14494405D01*
X13731309Y-14589643D02*
X13731309Y-14722976D01*
X13683690Y-14513452D02*
X13636071Y-14656309D01*
X13759881Y-14656309D01*
X13988452Y-14722976D02*
X13988452Y-14522976D01*
X14074167Y-14722976D02*
X14074167Y-14618214D01*
X14064643Y-14599167D01*
X14045595Y-14589643D01*
X14017024Y-14589643D01*
X13997976Y-14599167D01*
X13988452Y-14608690D01*
X14197976Y-14722976D02*
X14178928Y-14713452D01*
X14169405Y-14703928D01*
X14159881Y-14684881D01*
X14159881Y-14627738D01*
X14169405Y-14608690D01*
X14178928Y-14599167D01*
X14197976Y-14589643D01*
X14226548Y-14589643D01*
X14245595Y-14599167D01*
X14255119Y-14608690D01*
X14264643Y-14627738D01*
X14264643Y-14684881D01*
X14255119Y-14703928D01*
X14245595Y-14713452D01*
X14226548Y-14722976D01*
X14197976Y-14722976D01*
X14378928Y-14722976D02*
X14359881Y-14713452D01*
X14350357Y-14694405D01*
X14350357Y-14522976D01*
X14531309Y-14713452D02*
X14512262Y-14722976D01*
X14474167Y-14722976D01*
X14455119Y-14713452D01*
X14445595Y-14694405D01*
X14445595Y-14618214D01*
X14455119Y-14599167D01*
X14474167Y-14589643D01*
X14512262Y-14589643D01*
X14531309Y-14599167D01*
X14540833Y-14618214D01*
X14540833Y-14637262D01*
X14445595Y-14656309D01*
X14617024Y-14713452D02*
X14636071Y-14722976D01*
X14674167Y-14722976D01*
X14693214Y-14713452D01*
X14702738Y-14694405D01*
X14702738Y-14684881D01*
X14693214Y-14665833D01*
X14674167Y-14656309D01*
X14645595Y-14656309D01*
X14626548Y-14646786D01*
X14617024Y-14627738D01*
X14617024Y-14618214D01*
X14626548Y-14599167D01*
X14645595Y-14589643D01*
X14674167Y-14589643D01*
X14693214Y-14599167D01*
X14769405Y-14799167D02*
X14778928Y-14789643D01*
X14797976Y-14761071D01*
X14807500Y-14742024D01*
X14817024Y-14713452D01*
X14826548Y-14665833D01*
X14826548Y-14627738D01*
X14817024Y-14580119D01*
X14807500Y-14551548D01*
X14797976Y-14532500D01*
X14778928Y-14503928D01*
X14769405Y-14494405D01*
M02*
